<svg width="30" height="26" viewBox="0 0 30 26" fill="none" xmlns="http://www.w3.org/2000/svg">
<path d="M0.914673 13.119C1.06264 13.1894 1.18573 13.256 1.32026 13.3455C1.92778 13.744 2.56221 13.7214 3.26363 13.7223C3.36508 13.7228 3.46653 13.7234 3.56798 13.724C3.84214 13.7256 4.1163 13.7265 4.39046 13.7273C4.67744 13.7282 4.96442 13.7298 5.2514 13.7313C5.79428 13.734 6.33716 13.7361 6.88005 13.7381C7.49834 13.7403 8.11662 13.7432 8.73491 13.7461C10.0063 13.7522 11.2776 13.7574 12.5489 13.7621C12.5492 13.8243 12.5494 13.8865 12.5497 13.9507C12.551 14.1822 12.5541 14.4137 12.5579 14.6453C12.5592 14.7453 12.5601 14.8454 12.5604 14.9455C12.5609 15.0897 12.5633 15.2337 12.5661 15.3778C12.5657 15.4446 12.5657 15.4446 12.5654 15.5128C12.5718 15.7493 12.5977 15.8549 12.7491 16.0406C12.9963 16.2351 13.188 16.2251 13.4971 16.227C13.5707 16.2275 13.6443 16.2281 13.7201 16.2287C13.8002 16.229 13.8804 16.2292 13.9605 16.2294C14.0431 16.2298 14.1257 16.2301 14.2083 16.2304C14.3813 16.2311 14.5543 16.2314 14.7274 16.2316C14.9483 16.2319 15.1693 16.2333 15.3902 16.235C15.5608 16.2361 15.7314 16.2364 15.902 16.2365C15.9834 16.2367 16.0648 16.2371 16.1462 16.2379C16.742 16.2522 16.742 16.2522 17.2845 16.0422C17.4309 15.8225 17.4218 15.644 17.4256 15.3892C17.4268 15.3428 17.4279 15.2963 17.4291 15.2484C17.4326 15.1001 17.4353 14.9518 17.438 14.8035C17.4402 14.7029 17.4425 14.6023 17.4448 14.5017C17.4504 14.2552 17.4554 14.0086 17.4599 13.7621C17.5123 13.7619 17.5648 13.7618 17.6188 13.7617C18.8963 13.7582 20.1739 13.7538 21.4514 13.7483C22.0692 13.7457 22.687 13.7434 23.3048 13.7418C23.8435 13.7405 24.3821 13.7385 24.9208 13.7359C25.2058 13.7345 25.4909 13.7334 25.7759 13.733C26.0446 13.7326 26.3133 13.7315 26.5819 13.7297C26.6802 13.7292 26.7784 13.7289 26.8767 13.7291C27.5548 13.7295 28.1735 13.7034 28.7544 13.3126C29.0518 13.131 29.2167 13.0535 29.5619 13.119C29.8834 13.2944 29.8834 13.2944 29.9711 13.4698C29.9771 13.5942 29.9793 13.7189 29.9797 13.8435C29.9799 13.8823 29.9802 13.9211 29.9804 13.9611C29.981 14.0917 29.9813 14.2223 29.9815 14.353C29.9818 14.4464 29.9822 14.5399 29.9826 14.6333C29.9839 14.9409 29.9845 15.2484 29.9851 15.556C29.9853 15.6619 29.9855 15.7678 29.9858 15.8738C29.9869 16.3717 29.9877 16.8697 29.9882 17.3677C29.9888 17.9419 29.9903 18.5161 29.9927 19.0903C29.9945 19.5344 29.9953 19.9785 29.9955 20.4226C29.9956 20.6876 29.9962 20.9527 29.9976 21.2177C29.999 21.4675 29.9992 21.7173 29.9987 21.967C29.9986 22.0583 29.999 22.1496 29.9998 22.2408C30.0068 23.087 29.8319 23.6979 29.2696 24.344C28.765 24.8412 28.0674 25.0551 27.3739 25.0533C27.3088 25.0534 27.3088 25.0534 27.2424 25.0536C27.0966 25.054 26.9508 25.0539 26.805 25.0538C26.6996 25.0539 26.5942 25.0541 26.4888 25.0543C26.1987 25.0548 25.9086 25.0549 25.6186 25.0549C25.3059 25.055 24.9932 25.0555 24.6805 25.0559C23.9966 25.0567 23.3126 25.057 22.6287 25.0573C22.2017 25.0574 21.7747 25.0577 21.3476 25.058C20.1654 25.0587 18.9832 25.0593 17.801 25.0595C17.6875 25.0595 17.6875 25.0595 17.5717 25.0595C17.4579 25.0595 17.4579 25.0595 17.3419 25.0595C17.1881 25.0596 17.0344 25.0596 16.8807 25.0596C16.7663 25.0596 16.7663 25.0596 16.6497 25.0597C15.4142 25.0599 14.1788 25.0609 12.9434 25.0623C11.6752 25.0637 10.4069 25.0644 9.13865 25.0645C8.42652 25.0645 7.71439 25.0648 7.00226 25.0659C6.39585 25.0668 5.78944 25.0671 5.18302 25.0666C4.87367 25.0664 4.56432 25.0665 4.25496 25.0673C3.97157 25.068 3.68819 25.0679 3.4048 25.0672C3.30246 25.0671 3.20013 25.0673 3.0978 25.0678C2.20197 25.072 1.41052 24.9589 0.721468 24.3356C0.111752 23.6683 0.0112849 22.9915 0.0131669 22.1226C0.0127373 22.0285 0.0122351 21.9344 0.0116664 21.8404C0.0103731 21.5862 0.010196 21.3321 0.010307 21.078C0.010314 20.8656 0.00981266 20.6531 0.00932617 20.4407C0.00820387 19.9397 0.00803234 19.4387 0.00842817 18.9377C0.00881715 18.4211 0.00747616 17.9044 0.00531128 17.3878C0.00351786 16.9436 0.00285225 16.4995 0.00308006 16.0554C0.00320096 15.7903 0.00288011 15.5253 0.00144939 15.2603C0.000149587 15.0113 0.000255621 14.7624 0.00144515 14.5134C0.00164481 14.4221 0.00134571 14.3307 0.000510691 14.2394C-0.000551082 14.1147 0.000190761 13.9901 0.00138427 13.8654C0.00134261 13.7956 0.00130095 13.7259 0.00125804 13.654C0.0483216 13.4162 0.145979 13.3297 0.330036 13.1774C0.518219 13.0834 0.710499 13.0927 0.914673 13.119Z" fill="#3CBE92"/>
<path d="M11.7596 0.00706353C11.8381 0.00680889 11.9165 0.0065057 11.9949 0.00615806C12.2066 0.00537981 12.4182 0.0053409 12.6298 0.00548943C12.8072 0.0055523 12.9846 0.00526564 13.162 0.00498633C13.5808 0.00433921 13.9997 0.0043112 14.4186 0.00466561C14.8491 0.00501843 15.2796 0.00429934 15.7101 0.00305376C16.0811 0.00202007 16.4522 0.0016736 16.8232 0.0018633C17.0442 0.00196872 17.2652 0.00182094 17.4862 0.00100304C17.6942 0.000261747 17.9022 0.000386831 18.1102 0.00114399C18.2218 0.00134571 18.3334 0.000691608 18.445 0C19.2724 0.00498334 19.9464 0.19542 20.5694 0.753917C21.0268 1.2345 21.2687 1.85809 21.2657 2.51445C21.2656 2.58737 21.2654 2.66028 21.2652 2.7354C21.2647 2.81103 21.2642 2.88666 21.2637 2.96458C21.2634 3.04133 21.2632 3.11809 21.2629 3.19717C21.2622 3.38639 21.2612 3.57559 21.26 3.7648C21.2932 3.76464 21.3263 3.76447 21.3605 3.76431C22.1696 3.76042 22.9788 3.75754 23.7879 3.75571C24.1793 3.75481 24.5706 3.75356 24.9619 3.75157C25.3398 3.74965 25.7177 3.74861 26.0957 3.74816C26.2396 3.74783 26.3834 3.7472 26.5273 3.74625C26.7295 3.74497 26.9317 3.74481 27.1339 3.74489C27.1928 3.74426 27.2517 3.74363 27.3124 3.74298C28.0842 3.7463 28.7605 3.99301 29.3326 4.51592C29.7748 5.0112 29.9889 5.57508 29.9881 6.23426C29.9887 6.30379 29.9887 6.30379 29.9893 6.37473C29.9904 6.52696 29.9906 6.67917 29.9908 6.8314C29.9911 6.93807 29.9915 7.04474 29.9919 7.15141C29.9926 7.37471 29.9929 7.59801 29.9928 7.82132C29.9928 8.10602 29.9944 8.39069 29.9964 8.67538C29.9977 8.89567 29.9979 9.11596 29.9979 9.33626C29.998 9.44114 29.9985 9.54603 29.9994 9.6509C30.0057 10.4535 29.9371 11.0893 29.3865 11.7159C29.3572 11.7513 29.3279 11.7867 29.2976 11.8232C28.9783 12.1791 28.514 12.4446 28.0418 12.5344C27.898 12.5397 27.7558 12.542 27.612 12.5414C27.5469 12.5415 27.5469 12.5415 27.4804 12.5415C27.3349 12.5416 27.1894 12.5413 27.0439 12.541C26.9396 12.541 26.8353 12.541 26.731 12.541C26.4478 12.541 26.1645 12.5407 25.8813 12.5403C25.5854 12.5399 25.2894 12.5399 24.9934 12.5398C24.433 12.5396 23.8725 12.5392 23.312 12.5386C22.6739 12.5379 22.0358 12.5376 21.3977 12.5373C20.0851 12.5367 18.7725 12.5357 17.4599 12.5344C17.4584 12.4787 17.4569 12.423 17.4553 12.3656C17.452 12.2923 17.4487 12.2189 17.4453 12.1434C17.4426 12.0708 17.4398 11.9982 17.4371 11.9235C17.3967 11.6886 17.336 11.5892 17.1676 11.4235C16.9705 11.3578 16.8198 11.3569 16.612 11.3557C16.5736 11.3554 16.5353 11.3551 16.4958 11.3548C16.3691 11.3539 16.2424 11.3535 16.1157 11.3532C16.0275 11.3529 15.9393 11.3525 15.8511 11.3522C15.6663 11.3516 15.4814 11.3512 15.2965 11.351C15.0598 11.3507 14.8232 11.3493 14.5866 11.3476C14.4044 11.3466 14.2223 11.3463 14.0401 11.3462C13.9529 11.346 13.8657 11.3455 13.7784 11.3447C13.6563 11.3437 13.5342 11.3439 13.412 11.3442C13.3425 11.344 13.2731 11.3438 13.2015 11.3436C12.9959 11.3675 12.8885 11.4164 12.7243 11.5405C12.5826 11.7531 12.5848 11.8829 12.5709 12.1361C12.5665 12.2105 12.5621 12.2848 12.5576 12.3615C12.5548 12.4185 12.5519 12.4756 12.5489 12.5344C11.1803 12.5398 9.81174 12.5439 8.44312 12.5465C7.80762 12.5477 7.17212 12.5493 6.53661 12.552C5.98254 12.5543 5.42848 12.5558 4.87441 12.5564C4.58118 12.5567 4.28796 12.5574 3.99474 12.5591C3.71838 12.5607 3.44204 12.5612 3.16568 12.5608C3.06461 12.5609 2.96353 12.5613 2.86245 12.5622C2.0829 12.5688 1.45989 12.4802 0.856201 11.9497C0.82078 11.9204 0.785359 11.8911 0.748865 11.8609C0.393254 11.5418 0.126859 11.077 0.0377088 10.6051C0.0313215 10.4506 0.0279184 10.2977 0.0273606 10.1433C0.0269764 10.0969 0.0265923 10.0506 0.0261964 10.0029C0.0250452 9.84969 0.0243613 9.69652 0.023778 9.54334C0.0235397 9.49082 0.0233018 9.4383 0.0230563 9.38419C0.0218375 9.10597 0.0210008 8.82775 0.0204523 8.54953C0.0198072 8.26345 0.0177976 7.97739 0.0154727 7.69132C0.013937 7.47028 0.0134545 7.24924 0.0132451 7.02818C0.012962 6.92281 0.0122861 6.81744 0.011196 6.71207C0.00294801 5.86168 0.102636 5.19177 0.680809 4.52483C1.32635 3.91876 1.99491 3.74538 2.86168 3.75152C2.95759 3.7515 2.95759 3.7515 3.05544 3.75147C3.26517 3.75155 3.47489 3.75246 3.68461 3.75338C3.83066 3.7536 3.97672 3.75376 4.12277 3.75388C4.46688 3.75428 4.81099 3.7552 5.1551 3.75638C5.5857 3.75782 6.0163 3.75844 6.44691 3.75909C7.21421 3.76034 7.9815 3.76231 8.7488 3.7648C8.74742 3.69501 8.74742 3.69501 8.74602 3.62381C8.74234 3.41016 8.74008 3.19651 8.73784 2.98285C8.73637 2.90967 8.7349 2.83649 8.73339 2.76109C8.72701 1.94874 8.9329 1.3159 9.4869 0.71007C10.1359 0.0970394 10.9085 0.00536186 11.7596 0.00706353ZM11.2627 2.59552C11.2627 2.98138 11.2627 3.36724 11.2627 3.7648C13.7322 3.7648 16.2018 3.7648 18.7461 3.7648C18.7461 3.37894 18.7461 2.99308 18.7461 2.59552C16.2766 2.59552 13.8071 2.59552 11.2627 2.59552Z" fill="#3CBE92"/>
</svg>
