<svg width="30" height="30" viewBox="0 0 30 30" fill="none" xmlns="http://www.w3.org/2000/svg">
<path fill-rule="evenodd" clip-rule="evenodd" d="M4 0C1.79086 0 0 1.79086 0 4V26C0 28.2091 1.79086 30 4 30H26C28.2091 30 30 28.2091 30 26V4C30 1.79086 28.2091 0 26 0H4ZM13.5763 4.01282L13.5044 4.01407C13.492 4.01404 13.4797 4.01381 13.4675 4.01358C13.3771 4.01193 13.2933 4.01041 13.2083 4.08891L13.1693 4.15456L13.1163 4.24146C13.0289 4.4561 13.0014 4.71017 13 4.98509L13.0005 5.07701C13.0002 5.18349 13.0001 5.28995 13.0003 5.39642L13.0005 5.51045L13.0005 5.63129C13.0003 5.8477 13.0002 6.06412 13.0005 6.28053C13.0008 6.51694 13.0008 6.75333 13.0007 6.98973C13.0005 7.453 13.0006 7.91626 13.001 8.37952C13.0013 8.92363 13.0014 9.46774 13.0014 10.0118C13.0015 11.01 13.0018 12.0082 13.0023 13.0064C13.0027 13.9505 13.003 14.8945 13.0031 15.8386L13.0031 15.9268L13.0031 16.2791L13.0032 16.4547L13.0032 16.6298C13.0032 17.5328 13.0034 18.4358 13.0037 19.3388L13.0039 20.2357L13.004 20.8325L13.0044 21.8853L13.0047 22.6022L13.005 23.2672L13.0051 23.5088L13.0052 23.8432L13.0053 23.9436C13.005 24.2307 13.0093 24.4765 13.0886 24.7228C13.1998 24.9286 13.2987 24.9963 13.4476 25L13.5149 24.9979C13.5486 24.9982 13.5824 24.9985 13.6161 24.9986C13.658 24.9987 13.6999 24.9985 13.7417 24.9978L13.7911 24.9971L13.8519 24.9965C13.8829 24.9963 13.9138 24.9962 13.9448 24.9962C14.0184 24.9962 14.092 24.996 14.1657 24.9953C14.2056 24.995 14.2455 24.9946 14.2855 24.994C14.4174 24.9921 14.5494 24.9908 14.6813 24.9908C14.8232 24.9909 14.9652 24.9904 15.1071 24.9893L15.1597 24.9889L15.229 24.9886C15.2939 24.9886 15.3588 24.9881 15.4237 24.9872L15.4956 24.9859C15.508 24.986 15.5203 24.9862 15.5325 24.9864C15.6229 24.9881 15.7067 24.9896 15.7917 24.9111L15.8307 24.8454L15.8837 24.7585C15.9711 24.5439 15.9986 24.2898 16 24.0149L15.9995 23.923C15.9998 23.8165 15.9999 23.7101 15.9997 23.6036C15.9995 23.5253 15.9995 23.447 15.9995 23.3687L15.9997 23.0836L15.9995 22.7195C15.9992 22.4831 15.9992 22.2467 15.9993 22.0103C15.9995 21.547 15.9994 21.0837 15.999 20.6205C15.9987 20.0764 15.9986 19.5323 15.9986 18.9882L15.9984 17.5785L15.9977 15.9936C15.9973 15.0495 15.997 14.1055 15.9969 13.1614L15.9969 13.0732L15.9969 12.7209L15.9968 12.5453L15.9968 12.3702C15.9968 11.4672 15.9966 10.5642 15.9963 9.66124L15.9961 8.7643L15.996 8.10358L15.9956 7.11467L15.9953 6.39784L15.995 5.7328L15.9949 5.49118L15.9948 5.1568L15.9947 5.05643C15.995 4.7693 15.9907 4.52351 15.9114 4.27724C15.8002 4.07141 15.7013 4.00368 15.5524 4L15.4851 4.00209C15.4095 4.00136 15.3339 4.00099 15.2583 4.0022C15.1906 4.00339 15.1229 4.00385 15.0552 4.00381C14.9416 4.00374 14.8281 4.00439 14.7145 4.006C14.5826 4.00793 14.4506 4.00923 14.3187 4.00916C14.1768 4.00906 14.0348 4.00957 13.8929 4.0107L13.8308 4.01114L13.771 4.01137C13.7061 4.01144 13.6412 4.01186 13.5763 4.01282ZM19.3927 9.01064L19.4544 9.00987L19.522 9.00974L19.5933 9.00908C19.6712 9.00844 19.7492 9.00815 19.8271 9.0079L19.9484 9.00734C20.0611 9.00682 20.1738 9.00648 20.2864 9.00635C20.432 9.00615 20.5776 9.00539 20.7232 9.00412C20.8358 9.00317 20.9484 9.00273 21.061 9.00267C21.1282 9.00264 21.1955 9.00232 21.2627 9.0016C21.3377 9.00085 21.4127 9.00093 21.4878 9.00122L21.555 9C21.6863 9.00156 21.7822 9.02269 21.8828 9.22244L21.9122 9.30009L21.9423 9.37775C21.9893 9.5228 21.9894 9.65347 21.9896 9.82343V9.83069L21.9899 9.98773L21.99 10.1611L21.9902 10.3447L21.9907 10.8502L21.9912 11.3949L21.9918 12.0169L21.9923 12.7112L21.9925 13.0828C21.993 13.852 21.9935 14.6212 21.9937 15.3904L21.9939 15.9249L21.994 16.0591C21.9942 16.7767 21.9949 17.4942 21.9957 18.2118L21.9967 19.1765C21.9969 19.5914 21.9971 20.0064 21.9972 20.4213C21.9972 20.6344 21.9973 20.8474 21.9975 21.0604C21.9976 21.261 21.9978 21.4616 21.9982 21.6622L21.9987 22.0801C21.9988 22.293 21.9989 22.5059 21.9987 22.7188C21.9986 22.8985 21.9987 23.0782 21.9992 23.2579C21.9996 23.4225 21.9996 23.5871 21.9992 23.7517C21.9992 23.8392 21.9996 23.9268 22 24.0144C21.9987 24.3284 21.9865 24.5586 21.8856 24.7966C21.7692 24.9979 21.6599 24.9964 21.5166 24.9944L21.5036 24.9942L21.4313 24.9953L21.4091 24.9956C21.3514 24.9962 21.2938 24.9961 21.2361 24.9958C21.2076 24.9957 21.1792 24.9957 21.1508 24.9958L21.0726 24.9962C20.944 24.9969 20.8154 24.9968 20.6867 24.9961C20.5544 24.9953 20.422 24.996 20.2896 24.9974C20.1757 24.9986 20.0617 24.9989 19.9478 24.9986C19.8799 24.9983 19.8119 24.9985 19.744 24.9993C19.7013 24.9997 19.6585 24.9997 19.6158 24.9995C19.5828 24.9993 19.5497 24.9989 19.5166 24.9985L19.4491 25C19.312 24.9964 19.2166 24.9505 19.1118 24.753C19.0269 24.5233 19.0081 24.3554 19.0078 24.068L19.0076 23.9131L19.0076 23.7427L19.0073 23.5619L19.007 23.0643L19.0066 22.528C19.0062 22.0961 19.006 21.6642 19.0058 21.2324L19.0055 20.6222C19.0053 20.2491 19.0051 19.876 19.005 19.5028L19.0047 18.5941L19.0046 18.0678L19.0045 17.9357C19.0044 17.2293 19.0039 16.5229 19.0032 15.8165C19.0025 15.0913 19.0022 14.3661 19.0021 13.6408L19.0019 13.0862L19.0014 12.4192C19.0009 12.0725 19.0008 11.7257 19.001 11.379L19.001 11.3277C19.001 11.1679 19.001 11.0081 19.0006 10.8483C19.0005 10.7785 19.0004 10.7087 19.0004 10.6389V10.5781L19.0006 10.3621C19.0007 10.276 19.0003 10.1899 19 10.1038C19.001 9.7999 19.0104 9.53574 19.0915 9.27831C19.1818 9.09425 19.2693 9.01154 19.3927 9.01064ZM7.43582 12.0189L7.37371 12.02C7.29863 12.0209 7.24224 12.0268 7.17861 12.1179L7.14249 12.1799L7.10636 12.2402C7.01408 12.4455 7.00352 12.642 7.00243 12.91L7.00279 13.0476C7.00244 13.2033 7.00219 13.359 7.00231 13.5146C7.00247 13.6582 7.00237 13.8019 7.00217 13.9455C7.00176 14.227 7.00164 14.5085 7.00175 14.79C7.00183 15.021 7.00187 15.252 7.00177 15.483L7.00172 15.5824L7.00163 15.7823C7.00134 16.4073 7.00138 17.0322 7.00161 17.6572C7.00182 18.231 7.00168 18.8048 7.0012 19.3785C7.00082 19.8286 7.00056 20.2787 7.0005 20.7288L7.00053 21.1527C7.0006 21.4841 7.00066 21.8156 7.00033 22.147C7.00002 22.4316 6.99987 22.7162 7.00015 23.0007L7.00039 23.2077C7.00045 23.2841 7.00047 23.3605 7.00035 23.4369C7.00019 23.5108 7.00008 23.5848 7.00005 23.6587C7.00002 23.7194 7.00005 23.78 7.00015 23.8407L7.00049 23.9883C6.99899 24.337 7.00251 24.5776 7.12661 24.8382C7.22717 24.9708 7.31165 24.9977 7.43035 25L7.49831 24.9981C7.57453 24.9986 7.65073 24.9989 7.72695 24.9977C7.7952 24.9965 7.86343 24.9962 7.93169 24.9962C8.0461 24.9961 8.1605 24.9955 8.27491 24.994C8.36129 24.9929 8.44767 24.992 8.53405 24.9914C8.5807 24.9911 8.62737 24.991 8.67403 24.9909C8.81702 24.9907 8.96002 24.9902 9.10303 24.9892L9.22586 24.9885C9.29132 24.9883 9.35678 24.9878 9.42224 24.987L9.49462 24.9859L9.56307 24.9859L9.62579 24.9846C9.74262 24.9833 9.81467 24.9032 9.9032 24.7451C9.99487 24.5379 9.99915 24.2651 10 24.0004L9.9995 23.8657C9.99972 23.7125 9.99983 23.5593 9.99958 23.4061C9.99933 23.265 9.99928 23.1238 9.99935 22.9826C9.99952 22.7058 9.99942 22.429 9.99911 22.1522C9.99873 21.8271 9.99862 21.5021 9.9986 21.177C9.99858 20.598 9.99832 20.019 9.99784 19.44C9.99737 18.8762 9.99702 18.3123 9.99694 17.7484L9.99693 17.643L9.99689 17.4325L9.99689 17.3276L9.99687 17.2229C9.9968 16.6831 9.99659 16.1434 9.99635 15.6036L9.99611 15.0189C9.99603 14.7067 9.9959 14.3946 9.99563 14.0825L9.9953 13.6542L9.99508 13.2572L9.9949 13.1127L9.99496 12.9769L9.99472 12.8531C9.99453 12.5956 9.97023 12.4398 9.89064 12.2345C9.78563 12.0458 9.69049 12.0023 9.55314 12L9.48566 12.0021C9.40997 12.0018 9.3343 12.0018 9.25861 12.0031C9.2309 12.0036 9.20319 12.004 9.17548 12.0043C9.13544 12.0047 9.09541 12.005 9.05537 12.0051C8.94183 12.0053 8.82829 12.0061 8.71474 12.0077C8.55343 12.0101 8.39213 12.0115 8.23082 12.0122C8.1181 12.0126 8.00537 12.0134 7.89265 12.0143L7.81139 12.015C7.73282 12.0156 7.65426 12.0163 7.5757 12.0173L7.50393 12.0183L7.43582 12.0189Z" fill="#3CBE92"/>
</svg>
