<svg width="30" height="42" viewBox="0 0 30 42" fill="none" xmlns="http://www.w3.org/2000/svg">
<path fill-rule="evenodd" clip-rule="evenodd" d="M7.39536 0.00894662C7.19696 0.00967799 6.99856 0.0103056 6.80017 0.01082C5.07302 0.0067603 3.25874 0.0276221 1.92943 1.31215L1.75878 1.48844L1.55716 1.68442C0.340036 2.93428 0.00457224 4.4337 0.0115352 6.1358C0.0121314 6.26896 0.0122134 6.40213 0.011852 6.53529C0.0102542 6.9054 0.00962634 7.27548 0.0102666 7.6456C0.0109792 8.04911 0.0105119 8.45262 0.00962608 8.85614C0.00784452 9.64782 0.00729881 10.4395 0.00774377 11.2312C0.00812757 11.8803 0.00829302 12.5294 0.00786678 13.1785L0.00765992 13.4583L0.00724896 14.0215C0.00595012 15.78 0.00612101 17.5385 0.00715 19.297C0.00809553 20.9099 0.00745695 22.5229 0.00530273 24.1359C0.00307978 25.8002 0.00180631 27.4644 0.00233529 29.1287C0.00267203 30.0611 0.00296517 30.9935 0.00144258 31.9258C8.4552e-05 32.7256 -0.000590775 33.5254 0.000661199 34.3252L0.000948638 34.4667C0.00169295 34.8284 0.00243725 35.1901 0.00154772 35.5518C0.000253394 35.9299 -0.000649349 36.3078 0.000670821 36.6858C0.00132143 36.8245 0.00182995 36.9632 0.00218135 37.1019C-0.00482217 38.0895 0.0274769 39.0521 0.552995 39.9212C1.18077 40.8013 1.96634 41.2683 3.01985 41.4823C3.97502 41.5886 4.85755 41.3341 5.61517 40.7448C5.77922 40.5993 5.94385 40.458 6.11481 40.3205C6.58648 39.9429 7.0377 39.553 7.47862 39.1403C7.75334 38.883 8.02822 38.6298 8.31746 38.3887C8.77381 38.0226 9.21361 37.6485 9.64045 37.2487C9.91516 36.9914 10.1901 36.7382 10.4793 36.4971C10.9356 36.131 11.3754 35.7569 11.8023 35.3571C12.1513 35.0302 12.5039 34.716 12.8776 34.4169C13.1033 34.2372 13.3249 34.0563 13.5355 33.8588L13.7016 33.6988C13.8137 33.5912 13.9256 33.4835 14.0373 33.3754L14.0579 33.3548C14.2722 33.1396 14.4473 32.9638 14.6936 32.8388C14.8447 32.7621 15.021 32.6969 15.1833 32.7457C15.2587 32.7683 15.3233 32.8273 15.4673 32.9588C15.6511 33.1343 15.8328 33.3034 16.0299 33.4641C16.4998 33.8378 16.949 34.2265 17.387 34.6365C17.7379 34.9652 18.0926 35.2812 18.4679 35.5823C18.7895 35.8403 19.0975 36.1069 19.399 36.3877C19.7999 36.7633 20.2009 37.1298 20.6298 37.4739C20.9513 37.7319 21.2593 37.9986 21.5608 38.2794C21.9675 38.6602 22.3748 39.0319 22.8085 39.3824C23.0519 39.5777 23.2907 39.7741 23.5235 39.982C23.6747 40.1203 23.8264 40.258 23.9788 40.3951L24.1878 40.5815C24.8455 41.1759 25.6393 41.4838 26.5298 41.5273C27.4678 41.4801 28.2938 41.149 28.9618 40.4915C29.8403 39.599 30.0072 38.5113 29.9992 37.2971C29.9982 37.1639 29.998 37.0306 29.9983 36.8974C30.0001 36.5274 30.0005 36.1575 29.9992 35.7875C29.9979 35.384 29.9981 34.9805 29.9988 34.577C30.0004 33.7854 30.0003 32.9938 29.999 32.2022C29.9974 31.2721 29.9972 30.3419 29.9975 29.4118C29.9981 27.7535 29.9973 26.0953 29.9951 24.437C29.9929 22.8241 29.9918 21.2112 29.9927 19.5983C29.9937 17.8338 29.9942 16.0692 29.9929 14.3046L29.9925 13.7393L29.9923 13.4583C29.9918 12.808 29.9917 12.1577 29.9921 11.5075C29.9925 10.7077 29.9925 9.90786 29.9909 9.10805L29.9906 8.9606C29.9898 8.60075 29.9889 8.2409 29.9893 7.88105C29.99 7.50308 29.9903 7.12512 29.989 6.74715C29.9884 6.60831 29.988 6.46947 29.9876 6.33063C29.9946 4.75391 29.8095 3.10482 28.6655 1.90645L28.5114 1.75866L28.3123 1.56022C26.9039 0.218469 25.3149 -0.00788091 23.4474 0.000628414C23.2553 0.00157704 23.0631 0.00184882 22.871 0.00151889C22.3446 -0.000167845 21.8183 -0.000540155 21.2919 0.000860868C20.7326 0.00241754 20.1732 0.00262719 19.6139 0.0023247C18.6151 0.00176315 17.6163 0.002584 16.6175 0.00478804C15.6482 0.00694366 14.6788 0.00810825 13.7094 0.00721417C12.5895 0.00612303 11.4696 0.00580127 10.3497 0.00713641L10.3372 0.00715156C9.89257 0.00768948 9.44797 0.00822739 9.00336 0.00795059C8.46735 0.00743556 7.93136 0.00733735 7.39536 0.00894662ZM24 10.5C24 9.67157 23.3284 9 22.5 9H7.5C6.67157 9 6 9.67157 6 10.5C6 11.3284 6.67157 12 7.5 12H22.5C23.3284 12 24 11.3284 24 10.5Z" fill="#3CBE92"/>
</svg>
