<svg width="30" height="30" viewBox="0 0 30 30" fill="none" xmlns="http://www.w3.org/2000/svg">
<path fill-rule="evenodd" clip-rule="evenodd" d="M15 30C23.2843 30 30 23.2843 30 15C30 6.71573 23.2843 0 15 0C6.71573 0 0 6.71573 0 15C0 23.2843 6.71573 30 15 30ZM23.0004 13.2813L22.8903 13.2118C22.0913 12.7743 20.9162 13.0335 20.4292 13.8148L20.367 13.925C20.0803 14.3796 20.0865 14.8679 20.1329 15.388C20.2533 15.8391 20.4991 16.246 20.9005 16.4963L21.0107 16.5585C21.4653 16.8452 21.9536 16.8389 22.4737 16.7925C22.9248 16.6721 23.3318 16.4264 23.582 16.0249L23.6442 15.9147C23.9309 15.4601 23.9246 14.9718 23.8783 14.4517C23.7578 14.0007 23.5121 13.5937 23.1106 13.3434L23.0004 13.2813ZM16.3359 13.2118L16.4461 13.2813L16.5562 13.3434C16.9577 13.5937 17.2034 14.0007 17.3239 14.4517C17.3702 14.9718 17.3765 15.4601 17.0898 15.9147L17.0276 16.0249C16.7774 16.4264 16.3704 16.6721 15.9194 16.7925C15.3993 16.8389 14.9109 16.8452 14.4563 16.5585L14.3461 16.4963C13.9447 16.246 13.699 15.8391 13.5785 15.388C13.5322 14.8679 13.5259 14.3796 13.8126 13.925L13.8748 13.8148C14.3618 13.0335 15.5369 12.7743 16.3359 13.2118ZM9.89162 13.2813L9.78143 13.2118C8.98244 12.7743 7.80737 13.0335 7.32034 13.8148L7.25816 13.925C6.97144 14.3796 6.97771 14.8679 7.02407 15.388C7.14452 15.8391 7.39027 16.246 7.7917 16.4963L7.90189 16.5585C8.35648 16.8452 8.84482 16.8389 9.36492 16.7925C9.81596 16.6721 10.2229 16.4264 10.4732 16.0249L10.5354 15.9147C10.8221 15.4601 10.8158 14.9718 10.7694 14.4517C10.649 14.0007 10.4032 13.5937 10.0018 13.3434L9.89162 13.2813Z" fill="#3CBE92"/>
</svg>
