<svg width="30" height="37" viewBox="0 0 30 37" fill="none" xmlns="http://www.w3.org/2000/svg">
<path d="M20.0419 1.47728C21.69 2.65807 22.9876 4.31962 23.2109 6.21861C23.2488 6.97084 23.2328 7.72391 23.2109 8.47639C23.2962 8.47402 23.2962 8.47402 23.3833 8.47161C25.4976 8.4207 25.4976 8.4207 26.2943 8.77742C26.3671 8.80847 26.44 8.83951 26.5151 8.8715C27.5674 9.37073 28.3399 10.1828 28.6988 11.1812C28.9328 11.9306 28.9491 12.6862 28.9858 13.4591C28.9955 13.6389 29.0052 13.8187 29.0151 13.9986C29.0349 14.3612 29.0542 14.7239 29.0729 15.0867C29.1194 15.9905 29.17 16.8941 29.2208 17.7978C29.3123 19.4275 29.4022 21.0573 29.4913 22.6871C29.4962 22.7754 29.501 22.8636 29.506 22.9546C29.5132 23.0872 29.5132 23.0872 29.5206 23.2225C29.5603 23.948 29.6003 24.6735 29.6404 25.399C29.6795 26.1073 29.7184 26.8157 29.7572 27.5241C29.7801 27.9436 29.8031 28.3631 29.8264 28.7825C29.8481 29.174 29.8695 29.5655 29.8907 29.957C29.8985 30.0997 29.9064 30.2424 29.9143 30.3851C30.0937 33.6013 30.0937 33.6013 28.7513 34.9864C27.8775 35.8 26.8223 36.175 25.5593 36.2144C25.0682 36.2218 24.5775 36.2205 24.0864 36.2181C23.8648 36.2183 23.6432 36.2188 23.4217 36.2193C22.8852 36.2204 22.3487 36.2195 21.8122 36.2179C21.1864 36.2161 20.5605 36.2162 19.9347 36.2164C18.8178 36.2167 17.7008 36.2151 16.5839 36.2126C15.5018 36.2101 14.4197 36.209 13.3377 36.2095C12.1566 36.21 10.9756 36.2098 9.79458 36.2083C9.73207 36.2082 9.66956 36.2081 9.60515 36.2081C9.47963 36.2079 9.3541 36.2078 9.22858 36.2076C8.79301 36.2071 8.35745 36.207 7.92188 36.2071C7.33536 36.2073 6.74885 36.2061 6.16233 36.2042C5.94737 36.2036 5.73241 36.2035 5.51745 36.2037C5.22357 36.204 4.92973 36.2029 4.63586 36.2014C4.55125 36.2018 4.46664 36.2022 4.37947 36.2027C3.15174 36.1922 2.10859 35.7412 1.22405 35.0035C0.159149 33.9911 -0.0454662 32.7955 0.0076465 31.471C0.0323199 30.9254 0.0629278 30.3801 0.0932073 29.8347C0.103217 29.6509 0.113203 29.4671 0.123168 29.2833C0.147382 28.8378 0.171841 28.3924 0.196419 27.9469C0.225095 27.427 0.25349 26.907 0.281876 26.3871C0.332574 25.4586 0.38353 24.5302 0.43463 23.6017C0.484091 22.7031 0.533362 21.8044 0.582423 20.9057C0.585445 20.8504 0.588466 20.795 0.591579 20.738C0.594596 20.6827 0.597613 20.6275 0.600721 20.5705C0.656749 19.5443 0.712962 18.518 0.769258 17.4918C0.789082 17.1303 0.808852 16.7688 0.828603 16.4073C0.855249 15.9198 0.882051 15.4322 0.908955 14.9446C0.918773 14.7663 0.928544 14.588 0.938265 14.4097C1.14569 10.6068 1.14569 10.6068 2.61116 9.38479C3.58574 8.68001 4.55086 8.43643 5.79219 8.46228C5.88636 8.46329 5.98054 8.46431 6.07757 8.46536C6.30724 8.46799 6.53682 8.47169 6.76644 8.47639C6.76375 8.38384 6.76375 8.38384 6.761 8.28943C6.70227 5.96092 7.07674 4.027 8.96452 2.2578C11.9199 -0.378155 16.6611 -0.794214 20.0419 1.47728ZM11.3914 3.6598C11.3301 3.7053 11.2687 3.7508 11.2054 3.79768C10.0645 4.72052 9.60275 5.94968 9.50718 7.27224C9.50718 7.66961 9.50718 8.06698 9.50718 8.47639C13.125 8.47639 16.7428 8.47639 20.4702 8.47639C20.4702 6.69026 20.3663 5.42398 19.0142 4.0361C18.9668 3.98604 18.9194 3.93598 18.8706 3.8844C17.8957 2.9406 16.4931 2.53452 15.086 2.46043C13.7013 2.42427 12.4368 2.88198 11.3914 3.6598ZM7.51051 12.8602C7.32569 13.1249 7.26438 13.3628 7.28033 13.6693C7.42153 14.0999 7.62971 14.3231 8.05116 14.5724C8.41842 14.7185 8.66488 14.7411 9.04683 14.6476C9.43878 14.516 9.61873 14.3501 9.84978 14.0456C9.97404 13.718 10.0085 13.3998 9.87688 13.0719C9.68438 12.7462 9.46416 12.5466 9.07894 12.3899C8.39261 12.2946 8.00679 12.4359 7.51051 12.8602ZM20.2293 12.8461C19.9983 13.1772 19.9898 13.5184 20.0419 13.895C20.2456 14.2598 20.4934 14.4555 20.8984 14.6476C21.2849 14.7584 21.5635 14.719 21.9292 14.5827C22.2817 14.4035 22.5356 14.1606 22.6709 13.8207C22.7493 13.4435 22.6622 13.1751 22.4401 12.8414C22.1072 12.5403 21.8264 12.3784 21.3481 12.3663C20.8441 12.3708 20.5626 12.5128 20.2293 12.8461Z" fill="#3CBE92"/>
</svg>
