<svg width="34" height="34" viewBox="0 0 34 34" fill="none" xmlns="http://www.w3.org/2000/svg">
<path d="M31.8931 1.06487C32.0835 1.24515 32.2686 1.42954 32.4523 1.61664C32.5147 1.67803 32.577 1.73942 32.6412 1.80267C33.5096 2.67701 33.9908 3.60071 34 4.83673C33.984 5.96044 33.6046 6.85186 32.8365 7.66304C32.7964 7.70576 32.7562 7.74848 32.7148 7.79249C32.1445 8.39503 31.557 8.98088 30.9712 9.56814C30.7947 9.74507 30.6185 9.92219 30.4422 10.0993C30.0189 10.5244 29.5952 10.9493 29.1715 11.3741C29.0116 11.5345 28.8517 11.6949 28.6918 11.8552C27.9858 12.5634 27.2796 13.2715 26.5732 13.9793C26.4013 14.1516 26.2293 14.3239 26.0573 14.4962C26.0146 14.5391 25.9719 14.5819 25.9278 14.626C25.2335 15.3218 24.5397 16.0182 23.8461 16.7148C23.1323 17.4317 22.4179 18.1481 21.7031 18.8641C21.3024 19.2654 20.902 19.6669 20.5021 20.069C20.1622 20.4108 19.8219 20.7521 19.4809 21.0929C19.3071 21.2666 19.1336 21.4405 18.9606 21.615C18.773 21.8042 18.5843 21.9925 18.3955 22.1806C18.3412 22.2357 18.287 22.2908 18.231 22.3475C17.7577 22.8161 17.3008 23.0297 16.6661 23.2021C16.5817 23.2257 16.5817 23.2257 16.4956 23.2498C16.3108 23.3014 16.1259 23.3522 15.9409 23.403C15.8107 23.4391 15.6805 23.4753 15.5503 23.5115C15.2774 23.5873 15.0043 23.6627 14.7313 23.7379C14.3853 23.8331 14.0396 23.929 13.6939 24.0251C13.4246 24.1 13.1553 24.1745 12.886 24.249C12.7587 24.2842 12.6315 24.3194 12.5043 24.3548C12.1505 24.4529 11.7962 24.5491 11.4412 24.643C11.3187 24.6757 11.1963 24.709 11.0741 24.7428C10.8859 24.7946 10.6972 24.8444 10.5083 24.8938C10.4233 24.9179 10.4233 24.9179 10.3365 24.9425C9.93245 25.0449 9.70646 25.0137 9.33283 24.8237C9.13293 24.5877 9.03695 24.3956 9 24.0906C9.02944 23.9064 9.02944 23.9064 9.08366 23.702C9.10403 23.6239 9.12439 23.5459 9.14538 23.4655C9.16866 23.3794 9.19197 23.2933 9.2153 23.2072C9.23949 23.1159 9.26363 23.0247 9.28773 22.9334C9.36817 22.6301 9.4503 22.3272 9.53253 22.0244C9.5617 21.9166 9.59086 21.8089 9.62002 21.7011C9.80558 21.0161 9.99396 20.332 10.1838 19.6482C10.2663 19.3507 10.3482 19.053 10.4299 18.7553C10.4939 18.5224 10.5585 18.2896 10.6232 18.0569C10.6536 17.9471 10.6839 17.8372 10.7139 17.7273C10.7557 17.5747 10.7982 17.4224 10.8408 17.27C10.8586 17.2039 10.8586 17.2039 10.8769 17.1365C11.0662 16.4684 11.3788 16.0713 11.8636 15.5913C11.9556 15.4985 11.9556 15.4985 12.0495 15.404C12.2191 15.2332 12.3895 15.0633 12.56 14.8935C12.7441 14.71 12.9274 14.5256 13.1108 14.3414C13.47 13.9808 13.8299 13.6209 14.19 13.2613C14.6099 12.842 15.0291 12.4221 15.4483 12.0021C16.1968 11.2523 16.946 10.5031 17.6955 9.75431C18.4216 9.02879 19.1473 8.30271 19.8723 7.57605C20.6626 6.784 21.4532 5.99228 22.2443 5.2011C22.3289 5.11658 22.4134 5.03207 22.4979 4.94755C22.5395 4.90597 22.581 4.86439 22.6239 4.82155C22.9158 4.52955 23.2075 4.23733 23.4992 3.94503C23.8552 3.58824 24.2116 3.23181 24.5684 2.87584C24.7502 2.69445 24.9319 2.51292 25.1131 2.33094C25.3102 2.13303 25.5081 1.93592 25.706 1.73886C25.7623 1.68211 25.8186 1.62535 25.8766 1.56687C27.6189 -0.159497 29.9285 -0.64743 31.8931 1.06487ZM27.1062 2.89551C27.054 2.94766 27.0018 2.99981 26.9481 3.05355C26.9124 3.08937 26.8767 3.1252 26.8399 3.16212C26.9465 3.42707 27.1309 3.60469 27.3303 3.80162C27.3849 3.85628 27.3849 3.85628 27.4406 3.91205C27.5606 4.0321 27.681 4.15166 27.8015 4.27123C27.8849 4.35451 27.9683 4.43781 28.0516 4.52114C28.2709 4.74014 28.4905 4.95874 28.7102 5.17726C28.9345 5.4004 29.1583 5.62393 29.3822 5.84743C29.8214 6.28572 30.2609 6.72358 30.7008 7.16118C31.361 6.85035 31.9 6.14142 32.1569 5.46575C32.308 4.94326 32.272 4.45626 32.0706 3.95204C31.88 3.60717 31.6104 3.3377 31.3332 3.06211C31.2342 2.96307 31.1377 2.86211 31.0414 2.76039C30.4832 2.17616 29.9898 1.77867 29.1573 1.73328C28.2575 1.75909 27.7035 2.29158 27.1062 2.89551ZM25.4213 4.5742C25.384 4.61166 25.3466 4.64912 25.3081 4.68771C25.265 4.73066 25.222 4.77361 25.1777 4.81787C25.1299 4.86584 25.0822 4.91382 25.033 4.96325C24.9827 5.0136 24.9324 5.06395 24.8805 5.11583C24.7103 5.28608 24.5404 5.45656 24.3705 5.62704C24.2492 5.74853 24.1279 5.87001 24.0065 5.99148C23.7445 6.25377 23.4827 6.51619 23.2209 6.77869C22.8424 7.15822 22.4637 7.53758 22.0849 7.91688C21.4705 8.53222 20.8562 9.1477 20.2421 9.76328C19.6453 10.3614 19.0485 10.9595 18.4515 11.5575C18.4148 11.5943 18.378 11.6311 18.3401 11.6691C18.1557 11.8538 17.9712 12.0386 17.7868 12.2234C16.2555 13.7572 14.7246 15.2913 13.1937 16.8256C13.2564 16.8995 13.3192 16.9732 13.382 17.047C13.417 17.0881 13.452 17.1292 13.488 17.1715C13.639 17.3448 13.7997 17.507 13.9623 17.6694C13.9968 17.7039 14.0313 17.7384 14.0668 17.774C14.179 17.8863 14.2914 17.9984 14.4039 18.1105C14.4824 18.189 14.5609 18.2675 14.6395 18.3461C14.8448 18.5514 15.0504 18.7566 15.256 18.9617C15.4663 19.1716 15.6764 19.3817 15.8865 19.5918C16.2979 20.0029 16.7095 20.4139 17.1212 20.8247C17.4623 20.5387 17.7817 20.2393 18.0955 19.9237C18.1446 19.8747 18.1936 19.8256 18.2442 19.7751C18.4075 19.6116 18.5707 19.4479 18.7338 19.2842C18.8513 19.1666 18.9687 19.049 19.0862 18.9314C19.3386 18.6787 19.5909 18.4259 19.8431 18.173C20.2077 17.8074 20.5725 17.4419 20.9374 17.0765C21.5294 16.4836 22.1213 15.8905 22.7131 15.2973C23.2878 14.7213 23.8625 14.1454 24.4373 13.5695C24.4728 13.534 24.5083 13.4985 24.5448 13.4619C24.7228 13.2836 24.9007 13.1053 25.0787 12.9271C26.5535 11.4497 28.0281 9.97201 29.5026 8.49421C29.4399 8.42035 29.3771 8.34657 29.3142 8.27282C29.2793 8.23172 29.2443 8.19063 29.2083 8.14828C29.0575 7.97517 28.8972 7.81289 28.735 7.65041C28.7007 7.61589 28.6663 7.58136 28.6309 7.5458C28.519 7.43348 28.4069 7.32141 28.2948 7.20935C28.2164 7.13083 28.138 7.05229 28.0596 6.97375C27.8963 6.81013 27.7329 6.64662 27.5694 6.4832C27.3593 6.27327 27.1496 6.06303 26.9399 5.85271C26.7786 5.69096 26.6171 5.52936 26.4556 5.36781C26.3781 5.29028 26.3007 5.21271 26.2233 5.13508C26.1158 5.02723 26.008 4.91959 25.9002 4.81201C25.8082 4.71999 25.8082 4.71999 25.7144 4.62611C25.5647 4.46301 25.5647 4.46301 25.4213 4.5742ZM12.3283 18.5585C12.1806 19.095 12.033 19.6315 11.8857 20.168C11.8173 20.4171 11.7488 20.6662 11.6802 20.9153C11.614 21.1555 11.548 21.3958 11.4821 21.6361C11.4569 21.728 11.4316 21.8197 11.4063 21.9115C11.3709 22.0398 11.3357 22.1681 11.3006 22.2964C11.2805 22.3695 11.2604 22.4427 11.2397 22.518C11.1913 22.6828 11.1913 22.6828 11.1967 22.8242C12.1178 22.6195 13.0232 22.3674 13.9301 22.1077C14.0725 22.0672 14.2148 22.0266 14.3572 21.9861C14.7017 21.8881 15.0461 21.7897 15.3904 21.6911C15.2909 21.459 15.1584 21.309 14.9805 21.1312C14.9234 21.0738 14.8663 21.0165 14.8075 20.9574C14.7458 20.896 14.6841 20.8347 14.6205 20.7716C14.5566 20.7077 14.4928 20.6438 14.429 20.5799C14.2955 20.4464 14.1618 20.3131 14.028 20.1799C13.856 20.0089 13.6845 19.8374 13.5131 19.6658C13.3815 19.534 13.2497 19.4024 13.1179 19.2709C13.0237 19.1769 12.9296 19.0828 12.8354 18.9887C12.7786 18.9321 12.7217 18.8756 12.6631 18.8174C12.6128 18.7673 12.5625 18.7172 12.5107 18.6655C12.413 18.551 12.413 18.551 12.3283 18.5585Z" fill="black"/>
<path d="M4.55087 3.00852C4.62971 3.00806 4.70855 3.0076 4.78978 3.00712C5.00314 3.00611 5.21647 3.00599 5.42982 3.00638C5.60877 3.00659 5.78771 3.00618 5.96666 3.00577C6.38877 3.00484 6.81088 3.00493 7.233 3.0057C7.66727 3.00647 8.10152 3.00552 8.5358 3.00373C8.91035 3.00224 9.28489 3.0018 9.65945 3.00219C9.88244 3.00242 10.1054 3.00226 10.3284 3.0011C10.5767 3.0001 10.8249 3.00081 11.0731 3.00197C11.1463 3.00132 11.2195 3.00067 11.2949 3C11.7169 3.0041 11.9762 3.0471 12.3194 3.30399C12.5329 3.55018 12.5471 3.78204 12.5352 4.09913C12.5087 4.3032 12.45 4.42241 12.3194 4.57873C12.0177 4.79999 11.7635 4.85547 11.3976 4.85545C11.3309 4.85562 11.2643 4.85579 11.1956 4.85597C11.1228 4.85583 11.0501 4.85569 10.9751 4.85554C10.8982 4.85567 10.8212 4.8558 10.742 4.85592C10.5747 4.85619 10.4074 4.85633 10.2402 4.85636C9.97502 4.85644 9.70987 4.8573 9.44471 4.85834C9.39988 4.85851 9.35504 4.85869 9.30884 4.85886C9.21716 4.85922 9.12547 4.85957 9.03378 4.85993C8.41676 4.86228 7.79975 4.86407 7.18273 4.8639C6.76619 4.86379 6.34968 4.86488 5.93314 4.8673C5.71309 4.86853 5.4931 4.86899 5.27305 4.86834C5.02683 4.86769 4.78069 4.86912 4.53448 4.87101C4.46279 4.87032 4.39109 4.86964 4.31722 4.86893C3.64118 4.87815 3.12121 5.08772 2.59662 5.51801C2.55326 5.51801 2.5099 5.51801 2.46523 5.51801C2.44686 5.55736 2.42848 5.59671 2.40955 5.63725C2.3392 5.77582 2.26065 5.89733 2.17371 6.02539C1.79892 6.64216 1.77958 7.30462 1.78282 8.01253C1.78254 8.10691 1.78218 8.2013 1.78175 8.29568C1.7808 8.55318 1.78107 8.81067 1.78156 9.06817C1.78187 9.3466 1.78105 9.62503 1.78038 9.90347C1.77925 10.4482 1.77919 10.993 1.77954 11.5377C1.7798 11.9807 1.77971 12.4237 1.77935 12.8666C1.77928 12.9613 1.77928 12.9613 1.77921 13.058C1.77911 13.1863 1.779 13.3146 1.7789 13.4428C1.778 14.6449 1.77836 15.8468 1.77911 17.0489C1.77976 18.1474 1.77891 19.2459 1.77734 20.3444C1.77574 21.4737 1.77511 22.603 1.77555 23.7322C1.77578 24.3657 1.77563 24.9992 1.77448 25.6327C1.77351 26.1719 1.77347 26.7112 1.77461 27.2504C1.77517 27.5253 1.77532 27.8002 1.77431 28.075C1.7734 28.3272 1.77372 28.5792 1.77498 28.8314C1.77534 28.9647 1.77443 29.098 1.77345 29.2313C1.779 29.9283 1.88348 30.6621 2.33384 31.214C2.38008 31.2715 2.38008 31.2715 2.42725 31.3301C2.77956 31.7319 3.21964 31.9181 3.71343 32.0862C3.84841 32.0926 3.98359 32.0949 4.11872 32.095C4.2041 32.0953 4.28949 32.0955 4.37746 32.0958C4.47278 32.0957 4.5681 32.0957 4.66342 32.0956C4.76424 32.0958 4.86507 32.096 4.96589 32.0962C5.24369 32.0968 5.52149 32.0969 5.79929 32.0969C6.09862 32.0971 6.39795 32.0976 6.69728 32.098C7.35219 32.0989 8.00711 32.0993 8.66203 32.0996C9.07088 32.0998 9.47974 32.1001 9.88859 32.1004C11.0203 32.1012 12.1521 32.1019 13.2838 32.1021C13.3925 32.1022 13.3925 32.1022 13.5034 32.1022C13.6123 32.1022 13.6123 32.1022 13.7235 32.1022C13.8707 32.1022 14.0179 32.1023 14.1651 32.1023C14.2746 32.1023 14.2746 32.1023 14.3864 32.1024C15.5693 32.1026 16.7522 32.1038 17.9351 32.1054C19.1492 32.1069 20.3634 32.1078 21.5775 32.1079C22.2593 32.1079 22.9411 32.1083 23.623 32.1095C24.2036 32.1106 24.7843 32.1109 25.3649 32.1103C25.6612 32.1101 25.9574 32.1101 26.2537 32.1111C26.525 32.1119 26.7964 32.1119 27.0677 32.111C27.1657 32.1109 27.2638 32.1111 27.3618 32.1117C28.2611 32.1167 28.8493 31.9671 29.5314 31.3482C30.0458 30.7462 30.1522 30.0983 30.1479 29.3209C30.1483 29.2409 30.1486 29.161 30.149 29.0786C30.1498 28.8612 30.1498 28.6437 30.1494 28.4262C30.1493 28.1978 30.1504 27.9694 30.1515 27.741C30.1542 27.112 30.1549 26.483 30.1557 25.854C30.1564 25.2766 30.1575 24.6992 30.1601 24.1217C30.1612 23.8947 30.1617 23.6677 30.1614 23.4407C30.1611 23.1878 30.162 22.9349 30.1631 22.6819C30.1625 22.5698 30.1625 22.5698 30.1618 22.4554C30.1648 22.0832 30.1735 21.8039 30.3854 21.4858C30.6094 21.2794 30.7568 21.159 31.0588 21.1293C31.4214 21.1602 31.6025 21.3074 31.8402 21.5806C32.0361 21.8938 31.9981 22.2503 31.9951 22.6095C31.9956 22.7281 31.9956 22.7281 31.9961 22.849C31.9968 23.0652 31.9963 23.2813 31.9952 23.4975C31.9943 23.7247 31.9948 23.952 31.995 24.1793C31.9952 24.5614 31.9943 24.9436 31.9928 25.3257C31.991 25.7653 31.9909 26.2048 31.9917 26.6444C31.9924 27.0692 31.992 27.4941 31.991 27.9189C31.9907 28.0987 31.9907 28.2784 31.991 28.4582C31.9921 29.9218 31.9222 31.1387 31.0424 32.3546C31.0136 32.3951 30.9848 32.4357 30.9551 32.4775C30.2861 33.3472 29.2547 33.7778 28.2175 33.9648C27.8678 33.9985 27.5204 34.0009 27.1695 33.9984C27.0685 33.9986 26.9674 33.999 26.8664 33.9995C26.5919 34.0005 26.3174 33.9998 26.0429 33.9988C25.7456 33.9981 25.4484 33.9989 25.1511 33.9995C24.5701 34.0004 23.989 33.9999 23.408 33.9989C22.7305 33.9978 22.053 33.998 21.3754 33.9983C20.1661 33.9987 18.9568 33.9977 17.7475 33.9961C16.5757 33.9944 15.4038 33.994 14.232 33.9947C12.9539 33.9954 11.6758 33.9956 10.3976 33.9946C10.2612 33.9945 10.1248 33.9944 9.98838 33.9943C9.88771 33.9942 9.88771 33.9942 9.78501 33.9941C9.31338 33.9938 8.84176 33.9939 8.37013 33.9942C7.79503 33.9946 7.21993 33.9942 6.64483 33.9928C6.35173 33.9922 6.05864 33.9918 5.76554 33.9924C5.49672 33.9928 5.2279 33.9924 4.95908 33.9912C4.86236 33.9909 4.76565 33.991 4.66894 33.9914C3.85388 33.9948 3.04781 33.9159 2.31742 33.5203C2.27356 33.4971 2.2297 33.474 2.18451 33.4502C1.78605 33.231 1.46395 32.957 1.15134 32.6229C1.10984 32.5818 1.06835 32.5408 1.0256 32.4984C0.229262 31.6583 0.00389102 30.55 0.00906324 29.4223C0.00878863 29.3241 0.00842858 29.2259 0.00799115 29.1276C0.00704615 28.8596 0.00731915 28.5915 0.0078052 28.3234C0.00811704 28.0336 0.00729313 27.7438 0.00662135 27.454C0.00549374 26.8868 0.0054367 26.3197 0.00578132 25.7526C0.00604723 25.2915 0.00595165 24.8303 0.00560088 24.3691C0.00555172 24.3034 0.00550218 24.2377 0.00545152 24.1699C0.00535091 24.0364 0.00525029 23.9028 0.00514879 23.7693C0.00424768 22.5179 0.00460371 21.2665 0.0053578 20.0151C0.00601012 18.8715 0.00516053 17.7279 0.00358852 16.5843C0.00198476 15.4087 0.00135507 14.2331 0.00179169 13.0575C0.00202081 12.398 0.00187646 11.7386 0.00072411 11.0791C-0.000244811 10.5177 -0.000282212 9.95626 0.000860439 9.39482C0.00141823 9.10867 0.00156369 8.82254 0.000554701 8.53639C-0.000359468 8.27387 -3.63896e-05 8.01138 0.00122732 7.74886C0.00147299 7.65446 0.00128622 7.56006 0.0005958 7.46566C-0.00795758 6.20547 0.370931 5.19167 1.23115 4.29202C2.16178 3.3616 3.26151 3.00314 4.55087 3.00852Z" fill="black"/>
</svg>
