<svg width="39" height="46" viewBox="0 0 39 46" fill="none" xmlns="http://www.w3.org/2000/svg">
<path d="M14.1885 27.5774C15.2603 26.2213 16.7421 25.2788 18.4962 25.0341C20.4523 24.8768 22.1171 25.2518 23.6907 26.42C24.5946 27.1733 25.1805 28.0667 25.609 29.1426C25.6411 29.219 25.6733 29.2954 25.7064 29.3742C26.2355 30.8786 26.0111 32.7291 25.3397 34.1438C24.5918 35.5218 23.3451 36.7597 21.8022 37.2619C21.8018 37.3467 21.8014 37.4316 21.801 37.519C21.7972 38.322 21.7915 39.1249 21.7837 39.9279C21.7798 40.3406 21.7766 40.7534 21.775 41.1661C21.7735 41.5651 21.77 41.964 21.7653 42.363C21.7638 42.5145 21.763 42.6661 21.7629 42.8176C21.7608 44.6911 21.7608 44.6911 21.126 45.3741C20.5418 45.9055 19.9827 46.0137 19.1983 45.9987C18.5997 45.938 18.2382 45.713 17.8138 45.3078C17.2224 44.4499 17.2469 43.6102 17.2428 42.6116C17.2411 42.457 17.2393 42.3024 17.2374 42.1478C17.2326 41.7432 17.2296 41.3386 17.227 40.9339C17.224 40.5201 17.2194 40.1064 17.2148 39.6926C17.2062 38.8823 17.1995 38.0721 17.1939 37.2619C17.0719 37.2039 17.0719 37.2039 16.9474 37.1447C16.8401 37.0931 16.7328 37.0415 16.6222 36.9883C16.5161 36.9375 16.4099 36.8867 16.3006 36.8344C14.8138 36.0668 13.7368 34.6854 13.236 33.134C12.7069 31.225 13.0859 29.2141 14.1885 27.5774Z" fill="black"/>
<path d="M28.153 10.8681C28.8797 9.88539 29.735 9.2061 30.8256 8.72536C30.8866 8.72536 30.9477 8.72536 31.0106 8.72536C31.01 8.63617 31.0094 8.54698 31.0087 8.45509C31.0032 7.61355 30.9989 6.77201 30.9962 5.93045C30.9948 5.49782 30.9928 5.0652 30.9897 4.63258C30.9866 4.21488 30.985 3.7972 30.9843 3.37949C30.9838 3.22033 30.9828 3.06116 30.9813 2.90201C30.9792 2.67864 30.979 2.45534 30.9791 2.23196C30.9782 2.04144 30.9782 2.04144 30.9772 1.84707C31.0374 1.22542 31.305 0.825768 31.7506 0.428753C32.304 0.0203743 32.8433 -0.0609951 33.508 0.0383244C34.0795 0.213753 34.4804 0.590582 34.803 1.112C34.9913 1.51888 35.013 1.85904 35.0174 2.30953C35.0184 2.3791 35.0193 2.44866 35.0203 2.52034C35.0231 2.74901 35.0247 2.97768 35.0263 3.20636C35.028 3.36542 35.0298 3.52447 35.0317 3.68353C35.0364 4.1012 35.0401 4.51889 35.0435 4.93658C35.0472 5.36318 35.052 5.78977 35.0566 6.21636C35.0655 7.05269 35.0734 7.88902 35.0805 8.72536C35.2119 8.79181 35.2119 8.79181 35.346 8.8596C35.4629 8.91967 35.5797 8.97978 35.6965 9.03992C35.754 9.06888 35.8116 9.09783 35.8709 9.12767C36.4343 9.41957 36.8633 9.8134 37.3004 10.2871C37.358 10.3447 37.4156 10.4023 37.4749 10.4617C38.487 11.5514 38.9555 13.1386 39 14.6306C38.9515 16.4614 38.2812 18.1351 37.0207 19.4015C36.6467 19.7252 36.2376 19.9864 35.8204 20.243C35.7575 20.2824 35.6945 20.3218 35.6297 20.3623C34.4005 21.073 32.7857 21.1311 31.4326 20.8225C29.7732 20.282 28.4532 19.1597 27.6171 17.5466C26.638 15.3229 26.8293 12.8895 28.153 10.8681Z" fill="black"/>
<path d="M1.13584 2.62322C2.12479 1.27718 3.49046 0.245906 5.10334 0.033843C6.79009 -0.113688 8.35483 0.20206 9.72026 1.3587C9.95117 1.57769 10.1698 1.80394 10.3856 2.04014C10.4366 2.09199 10.4876 2.14385 10.5402 2.19727C11.6016 3.37708 12.0114 5.14121 11.9998 6.73378C11.9503 8.42197 11.3285 9.91982 10.2499 11.1374C8.97165 12.3996 7.44859 13.0368 5.71801 12.9984C4.15518 12.8874 2.69071 12.1724 1.58182 10.9682C-0.31592 8.61992 -0.557167 5.17987 1.13584 2.62322Z" fill="black"/>
<path d="M4.03456 43.379C4.03409 43.2738 4.03361 43.1685 4.03312 43.0601C4.03176 42.7068 4.03169 42.3535 4.03163 42.0003C4.03094 41.7472 4.03018 41.4942 4.02934 41.2411C4.02727 40.5532 4.02655 39.8652 4.02609 39.1772C4.02579 38.7474 4.0252 38.3176 4.02455 37.8878C4.02277 36.6972 4.02128 35.5066 4.02101 34.316C4.021 34.2398 4.02098 34.1637 4.02096 34.0852C4.02093 33.9308 4.0209 33.7764 4.02086 33.622C4.02085 33.5453 4.02083 33.4687 4.02081 33.3897C4.0208 33.313 4.02078 33.2362 4.02076 33.1571C4.02044 31.9142 4.01799 30.6712 4.01459 29.4282C4.01113 28.1513 4.00938 26.8743 4.00935 25.5974C4.0093 24.8807 4.00853 24.1641 4.0059 23.4475C4.00344 22.7732 4.00332 22.099 4.00478 21.4248C4.00494 21.1775 4.00433 20.9303 4.00289 20.6831C4.00103 20.3451 4.00199 20.0072 4.00363 19.6691C4.00243 19.5717 4.00124 19.4744 4 19.374C4.0075 18.6978 4.15305 18.1702 4.51352 17.6075C5.05681 17.0545 5.58005 16.9914 6.30282 17.0008C6.813 17.0453 7.14396 17.1994 7.49048 17.6018C7.80699 18.0337 7.97554 18.3624 7.97635 18.919C7.97669 19.0099 7.97704 19.1008 7.9774 19.1944C7.97728 19.3445 7.97728 19.3445 7.97716 19.4976C7.97757 19.6568 7.97757 19.6568 7.97798 19.8192C7.97877 20.1767 7.97891 20.5341 7.97904 20.8916C7.97946 21.1471 7.97992 21.4027 7.98041 21.6582C7.98164 22.3538 7.98219 23.0493 7.98259 23.7449C7.98284 24.1791 7.98323 24.6134 7.98363 25.0476C7.98474 26.2497 7.98568 27.4517 7.98598 28.6538C7.986 28.7307 7.98602 28.8077 7.98604 28.8869C7.98606 28.9641 7.98608 29.0412 7.9861 29.1207C7.98614 29.277 7.98619 29.4333 7.98623 29.5896C7.98625 29.6671 7.98627 29.7446 7.98629 29.8245C7.98665 31.0809 7.98823 32.3373 7.99035 33.5936C7.9925 34.8833 7.99363 36.1729 7.99374 37.4626C7.99382 38.1868 7.99434 38.911 7.99599 39.6351C7.99739 40.2518 7.99785 40.8684 7.9971 41.4851C7.99675 41.7997 7.99698 42.1143 7.99811 42.4289C7.99926 42.77 7.99873 43.1111 7.99778 43.4522C7.99851 43.5516 7.99925 43.651 8 43.7534C7.9957 44.4123 7.89812 44.8253 7.49332 45.3429C6.94673 45.8347 6.47815 46.0295 5.75546 45.9964C5.13378 45.9026 4.74619 45.5822 4.35247 45.0772C4.01598 44.5279 4.03314 44.0156 4.03456 43.379Z" fill="black"/>
<path d="M17.0172 18.4585C17.0166 18.3874 17.016 18.3163 17.0153 18.243C17.0138 18.0071 17.0145 17.7712 17.0153 17.5352C17.0147 17.3651 17.0139 17.195 17.013 17.0249C17.011 16.5645 17.0112 16.104 17.0118 15.6435C17.0121 15.2584 17.0115 14.8734 17.0108 14.4883C17.0092 13.5794 17.0094 12.6705 17.0107 11.7617C17.012 10.8256 17.0104 9.88953 17.0074 8.95346C17.005 8.14834 17.0042 7.34323 17.0049 6.5381C17.0052 6.05788 17.005 5.57767 17.0031 5.09744C17.0014 4.64565 17.0018 4.19391 17.0039 3.74212C17.0043 3.57688 17.004 3.41164 17.0028 3.2464C16.9902 1.31274 16.9902 1.31274 17.6978 0.626282C18.3438 0.0942154 18.9637 -0.0137329 19.8318 0.00131989C20.4945 0.0620556 20.8947 0.286999 21.3645 0.692263C21.8179 1.28645 21.9813 1.82179 21.9829 2.54153C21.9837 2.64816 21.9837 2.64816 21.9847 2.75695C21.9862 2.99291 21.9855 3.22882 21.9847 3.46478C21.9853 3.63488 21.9861 3.80497 21.987 3.97507C21.989 4.43554 21.9888 4.89599 21.9882 5.35646C21.9879 5.74156 21.9885 6.12664 21.9892 6.51174C21.9908 7.42061 21.9906 8.32947 21.9893 9.23835C21.988 10.1744 21.9896 11.1105 21.9926 12.0465C21.995 12.8517 21.9958 13.6568 21.9951 14.4619C21.9948 14.9421 21.995 15.4223 21.9969 15.9026C21.9986 16.3543 21.9982 16.8061 21.9961 17.2579C21.9957 17.4231 21.996 17.5884 21.9972 17.7536C22.0098 19.6873 22.0098 19.6873 21.3022 20.3737C20.6562 20.9058 20.0363 21.0137 19.1682 20.9987C18.5055 20.9379 18.1053 20.713 17.6355 20.3077C17.1821 19.7135 17.0187 19.1782 17.0172 18.4585Z" fill="black"/>
<path d="M31.0229 43.7822C31.0226 43.7089 31.0224 43.6356 31.0221 43.5601C31.0213 43.3138 31.0212 43.0674 31.021 42.8211C31.0206 42.6448 31.0201 42.4685 31.0196 42.2921C31.0185 41.8126 31.0179 41.333 31.0175 40.8535C31.0172 40.554 31.0168 40.2544 31.0164 39.9549C31.0152 39.018 31.0143 38.0811 31.0139 37.1441C31.0135 36.0622 31.0119 34.9802 31.0093 33.8983C31.0073 33.0622 31.0064 32.2262 31.0063 31.3901C31.0062 30.8907 31.0056 30.3912 31.004 29.8918C31.0025 29.4219 31.0023 28.9521 31.0031 28.4822C31.0032 28.3098 31.0028 28.1375 31.0019 27.9651C31.0007 27.7296 31.0013 27.4942 31.0022 27.2587C31.0015 27.1906 31.0008 27.1225 31 27.0524C31.0054 26.4765 31.1686 26.1013 31.5081 25.6639C32.0563 25.167 32.5262 24.9702 33.251 25.0036C33.8744 25.0984 34.2631 25.4221 34.6579 25.9324C34.9339 26.3862 34.9784 26.8025 34.9761 27.334C34.9768 27.4428 34.9768 27.4428 34.9774 27.5538C34.9785 27.7963 34.9784 28.0389 34.9783 28.2814C34.9788 28.4555 34.9794 28.6296 34.9801 28.8038C34.9817 29.2764 34.9821 29.7491 34.9823 30.2218C34.9824 30.5173 34.9828 30.8127 34.9833 31.1081C34.9849 32.1391 34.9857 33.1701 34.9855 34.2012C34.9854 35.1617 34.9874 36.1221 34.9902 37.0826C34.9926 37.9077 34.9936 38.7328 34.9935 39.5579C34.9934 40.0505 34.9939 40.543 34.9959 41.0356C34.9976 41.499 34.9977 41.9625 34.9963 42.4259C34.9961 42.5957 34.9966 42.7655 34.9977 42.9352C35.0081 44.6576 35.0081 44.6576 34.4285 45.3787C34.3777 45.4223 34.3268 45.4659 34.2744 45.5108C34.2238 45.5559 34.1732 45.601 34.1211 45.6475C33.6047 46.0095 33.0932 46.0458 32.4928 45.963C31.844 45.7423 31.4632 45.419 31.1268 44.7898C31.0203 44.4469 31.0225 44.1388 31.0229 43.7822Z" fill="black"/>
</svg>
