<svg width="30" height="30" viewBox="0 0 30 30" fill="none" xmlns="http://www.w3.org/2000/svg">
<path d="M14.9817 0.00023787C15.0383 0.000344544 15.0949 0.000451217 15.1533 0.000561124C15.992 0.00321964 16.8082 0.0330004 17.6335 0.19409C17.7122 0.20822 17.7122 0.20822 17.7925 0.222636C21.2927 0.855989 24.6585 2.8491 26.8213 5.6951C26.8457 5.72672 26.8701 5.75834 26.8952 5.79091C27.3449 6.37583 27.7394 6.98796 28.1088 7.62631C28.1319 7.66594 28.1549 7.70557 28.1787 7.74641C28.9502 9.08764 29.4538 10.5843 29.7657 12.0959C29.7743 12.1375 29.7829 12.1791 29.7918 12.2219C29.9665 13.1373 30.0034 14.0523 29.9998 14.9817C29.9996 15.0666 29.9996 15.0666 29.9994 15.1533C29.9968 15.992 29.967 16.8082 29.8059 17.6335C29.7965 17.686 29.7871 17.7385 29.7774 17.7925C29.144 21.2927 27.1509 24.6585 24.3049 26.8213C24.2733 26.8457 24.2417 26.8701 24.2091 26.8952C23.6242 27.3449 23.012 27.7394 22.3737 28.1088C22.3341 28.1319 22.2944 28.1549 22.2536 28.1787C20.9124 28.9502 19.4157 29.4538 17.9041 29.7657C17.8625 29.7743 17.8209 29.7829 17.7781 29.7918C16.8627 29.9665 15.9477 30.0034 15.0183 29.9998C14.9617 29.9997 14.9051 29.9996 14.8467 29.9994C14.008 29.9968 13.1918 29.967 12.3665 29.8059C12.314 29.7965 12.2615 29.7871 12.2075 29.7774C8.70729 29.144 5.34149 27.1509 3.17868 24.3049C3.1543 24.2733 3.12991 24.2417 3.10479 24.2091C2.65515 23.6242 2.26057 23.012 1.89121 22.3737C1.86814 22.3341 1.84506 22.2944 1.82129 22.2536C1.04984 20.9124 0.546236 19.4157 0.234323 17.9041C0.225695 17.8625 0.217067 17.8209 0.208177 17.7781C0.0334699 16.8627 -0.00340859 15.9477 0.00023787 15.0183C0.000344544 14.9617 0.000451218 14.9051 0.000561124 14.8467C0.00321964 14.008 0.0330004 13.1918 0.19409 12.3665C0.20822 12.2878 0.20822 12.2878 0.222636 12.2075C0.855989 8.70729 2.8491 5.34149 5.6951 3.17868C5.72672 3.1543 5.75834 3.12991 5.79091 3.10479C6.37583 2.65515 6.98796 2.26057 7.62631 1.89121C7.66594 1.86814 7.70557 1.84506 7.74641 1.82129C9.08764 1.04984 10.5843 0.546236 12.0959 0.234323C12.1375 0.225695 12.1791 0.217067 12.2219 0.208177C13.1373 0.0334699 14.0523 -0.00340859 14.9817 0.00023787ZM12.2495 2.18382C12.1941 2.19636 12.1387 2.2089 12.0817 2.22182C10.9327 2.49182 9.83475 2.91107 8.79673 3.47129C8.69535 3.52515 8.69535 3.52515 8.59191 3.5801C6.9982 4.45664 5.51797 5.7298 4.46615 7.21666C4.43798 7.25645 4.40982 7.29624 4.3808 7.33724C2.96464 9.35994 1.95963 11.7996 1.93579 14.3009C1.93521 14.3507 1.93464 14.4005 1.93405 14.4518C1.92383 15.5712 1.93462 16.6534 2.18382 17.7505C2.19636 17.8059 2.2089 17.8613 2.22182 17.9183C2.49182 19.0673 2.91107 20.1653 3.47129 21.2033C3.5072 21.2709 3.5431 21.3385 3.5801 21.4081C4.45664 23.0018 5.7298 24.482 7.21666 25.5338C7.25645 25.562 7.29624 25.5902 7.33724 25.6192C9.35994 27.0354 11.7996 28.0404 14.3009 28.0642C14.3507 28.0648 14.4005 28.0654 14.4518 28.0659C15.5712 28.0762 16.6534 28.0654 17.7505 27.8162C17.8059 27.8036 17.8613 27.7911 17.9183 27.7782C19.0673 27.5082 20.1653 27.0889 21.2033 26.5287C21.2709 26.4928 21.3385 26.4569 21.4081 26.4199C23.0018 25.5434 24.482 24.2702 25.5338 22.7833C25.562 22.7436 25.5902 22.7038 25.6192 22.6628C27.0354 20.6401 28.0404 18.2004 28.0642 15.6991C28.0648 15.6493 28.0654 15.5995 28.066 15.5482C28.0762 14.4288 28.0654 13.3466 27.8162 12.2495C27.7974 12.1664 27.7974 12.1664 27.7782 12.0817C27.5082 10.9327 27.0889 9.83475 26.5287 8.79673C26.4928 8.72914 26.4569 8.66155 26.4199 8.59191C25.5434 6.9982 24.2702 5.51797 22.7833 4.46615C22.7436 4.43798 22.7038 4.40982 22.6628 4.3808C20.6401 2.96464 18.2004 1.95963 15.6991 1.93579C15.6493 1.93521 15.5995 1.93464 15.5482 1.93405C14.4288 1.92383 13.3466 1.93462 12.2495 2.18382Z" fill="#D9D9D9"/>
<path d="M22.4391 13.2919C22.4754 13.3148 22.5118 13.3378 22.5493 13.3614C22.5856 13.3819 22.622 13.4024 22.6595 13.4236C23.0609 13.6738 23.3066 14.0808 23.4271 14.5318C23.4734 15.0519 23.4797 15.5403 23.193 15.9949C23.1725 16.0312 23.152 16.0676 23.1308 16.1051C22.8806 16.5065 22.4736 16.7522 22.0226 16.8727C21.5025 16.919 21.0141 16.9253 20.5595 16.6386C20.505 16.6078 20.505 16.6078 20.4494 16.5764C20.0479 16.3262 19.8022 15.9192 19.6817 15.4682C19.6354 14.9481 19.6291 14.4597 19.9158 14.0051C19.9363 13.9688 19.9568 13.9324 19.978 13.895C20.465 13.1137 21.6401 12.8544 22.4391 13.2919Z" fill="#D9D9D9"/>
<path d="M15.8847 13.2919C15.9211 13.3148 15.9574 13.3378 15.9949 13.3614C16.0312 13.3819 16.0676 13.4024 16.1051 13.4236C16.5065 13.6738 16.7523 14.0808 16.8727 14.5318C16.9191 15.0519 16.9253 15.5403 16.6386 15.9949C16.6181 16.0312 16.5976 16.0676 16.5764 16.1051C16.3262 16.5065 15.9192 16.7522 15.4682 16.8727C14.9481 16.919 14.4598 16.9253 14.0052 16.6386C13.9506 16.6078 13.9506 16.6078 13.895 16.5764C13.4935 16.3262 13.2478 15.9192 13.1273 15.4682C13.081 14.9481 13.0747 14.4597 13.3614 14.0051C13.3819 13.9688 13.4025 13.9324 13.4236 13.895C13.9106 13.1137 15.0857 12.8544 15.8847 13.2919Z" fill="#D9D9D9"/>
<path d="M9.33026 13.2919C9.36662 13.3148 9.40298 13.3378 9.44045 13.3614C9.47681 13.3819 9.51317 13.4024 9.55063 13.4236C9.95206 13.6738 10.1978 14.0808 10.3183 14.5318C10.3646 15.0519 10.3709 15.5403 10.0842 15.9949C10.0637 16.0312 10.0431 16.0676 10.022 16.1051C9.77176 16.5065 9.36478 16.7522 8.91375 16.8727C8.39365 16.919 7.90531 16.9253 7.45072 16.6386C7.39618 16.6078 7.39618 16.6078 7.34053 16.5764C6.9391 16.3262 6.69335 15.9192 6.5729 15.4682C6.52655 14.9481 6.52027 14.4597 6.80698 14.0051C6.8275 13.9688 6.84802 13.9324 6.86916 13.895C7.3562 13.1137 8.53126 12.8544 9.33026 13.2919Z" fill="#D9D9D9"/>
</svg>
