<svg width="30" height="37" viewBox="0 0 30 37" fill="none" xmlns="http://www.w3.org/2000/svg">
<path fill-rule="evenodd" clip-rule="evenodd" d="M23.2109 6.21861C22.9876 4.31962 21.69 2.65807 20.0419 1.47728C16.6611 -0.794214 11.9199 -0.378155 8.96452 2.2578C7.07674 4.027 6.70227 5.96092 6.761 8.28943L6.76644 8.47639C6.53681 8.47169 6.30724 8.46799 6.07757 8.46536L5.79219 8.46228C4.55086 8.43643 3.58574 8.68001 2.61116 9.38479C2.09104 9.8185 1.75552 10.0983 1.52981 10.4488C1.11956 11.0858 1.07207 11.9565 0.938265 14.4097L0.908955 14.9446C0.882051 15.4322 0.855249 15.9198 0.828603 16.4073L0.769258 17.4918C0.712962 18.518 0.656749 19.5443 0.600721 20.5705L0.591579 20.738L0.582423 20.9057C0.533362 21.8044 0.484091 22.7031 0.43463 23.6017C0.38353 24.5302 0.332574 25.4586 0.281876 26.3871C0.25349 26.907 0.225095 27.427 0.196419 27.9469C0.171841 28.3924 0.147382 28.8378 0.123168 29.2833L0.0932073 29.8347L0.0884327 29.9207C0.0597278 30.4374 0.0310235 30.9541 0.0076465 31.471C-0.0454662 32.7956 0.159149 33.9911 1.22405 35.0035C2.10859 35.7412 3.15174 36.1922 4.37947 36.2027L4.63586 36.2014C4.92973 36.2029 5.22357 36.204 5.51745 36.2037C5.73241 36.2035 5.94737 36.2036 6.16233 36.2042C6.74885 36.2061 7.33536 36.2073 7.92188 36.2071C8.35745 36.207 8.79301 36.2071 9.22858 36.2076L9.60515 36.2081L9.79458 36.2083C10.9756 36.2098 12.1566 36.21 13.3377 36.2095C14.4197 36.209 15.5018 36.2101 16.5839 36.2126C17.7008 36.2151 18.8178 36.2167 19.9347 36.2164C20.5605 36.2162 21.1864 36.2161 21.8122 36.2179C22.3487 36.2195 22.8852 36.2204 23.4217 36.2193C23.6432 36.2188 23.8648 36.2183 24.0864 36.2181C24.5775 36.2205 25.0682 36.2218 25.5593 36.2144C26.8223 36.175 27.8775 35.8 28.7513 34.9864C29.2765 34.4446 29.5962 34.1147 29.7801 33.7213C30.0663 33.1091 30.0236 32.3431 29.9143 30.3851L29.8907 29.957C29.8695 29.5655 29.8481 29.174 29.8264 28.7825C29.8031 28.3631 29.7801 27.9436 29.7572 27.5241C29.7184 26.8157 29.6795 26.1074 29.6404 25.399C29.6003 24.6735 29.5603 23.948 29.5206 23.2225L29.506 22.9546L29.4913 22.6871C29.4022 21.0573 29.3123 19.4275 29.2208 17.7978C29.17 16.8941 29.1194 15.9905 29.0729 15.0867C29.0542 14.7239 29.0349 14.3612 29.0151 13.9986C29.0052 13.8187 28.9955 13.6389 28.9858 13.4591L28.977 13.2679C28.9449 12.5614 28.9135 11.8687 28.6988 11.1812C28.3399 10.1828 27.5674 9.37073 26.5151 8.8715L26.2943 8.77742C26.055 8.67029 25.8876 8.59533 25.7132 8.54426C25.3068 8.42529 24.8626 8.43599 23.3833 8.47161L23.2109 8.47639C23.2328 7.72391 23.2488 6.97084 23.2109 6.21861ZM11.2054 3.79768L11.3914 3.6598C12.4368 2.88198 13.7013 2.42427 15.086 2.46043C16.4931 2.53452 17.8957 2.9406 18.8706 3.8844L19.0141 4.0361C20.3663 5.42398 20.4702 6.69026 20.4702 8.47639H9.50719V7.27224C9.60275 5.94968 10.0645 4.72052 11.2054 3.79768ZM3.43706 10.1532C3.94764 9.78398 4.45542 9.55038 5.00758 9.42075H25.1533C25.2669 9.46353 25.3883 9.5179 25.5412 9.58634L25.7473 9.67414C26.7295 10.1401 27.4504 10.898 27.7854 11.8299C27.9857 12.4715 28.0151 13.118 28.045 13.7774L28.0533 13.9558C28.0623 14.1237 28.0714 14.2915 28.0806 14.4594C28.0991 14.7979 28.1171 15.1364 28.1345 15.4749C28.1779 16.3185 28.2252 17.1619 28.2726 18.0053C28.358 19.5263 28.4419 21.0475 28.5251 22.5687L28.5387 22.8183L28.5524 23.0683C28.5895 23.7455 28.6268 24.4226 28.6642 25.0997C28.7007 25.7608 28.737 26.422 28.7732 27.0832C28.7946 27.4747 28.8161 27.8662 28.8378 28.2577C28.858 28.6231 28.878 28.9885 28.8978 29.3539L28.9199 29.7534C29.0218 31.5809 29.0617 32.2958 28.7946 32.8672C28.6229 33.2343 28.3245 33.5422 27.8344 34.0479L27.8344 34.0479C27.0189 34.8073 26.034 35.1572 24.8552 35.1941C24.3969 35.201 23.9388 35.1998 23.4805 35.1975C23.2737 35.1977 23.0669 35.1981 22.8601 35.1986C22.3594 35.1996 21.8587 35.1988 21.3579 35.1973C20.7738 35.1956 20.1897 35.1957 19.6056 35.1959C18.5631 35.1962 17.5207 35.1947 16.4782 35.1923C15.4683 35.19 14.4583 35.189 13.4484 35.1894C12.3461 35.1899 11.2438 35.1897 10.1416 35.1883L9.96475 35.1881L9.61329 35.1877C9.20677 35.1872 8.80024 35.1871 8.39371 35.1873C7.84629 35.1874 7.29889 35.1863 6.75148 35.1845C6.55085 35.184 6.35022 35.1838 6.14959 35.1841C5.8753 35.1843 5.60106 35.1833 5.32677 35.1819L5.08748 35.1831C3.94161 35.1733 2.96801 34.7524 2.14244 34.0638C1.14854 33.119 0.957565 32.0031 1.00714 30.7669C1.02896 30.2844 1.05575 29.8022 1.08254 29.3199L1.08699 29.2397L1.11496 28.7251C1.13756 28.3093 1.16038 27.8935 1.18332 27.4777C1.21009 26.9925 1.23659 26.5072 1.26308 26.0219C1.3104 25.1554 1.35796 24.2888 1.40565 23.4223C1.45182 22.5835 1.4978 21.7448 1.54359 20.906L1.55214 20.7495L1.56067 20.5932C1.61296 19.6353 1.66543 18.6775 1.71797 17.7197L1.77336 16.7075C1.79823 16.2525 1.82324 15.7974 1.84835 15.3423L1.87571 14.8431C2.00059 12.5534 2.04492 11.7408 2.42781 11.1462C2.63848 10.8191 2.95162 10.558 3.43706 10.1532L3.43706 10.1532Z" fill="#AFAFAF"/>
</svg>
