
<svg width="30" height="26" viewBox="0 0 30 26" fill="none" xmlns="http://www.w3.org/2000/svg">
<path d="M2.73613 4.78796C2.84612 4.78772 2.95612 4.7874 3.06611 4.78701C3.36773 4.78616 3.66934 4.78641 3.97096 4.78684C4.2965 4.78712 4.62204 4.78639 4.94757 4.78579C5.58508 4.78478 6.22259 4.78473 6.86011 4.78504C7.37829 4.78527 7.89647 4.78519 8.41466 4.78488C8.48841 4.78483 8.56217 4.78479 8.63816 4.78475C8.78799 4.78466 8.93782 4.78457 9.08765 4.78448C10.0936 4.7839 11.0996 4.78366 12.1056 4.7841C12.1449 4.78412 12.1842 4.78414 12.2248 4.78416C12.5441 4.7843 12.8634 4.78445 13.1827 4.7846C14.4281 4.7852 15.6735 4.78471 16.9189 4.78335C18.3188 4.78182 19.7187 4.78107 21.1185 4.78149C21.8595 4.78169 22.6005 4.78156 23.3414 4.78054C23.9722 4.77968 24.603 4.77964 25.2337 4.78066C25.5555 4.78116 25.8773 4.78128 26.199 4.78039C26.4937 4.77958 26.7885 4.77985 27.0832 4.78098C27.1896 4.7812 27.2961 4.78103 27.4025 4.78042C28.1546 4.77642 28.7813 4.83108 29.3842 5.33353C29.8206 5.78095 29.9871 6.29838 29.9865 6.90869C29.9871 6.98521 29.9871 6.98521 29.9877 7.06329C29.9888 7.23135 29.989 7.39939 29.9891 7.56745C29.9895 7.68487 29.9899 7.80228 29.9903 7.91969C29.991 8.16568 29.9912 8.41167 29.9911 8.65766C29.9911 8.97175 29.9927 9.28582 29.9947 9.5999C29.9961 9.84243 29.9963 10.085 29.9962 10.3275C29.9964 10.4432 29.9969 10.559 29.9978 10.6747C30.0075 12.0398 30.0075 12.0398 29.5016 12.6032C29.463 12.6481 29.4244 12.6931 29.3847 12.7393C28.7753 13.2313 28.0463 13.3616 27.3006 13.5234C27.1807 13.5501 27.0607 13.5769 26.9408 13.6038C26.6196 13.6756 26.2982 13.7462 25.9767 13.8167C25.6425 13.8901 25.3086 13.9646 24.9747 14.039C24.4302 14.1601 23.8856 14.2806 23.3409 14.4007C22.5918 14.5658 21.843 14.7323 21.0943 14.8993C20.873 14.9486 20.6516 14.9979 20.4303 15.0472C20.3775 15.059 20.3248 15.0707 20.2704 15.0828C19.4489 15.2658 18.6272 15.4477 17.8055 15.6296C17.8046 15.6986 17.8038 15.7676 17.8029 15.8387C17.7995 16.0958 17.795 16.3527 17.7901 16.6097C17.7882 16.7208 17.7865 16.8318 17.7852 16.9429C17.7832 17.1029 17.7802 17.2629 17.7769 17.4228C17.7765 17.4722 17.7762 17.5215 17.7758 17.5724C17.7686 17.8623 17.7356 18.0704 17.5715 18.3197C17.1398 18.5715 16.6387 18.5206 16.1534 18.5184C16.0608 18.5186 15.9682 18.5187 15.8755 18.5189C15.6821 18.5192 15.4886 18.5188 15.2951 18.518C15.0482 18.517 14.8012 18.5176 14.5543 18.5186C14.3632 18.5193 14.1722 18.5191 13.9811 18.5186C13.8901 18.5185 13.7991 18.5186 13.708 18.519C12.7727 18.5223 12.7727 18.5223 12.4252 18.3197C12.231 18.0245 12.2225 17.7643 12.2199 17.4228C12.2188 17.3714 12.2178 17.32 12.2167 17.267C12.2135 17.1038 12.2115 16.9405 12.2096 16.7773C12.2077 16.6662 12.2056 16.5551 12.2035 16.444C12.1986 16.1725 12.1947 15.9011 12.1913 15.6296C12.1185 15.6133 12.0456 15.5971 11.9706 15.5804C11.682 15.516 11.3934 15.4517 11.1048 15.3873C10.9708 15.3574 10.8369 15.3276 10.703 15.2977C9.89343 15.1172 9.08394 14.9365 8.27453 14.7555C7.97396 14.6883 7.67339 14.6211 7.37282 14.5539C7.26084 14.5288 7.26084 14.5288 7.1466 14.5033C6.25077 14.303 5.35468 14.104 4.45798 13.9076C4.1699 13.8445 3.88193 13.7808 3.59397 13.7171C3.33548 13.66 3.07684 13.6036 2.81806 13.5479C2.62383 13.5058 2.42988 13.4625 2.23588 13.4194C2.16947 13.4054 2.10305 13.3914 2.03463 13.3769C1.33947 13.22 0.689766 12.9516 0.290705 12.3368C0.066719 11.9498 0.0184251 11.6524 0.0169614 11.2056C0.0165771 11.1546 0.0161928 11.1036 0.0157969 11.051C0.0146448 10.8823 0.0139612 10.7136 0.0133777 10.5449C0.0131394 10.4872 0.0129012 10.4294 0.0126556 10.3699C0.0114363 10.064 0.0105996 9.75806 0.0100511 9.45214C0.00940506 9.13713 0.00739436 8.82214 0.00507023 8.50713C0.00353652 8.2641 0.00305098 8.02108 0.00284137 7.77804C0.0025576 7.66198 0.00188087 7.54592 0.000792548 7.42986C-0.00627754 6.62578 0.021536 5.94723 0.612121 5.33696C1.26199 4.79622 1.93174 4.78506 2.73613 4.78796ZM1.49818 6.48838C1.40014 6.68519 1.40546 6.87498 1.40629 7.0901C1.4058 7.13691 1.4053 7.18372 1.40479 7.23196C1.40343 7.38659 1.40337 7.54119 1.40344 7.69584C1.40302 7.80349 1.40257 7.91114 1.40209 8.01879C1.4013 8.24444 1.40121 8.47007 1.40155 8.69572C1.4019 8.98455 1.40011 9.27332 1.39775 9.56213C1.39623 9.78449 1.39606 10.0068 1.39628 10.2292C1.39618 10.3357 1.39561 10.4421 1.39457 10.5486C1.39327 10.6977 1.39384 10.8466 1.39487 10.9957C1.3941 11.0395 1.39332 11.0833 1.39252 11.1283C1.39651 11.3778 1.43724 11.5709 1.61415 11.7548C1.86474 11.9236 2.17004 11.9649 2.4612 12.0261C2.57583 12.0519 2.69046 12.0777 2.80508 12.1035C2.92684 12.1307 3.04872 12.1572 3.17065 12.1836C3.41563 12.2367 3.66006 12.292 3.90442 12.3478C4.38032 12.4563 4.85666 12.5628 5.33311 12.6689C5.52214 12.711 5.71114 12.7532 5.90015 12.7954C6.3452 12.8948 6.79028 12.994 7.23538 13.0931C7.69352 13.1951 8.1516 13.2974 8.60966 13.3998C9.00584 13.4883 9.40206 13.5767 9.7983 13.665C10.0338 13.7175 10.2693 13.77 10.5047 13.8227C10.7247 13.8718 10.9446 13.9208 11.1646 13.9697C11.2453 13.9877 11.3259 14.0057 11.4066 14.0237C11.5164 14.0483 11.6262 14.0727 11.7361 14.097C11.7975 14.1107 11.859 14.1244 11.9223 14.1386C12.0773 14.173 12.0773 14.173 12.2498 14.1676C12.252 14.1203 12.2542 14.073 12.2564 14.0243C12.2622 13.9306 12.2622 13.9306 12.2681 13.8349C12.2732 13.7423 12.2732 13.7423 12.2784 13.6479C12.3111 13.4488 12.3646 13.335 12.4837 13.1734C12.6973 13.031 12.8569 13.0391 13.1039 13.0394C13.1717 13.0388 13.1717 13.0388 13.2408 13.0382C13.3904 13.0371 13.5399 13.0369 13.6894 13.0368C13.7934 13.0364 13.8973 13.036 14.0013 13.0356C14.2192 13.0349 14.4372 13.0347 14.6552 13.0347C14.9344 13.0348 15.2135 13.0332 15.4927 13.0312C15.7074 13.0299 15.9222 13.0296 16.1369 13.0297C16.2398 13.0295 16.3427 13.029 16.4456 13.0281C16.5897 13.027 16.7337 13.0273 16.8777 13.028C16.9414 13.027 16.9414 13.027 17.0063 13.026C17.2147 13.0286 17.331 13.0522 17.5089 13.1642C17.7643 13.4302 17.7207 13.8178 17.747 14.1676C18.2336 14.0915 18.7134 13.9971 19.1938 13.8891C19.3003 13.8653 19.3003 13.8653 19.4089 13.8412C19.6018 13.7981 19.7948 13.755 19.9877 13.7117C20.1924 13.6658 20.3972 13.6201 20.602 13.5744C20.9472 13.4974 21.2923 13.4202 21.6374 13.3429C21.9873 13.2645 22.3373 13.1862 22.6873 13.1081C22.73 13.0986 22.7727 13.089 22.8168 13.0792C22.9028 13.06 22.9888 13.0408 23.0748 13.0216C23.8159 12.8561 24.5569 12.6902 25.2977 12.5237C25.7257 12.4275 26.1537 12.3317 26.582 12.2371C26.778 12.1937 26.9739 12.15 27.1698 12.1061C27.2545 12.0873 27.3392 12.0686 27.424 12.0501C27.5355 12.0258 27.647 12.0008 27.7584 11.9757C27.8179 11.9626 27.8774 11.9494 27.9387 11.9359C28.1618 11.8672 28.3254 11.7729 28.495 11.6127C28.5981 11.4161 28.5909 11.2267 28.5896 11.01C28.59 10.963 28.5904 10.9161 28.5908 10.8678C28.5919 10.7129 28.5916 10.558 28.5913 10.4031C28.5916 10.2953 28.5919 10.1875 28.5922 10.0797C28.5927 9.85382 28.5926 9.62794 28.592 9.40204C28.5913 9.1127 28.5925 8.82339 28.5942 8.53404C28.5953 8.31144 28.5953 8.08884 28.595 7.86624C28.595 7.75957 28.5953 7.65289 28.596 7.54623C28.5969 7.39699 28.5963 7.24783 28.5953 7.09859C28.5958 7.05462 28.5964 7.01066 28.597 6.96535C28.5941 6.75945 28.5716 6.63305 28.4654 6.45495C28.2041 6.21241 27.9411 6.19713 27.5973 6.19929C27.553 6.1991 27.5087 6.19891 27.4631 6.19872C27.3143 6.19823 27.1655 6.19858 27.0166 6.19893C26.909 6.19875 26.8014 6.19852 26.6939 6.19825C26.3978 6.19764 26.1018 6.19777 25.8057 6.19802C25.4866 6.19817 25.1675 6.19764 24.8484 6.1972C24.223 6.19646 23.5977 6.19635 22.9724 6.19649C22.4643 6.19659 21.9561 6.19649 21.448 6.19624C21.3758 6.19621 21.3035 6.19617 21.2291 6.19614C21.0823 6.19607 20.9356 6.196 20.7888 6.19592C19.5687 6.19536 18.3486 6.19533 17.1285 6.19565C17.0897 6.19566 17.0509 6.19567 17.0109 6.19568C16.9324 6.1957 16.8539 6.19572 16.7754 6.19574C15.554 6.19605 14.3326 6.19559 13.1112 6.19451C11.7392 6.1933 10.3673 6.19267 8.99533 6.19291C8.26879 6.19302 7.54224 6.19287 6.8157 6.19205C6.19722 6.19135 5.57875 6.19127 4.96027 6.19198C4.64458 6.19232 4.3289 6.19238 4.01321 6.19168C3.72437 6.19105 3.43555 6.19123 3.14672 6.19205C3.04208 6.19221 2.93744 6.19206 2.8328 6.1916C2.69081 6.19101 2.54886 6.1915 2.40688 6.19226C2.34562 6.19162 2.34562 6.19162 2.28312 6.19096C1.96777 6.19447 1.73215 6.27464 1.49818 6.48838ZM13.6533 14.4015C13.6533 15.2699 13.6533 16.1384 13.6533 17.0331C14.5411 17.0331 15.4288 17.0331 16.3435 17.0331C16.3435 16.1647 16.3435 15.2962 16.3435 14.4015C15.4557 14.4015 14.568 14.4015 13.6533 14.4015Z" fill="#AFAFAF"/>
<path d="M1.6648 14.343C1.8442 14.4437 1.98078 14.5656 2.07417 14.7524C2.08012 14.8715 2.08223 14.9908 2.08263 15.11C2.08303 15.1864 2.08344 15.2627 2.08385 15.3413C2.08401 15.4264 2.08417 15.5115 2.08432 15.5966C2.08468 15.6858 2.08508 15.7751 2.0855 15.8643C2.08636 16.0568 2.08705 16.2493 2.0876 16.4418C2.08851 16.7463 2.08991 17.0507 2.0914 17.3552C2.09557 18.2212 2.09906 19.0872 2.10205 19.9531C2.10371 20.4312 2.10578 20.9092 2.10829 21.3872C2.10985 21.6897 2.1109 21.9923 2.11156 22.2948C2.1121 22.4834 2.11311 22.6719 2.11426 22.8605C2.1147 22.9478 2.11494 23.035 2.11497 23.1222C2.11503 23.2417 2.11587 23.3611 2.11675 23.4806C2.117 23.5473 2.11725 23.6141 2.1175 23.6828C2.13781 23.9411 2.1583 24.1906 2.3449 24.383C2.53662 24.4897 2.68332 24.4823 2.9024 24.4826C2.94484 24.4829 2.98728 24.4832 3.03101 24.4835C3.17399 24.4842 3.31694 24.4837 3.45992 24.4832C3.56316 24.4835 3.66639 24.4839 3.76963 24.4843C4.05392 24.4853 4.3382 24.4851 4.62249 24.4848C4.92885 24.4847 5.23521 24.4855 5.54157 24.4862C6.14198 24.4875 6.7424 24.4877 7.34281 24.4876C7.83068 24.4876 8.31854 24.4878 8.8064 24.4882C8.94676 24.4883 9.08712 24.4885 9.22748 24.4886C9.29734 24.4886 9.36719 24.4887 9.43916 24.4888C10.7612 24.4899 12.0832 24.4898 13.4052 24.4894C14.6155 24.4891 15.8258 24.4903 17.0361 24.4922C18.2779 24.4942 19.5197 24.4951 20.7615 24.4948C21.459 24.4947 22.1566 24.495 22.8541 24.4965C23.4479 24.4977 24.0417 24.4979 24.6355 24.4968C24.9387 24.4963 25.2418 24.4962 25.5449 24.4974C25.8222 24.4985 26.0995 24.4982 26.3768 24.4969C26.4773 24.4966 26.5778 24.4969 26.6783 24.4977C26.8146 24.4987 26.9508 24.4979 27.0871 24.4966C27.2008 24.4967 27.2008 24.4967 27.3168 24.4967C27.5643 24.4507 27.6503 24.3615 27.8057 24.1678C27.8793 23.9477 27.8715 23.7271 27.8715 23.4962C27.8716 23.4196 27.8718 23.3429 27.8719 23.2639C27.8718 23.1794 27.8717 23.0948 27.8716 23.0103C27.8716 22.9209 27.8717 22.8316 27.8719 22.7422C27.8722 22.55 27.8723 22.3578 27.8723 22.1656C27.8723 21.8616 27.8731 21.5576 27.874 21.2536C27.8741 21.2023 27.8743 21.151 27.8745 21.0981C27.8748 20.9931 27.8751 20.8881 27.8754 20.7832C27.8774 20.0756 27.879 19.3681 27.8788 18.6605C27.8787 18.183 27.8797 17.7054 27.8818 17.2279C27.8829 16.9753 27.8834 16.7227 27.8827 16.4701C27.882 16.2325 27.8827 15.995 27.8844 15.7574C27.8848 15.6703 27.8847 15.5832 27.8841 15.4962C27.879 14.7562 27.879 14.7562 28.0639 14.526C28.2922 14.3379 28.4336 14.3226 28.7224 14.3268C28.9362 14.3523 29.0532 14.4323 29.2092 14.5769C29.3143 14.8282 29.341 15.0429 29.3415 15.3138C29.3419 15.3906 29.3423 15.4673 29.3427 15.5463C29.3426 15.6307 29.3424 15.715 29.3423 15.7993C29.3425 15.8887 29.3428 15.9781 29.3432 16.0674C29.344 16.3097 29.344 16.552 29.3438 16.7943C29.3438 16.997 29.3441 17.1997 29.3443 17.4024C29.345 17.8811 29.345 18.3598 29.3447 18.8385C29.3443 19.331 29.345 19.8235 29.3463 20.316C29.3473 20.7398 29.3477 21.1636 29.3475 21.5874C29.3474 21.8401 29.3475 22.0928 29.3483 22.3454C29.3491 22.5834 29.349 22.8214 29.3482 23.0594C29.3481 23.1463 29.3482 23.2331 29.3487 23.3199C29.353 24.1398 29.2706 24.8409 28.6829 25.4544C28.1415 25.8706 27.5777 25.9878 26.9039 25.9882C26.841 25.9884 26.841 25.9884 26.7768 25.9885C26.6365 25.9888 26.4963 25.9886 26.3561 25.9885C26.2544 25.9886 26.1527 25.9887 26.051 25.9889C25.7718 25.9893 25.4926 25.9893 25.2134 25.9892C24.9121 25.9892 24.6109 25.9895 24.3097 25.9898C23.7196 25.9903 23.1295 25.9904 22.5395 25.9904C22.0598 25.9905 21.5802 25.9906 21.1005 25.9908C19.7405 25.9913 18.3805 25.9916 17.0205 25.9915C16.9472 25.9915 16.8739 25.9915 16.7984 25.9915C16.6883 25.9915 16.6883 25.9915 16.5759 25.9915C15.3863 25.9915 14.1967 25.992 13.007 25.9929C11.7854 25.9937 10.5639 25.9941 9.34228 25.9941C8.65649 25.994 7.9707 25.9942 7.28491 25.9948C6.701 25.9954 6.1171 25.9955 5.5332 25.9951C5.23536 25.9949 4.93753 25.9949 4.63969 25.9954C4.36682 25.9959 4.09397 25.9958 3.8211 25.9953C3.7226 25.9952 3.6241 25.9953 3.52559 25.9956C2.78606 25.9979 2.12454 25.9913 1.48936 25.5713C1.43749 25.5375 1.38563 25.5038 1.33219 25.469C0.821747 24.9723 0.668097 24.3776 0.648348 23.6791C0.646659 23.5171 0.647196 23.3552 0.647925 23.1933C0.647687 23.1034 0.647374 23.0135 0.646993 22.9236C0.6462 22.6816 0.646501 22.4396 0.64706 22.1976C0.647507 21.9434 0.647091 21.6893 0.646817 21.4351C0.646498 21.0088 0.646916 20.5824 0.647754 20.1561C0.64871 19.6638 0.648397 19.1716 0.647433 18.6793C0.646636 18.2555 0.646525 17.8317 0.646984 17.4079C0.647257 17.1553 0.647295 16.9026 0.646714 16.65C0.646206 16.4127 0.646561 16.1755 0.647573 15.9382C0.647804 15.8513 0.647739 15.7645 0.647351 15.6776C0.644018 14.8554 0.644018 14.8554 0.846069 14.5184C1.07981 14.3053 1.36259 14.2846 1.6648 14.343Z" fill="#AFAFAF"/>
<path d="M12.2244 0.00670687C12.3239 0.00641225 12.3239 0.00641225 12.4254 0.00611168C12.6439 0.00555808 12.8622 0.00544202 13.0807 0.00537906C13.2332 0.00519102 13.3857 0.00499427 13.5382 0.00478922C13.8576 0.00441609 14.1769 0.00432816 14.4963 0.00436536C14.864 0.00440046 15.2318 0.00378371 15.5995 0.00285985C15.9549 0.0019992 16.3103 0.001793 16.6657 0.00182786C16.8162 0.00175908 16.9666 0.00150169 17.1171 0.00104817C17.328 0.000471983 17.5388 0.000644595 17.7497 0.000995858C17.8419 0.000502908 17.8419 0.000502908 17.936 0C18.639 0.0029594 19.2989 0.0959205 19.845 0.570769C19.886 0.619016 19.927 0.667263 19.9693 0.716971C20.0091 0.759187 20.0489 0.801403 20.0899 0.844898C20.5149 1.46188 20.568 2.22623 20.4796 2.95386C20.438 3.13584 20.3754 3.23502 20.2471 3.37054C19.9904 3.5222 19.816 3.53796 19.5234 3.4875C19.2992 3.39619 19.2183 3.31862 19.0921 3.11468C19.0062 2.8341 19.0134 2.54026 19.0033 2.24912C18.9943 1.93054 18.9943 1.93054 18.8581 1.65266C18.6753 1.53965 18.5355 1.52103 18.3224 1.52085C18.2614 1.52052 18.2004 1.52019 18.1375 1.51985C18.0709 1.52009 18.0043 1.52032 17.9357 1.52057C17.8653 1.52036 17.7949 1.52016 17.7224 1.51995C17.5296 1.51952 17.3367 1.51962 17.1439 1.51999C16.942 1.52029 16.7401 1.52001 16.5382 1.51983C16.1992 1.51962 15.8602 1.5199 15.5212 1.52045C15.1293 1.52109 14.7375 1.52088 14.3456 1.52024C14.0091 1.51971 13.6726 1.51963 13.336 1.51994C13.1351 1.52012 12.9341 1.52015 12.7332 1.51976C12.5091 1.51936 12.2851 1.51992 12.0611 1.52057C11.9612 1.52021 11.9612 1.52021 11.8593 1.51985C11.7678 1.52035 11.7678 1.52035 11.6745 1.52085C11.6215 1.52089 11.5685 1.52094 11.514 1.52098C11.362 1.5368 11.268 1.5727 11.1387 1.65266C10.9572 1.89102 10.999 2.21614 10.9937 2.50281C10.9813 2.84353 10.9283 3.14476 10.6818 3.39978C10.4404 3.52391 10.2573 3.53342 9.99099 3.4875C9.76562 3.39568 9.68467 3.32137 9.5597 3.11468C9.37669 2.40568 9.48642 1.59925 9.83131 0.960032C9.93599 0.793521 10.0533 0.668729 10.203 0.541529C10.2452 0.501726 10.2874 0.461922 10.3309 0.420912C10.9125 0.0202968 11.5427 0.0064147 12.2244 0.00670687Z" fill="#AFAFAF"/>
</svg>
