<svg width="30" height="30" viewBox="0 0 30 30" fill="none" xmlns="http://www.w3.org/2000/svg">
<path fill-rule="evenodd" clip-rule="evenodd" d="M4 0C1.79086 0 0 1.79086 0 4V26C0 28.2091 1.79086 30 4 30H26C28.2091 30 30 28.2091 30 26V4C30 1.79086 28.2091 0 26 0H4ZM6 2C3.79086 2 2 3.79086 2 6V24C2 26.2091 3.79086 28 6 28H24C26.2091 28 28 26.2091 28 24V6C28 3.79086 26.2091 2 24 2H6Z" fill="#D9D9D9"/>
<path d="M13.5044 4.01407C13.5282 4.01366 13.5519 4.01324 13.5763 4.01282C13.6412 4.01186 13.7061 4.01145 13.771 4.01137C13.8117 4.01128 13.8523 4.01102 13.8929 4.0107C14.0348 4.00956 14.1767 4.00906 14.3187 4.00916C14.4506 4.00923 14.5826 4.00794 14.7145 4.006C14.8281 4.00439 14.9416 4.00374 15.0552 4.00382C15.1229 4.00385 15.1906 4.00339 15.2583 4.0022C15.3339 4.00099 15.4095 4.00135 15.4851 4.00209C15.5073 4.0014 15.5295 4.00071 15.5524 4C15.7013 4.00368 15.8002 4.07141 15.9114 4.27724C15.9907 4.52352 15.995 4.7693 15.9947 5.05642C15.9947 5.08955 15.9948 5.12268 15.9948 5.15681C15.9949 5.26827 15.9949 5.37972 15.9949 5.49119C15.9949 5.57172 15.995 5.65226 15.9951 5.7328C15.9952 5.95448 15.9952 6.17616 15.9953 6.39784C15.9953 6.63678 15.9955 6.87573 15.9956 7.11467C15.9959 7.66455 15.996 8.21442 15.9961 8.7643C15.9961 9.06328 15.9962 9.36226 15.9963 9.66124C15.9966 10.5642 15.9968 11.4672 15.9968 12.3702C15.9968 12.4286 15.9968 12.487 15.9968 12.5453C15.9968 12.6039 15.9968 12.6624 15.9969 12.7209C15.9969 12.8383 15.9969 12.9557 15.9969 13.0732C15.9969 13.1168 15.9969 13.1168 15.9969 13.1614C15.997 14.1055 15.9973 15.0495 15.9978 15.9936C15.9982 16.9918 15.9985 17.99 15.9985 18.9882C15.9986 19.5323 15.9987 20.0764 15.999 20.6205C15.9994 21.0837 15.9995 21.547 15.9993 22.0103C15.9992 22.2467 15.9992 22.4831 15.9995 22.7195C15.9998 22.9359 15.9998 23.1523 15.9995 23.3687C15.9995 23.447 15.9995 23.5253 15.9997 23.6036C15.9999 23.7101 15.9998 23.8165 15.9995 23.923C15.9997 23.9533 15.9998 23.9837 16 24.0149C15.9987 24.2898 15.9711 24.5439 15.8837 24.7585C15.8662 24.7872 15.8487 24.8159 15.8307 24.8454C15.8114 24.8779 15.8114 24.8779 15.7917 24.9111C15.6952 25.0002 15.6004 24.9862 15.4956 24.9859C15.46 24.9865 15.46 24.9865 15.4237 24.9872C15.3588 24.9881 15.2939 24.9886 15.229 24.9886C15.1883 24.9887 15.1477 24.989 15.1071 24.9893C14.9652 24.9904 14.8233 24.9909 14.6813 24.9908C14.5494 24.9908 14.4174 24.9921 14.2855 24.994C14.1719 24.9956 14.0584 24.9963 13.9448 24.9962C13.8771 24.9962 13.8094 24.9966 13.7417 24.9978C13.6661 24.999 13.5905 24.9986 13.5149 24.9979C13.4927 24.9986 13.4705 24.9993 13.4476 25C13.2987 24.9963 13.1998 24.9286 13.0886 24.7228C13.0093 24.4765 13.005 24.2307 13.0053 23.9436C13.0053 23.9104 13.0052 23.8773 13.0052 23.8432C13.0051 23.7317 13.0051 23.6203 13.0051 23.5088C13.0051 23.4283 13.005 23.3477 13.005 23.2672C13.0048 23.0455 13.0048 22.8238 13.0047 22.6022C13.0047 22.3632 13.0045 22.1243 13.0044 21.8853C13.0041 21.3355 13.004 20.7856 13.0039 20.2357C13.0039 19.9367 13.0038 19.6377 13.0037 19.3388C13.0034 18.4358 13.0032 17.5328 13.0032 16.6298C13.0032 16.5714 13.0032 16.513 13.0032 16.4547C13.0032 16.3961 13.0032 16.3376 13.0031 16.2791C13.0031 16.1617 13.0031 16.0442 13.0031 15.9268C13.0031 15.8977 13.0031 15.8686 13.0031 15.8386C13.003 14.8945 13.0027 13.9505 13.0022 13.0064C13.0018 12.0082 13.0015 11.01 13.0015 10.0118C13.0014 9.46774 13.0013 8.92363 13.001 8.37952C13.0006 7.91626 13.0005 7.453 13.0007 6.98973C13.0008 6.75333 13.0008 6.51693 13.0005 6.28053C13.0002 6.06411 13.0002 5.8477 13.0005 5.63128C13.0005 5.553 13.0005 5.47471 13.0003 5.39642C13.0001 5.28994 13.0002 5.18349 13.0005 5.07701C13.0003 5.04667 13.0002 5.01634 13 4.98509C13.0013 4.71018 13.0289 4.45609 13.1163 4.24146C13.1338 4.21278 13.1513 4.18411 13.1693 4.15456C13.1822 4.1329 13.195 4.11123 13.2083 4.08891C13.3048 3.99982 13.3996 4.01381 13.5044 4.01407Z" fill="#D9D9D9"/>
<path d="M19.3927 9.01063C19.4131 9.01038 19.4334 9.01014 19.4544 9.00988C19.4767 9.00983 19.499 9.00978 19.522 9.00973C19.5573 9.00941 19.5573 9.00941 19.5933 9.00908C19.6712 9.00844 19.7492 9.00814 19.8271 9.0079C19.8676 9.00771 19.908 9.00753 19.9484 9.00733C20.0611 9.00682 20.1738 9.00649 20.2864 9.00634C20.432 9.00615 20.5776 9.00538 20.7232 9.00412C20.8358 9.00318 20.9484 9.00274 21.061 9.00268C21.1282 9.00263 21.1955 9.00231 21.2627 9.0016C21.3377 9.00085 21.4127 9.00093 21.4878 9.00122C21.51 9.00082 21.5321 9.00041 21.555 9C21.6863 9.00155 21.7823 9.02269 21.8828 9.22245C21.8925 9.24807 21.9022 9.27369 21.9122 9.30009C21.9221 9.32572 21.9321 9.35134 21.9423 9.37774C21.99 9.52485 21.9894 9.65719 21.9896 9.83069C21.9897 9.88252 21.9898 9.93434 21.9899 9.98774C21.9899 10.045 21.9899 10.1022 21.99 10.1611C21.99 10.2223 21.9901 10.2835 21.9902 10.3447C21.9905 10.5132 21.9906 10.6817 21.9907 10.8502C21.9908 11.0318 21.991 11.2134 21.9912 11.395C21.9917 11.8337 21.992 12.2724 21.9923 12.7112C21.9924 12.835 21.9925 12.9589 21.9925 13.0828C21.993 13.852 21.9935 14.6212 21.9937 15.3903C21.9938 15.5685 21.9939 15.7467 21.9939 15.9249C21.9939 15.9692 21.994 16.0135 21.994 16.0591C21.9942 16.7767 21.9949 17.4942 21.9957 18.2118C21.9966 18.9483 21.9971 19.6848 21.9972 20.4213C21.9973 20.835 21.9975 21.2485 21.9982 21.6622C21.9987 22.0144 21.999 22.3666 21.9987 22.7188C21.9986 22.8985 21.9987 23.0782 21.9992 23.2579C21.9996 23.4225 21.9996 23.5871 21.9992 23.7517C21.9992 23.8393 21.9996 23.9268 22 24.0144C21.9987 24.3284 21.9865 24.5586 21.8856 24.7966C21.7657 25.0039 21.6533 24.9961 21.5036 24.9942C21.4798 24.9946 21.4559 24.995 21.4313 24.9953C21.3662 24.9962 21.3011 24.9962 21.2361 24.9958C21.1816 24.9956 21.1271 24.9959 21.0726 24.9962C20.944 24.997 20.8154 24.9968 20.6867 24.9961C20.5544 24.9953 20.422 24.996 20.2896 24.9974C20.1757 24.9986 20.0617 24.9989 19.9478 24.9985C19.8798 24.9983 19.8119 24.9985 19.744 24.9993C19.6682 25.0001 19.5924 24.9994 19.5166 24.9985C19.4944 24.999 19.4721 24.9995 19.4491 25C19.312 24.9964 19.2166 24.9505 19.1118 24.753C19.0269 24.5233 19.0081 24.3554 19.0078 24.068C19.0077 24.0169 19.0077 23.9657 19.0076 23.9131C19.0076 23.8569 19.0076 23.8006 19.0076 23.7427C19.0075 23.6824 19.0074 23.6222 19.0073 23.5619C19.0071 23.396 19.0071 23.2302 19.007 23.0643C19.0069 22.8855 19.0067 22.7067 19.0066 22.528C19.0062 22.0961 19.006 21.6642 19.0058 21.2324C19.0057 21.029 19.0056 20.8256 19.0055 20.6222C19.0051 19.9462 19.0048 19.2702 19.0047 18.5941C19.0047 18.4187 19.0046 18.2433 19.0046 18.0678C19.0046 18.0242 19.0046 17.9806 19.0045 17.9357C19.0044 17.2293 19.0039 16.5229 19.0032 15.8165C19.0025 15.0913 19.0022 14.3661 19.0021 13.6408C19.0021 13.2336 19.0019 12.8264 19.0014 12.4192C19.0009 12.0725 19.0008 11.7257 19.001 11.379C19.0011 11.2021 19.001 11.0252 19.0006 10.8483C19.0003 10.6862 19.0003 10.5242 19.0006 10.3621C19.0007 10.276 19.0003 10.1899 19 10.1038C19.001 9.79989 19.0104 9.53574 19.0915 9.2783C19.1818 9.09426 19.2693 9.01154 19.3927 9.01063Z" fill="#D9D9D9"/>
<path d="M7.37371 12.02C7.39421 12.0196 7.4147 12.0192 7.43582 12.0189C7.4583 12.0187 7.48077 12.0185 7.50393 12.0183C7.52761 12.018 7.55129 12.0177 7.5757 12.0173C7.65426 12.0163 7.73282 12.0156 7.81138 12.015C7.83847 12.0148 7.86556 12.0145 7.89265 12.0143C8.00537 12.0134 8.1181 12.0126 8.23082 12.0122C8.39213 12.0115 8.55343 12.0101 8.71474 12.0077C8.82828 12.0061 8.94182 12.0053 9.05537 12.0051C9.12313 12.0049 9.19086 12.0043 9.25861 12.0031C9.3343 12.0018 9.40997 12.0018 9.48566 12.0021C9.51906 12.001 9.51906 12.001 9.55314 12C9.69049 12.0023 9.78563 12.0458 9.89064 12.2345C9.97023 12.4398 9.99453 12.5956 9.99472 12.8531C9.9948 12.8939 9.99487 12.9348 9.99495 12.9769C9.99494 13.0217 9.99492 13.0665 9.9949 13.1127C9.99496 13.1604 9.99502 13.208 9.99508 13.2572C9.99523 13.3895 9.99528 13.5219 9.9953 13.6542C9.99534 13.797 9.99549 13.9397 9.99562 14.0825C9.9959 14.3946 9.99602 14.7067 9.99611 15.0189C9.99617 15.2138 9.99625 15.4087 9.99635 15.6036C9.99659 16.1434 9.9968 16.6831 9.99687 17.2229C9.99688 17.2747 9.99688 17.2747 9.99688 17.3276C9.99689 17.3622 9.99689 17.3968 9.9969 17.4325C9.99691 17.5026 9.99691 17.5728 9.99692 17.643C9.99693 17.6952 9.99693 17.6952 9.99694 17.7484C9.99702 18.3123 9.99737 18.8762 9.99784 19.44C9.99833 20.019 9.99858 20.598 9.9986 21.177C9.99862 21.5021 9.99874 21.8271 9.9991 22.1522C9.99942 22.429 9.99952 22.7058 9.99935 22.9826C9.99927 23.1238 9.99933 23.265 9.99958 23.4061C9.99983 23.5593 9.99972 23.7125 9.9995 23.8657C9.99975 23.9324 9.99975 23.9324 10 24.0003C9.99914 24.2651 9.99487 24.5379 9.9032 24.7451C9.81467 24.9032 9.74262 24.9833 9.62579 24.9846C9.60509 24.985 9.5844 24.9854 9.56307 24.9858C9.54048 24.9859 9.51789 24.9859 9.49462 24.9859C9.47073 24.9863 9.44685 24.9866 9.42224 24.987C9.35678 24.9878 9.29132 24.9883 9.22586 24.9885C9.18492 24.9886 9.14397 24.9889 9.10302 24.9892C8.96002 24.9902 8.81703 24.9907 8.67402 24.9909C8.54098 24.991 8.40795 24.9923 8.27491 24.994C8.1605 24.9955 8.04609 24.9961 7.93169 24.9961C7.86344 24.9962 7.7952 24.9965 7.72695 24.9977C7.65073 24.9988 7.57453 24.9986 7.49831 24.9981C7.46467 24.9991 7.46467 24.9991 7.43035 25C7.31164 24.9977 7.22717 24.9708 7.12661 24.8381C7.00251 24.5776 6.99899 24.337 7.00049 23.9883C7.00038 23.9396 7.00027 23.8909 7.00015 23.8407C6.99992 23.7061 7.00006 23.5715 7.00035 23.4369C7.00057 23.2915 7.00033 23.1461 7.00015 23.0008C6.99987 22.7162 7.00002 22.4316 7.00032 22.147C7.00067 21.8156 7.0006 21.4841 7.00053 21.1527C7.00041 20.5613 7.00069 19.9699 7.00119 19.3785C7.00168 18.8048 7.00182 18.231 7.00161 17.6572C7.00138 17.0322 7.00134 16.4073 7.00163 15.7823C7.00166 15.7157 7.00169 15.649 7.00172 15.5824C7.00174 15.5496 7.00176 15.5168 7.00177 15.483C7.00187 15.252 7.00183 15.021 7.00174 14.79C7.00164 14.5085 7.00177 14.227 7.00217 13.9455C7.00237 13.8019 7.00247 13.6583 7.00231 13.5146C7.00219 13.359 7.00244 13.2033 7.00279 13.0476C7.00267 13.0022 7.00255 12.9568 7.00242 12.91C7.00352 12.642 7.01409 12.4455 7.10636 12.2402C7.11828 12.2203 7.1302 12.2004 7.14249 12.1799C7.15441 12.1594 7.16633 12.139 7.17861 12.1179C7.24224 12.0268 7.29863 12.0209 7.37371 12.02Z" fill="#D9D9D9"/>
</svg>
