<svg width="30" height="42" viewBox="0 0 30 42" fill="none" xmlns="http://www.w3.org/2000/svg">
<path d="M6.80017 0.01082C6.99856 0.0103056 7.19696 0.00967799 7.39536 0.00894662C7.93136 0.00733735 8.46735 0.00743556 9.00336 0.00795059C9.45214 0.00822999 9.90092 0.0076793 10.3497 0.00713641C11.4696 0.00580127 12.5895 0.00612303 13.7094 0.00721417C14.6788 0.00810825 15.6482 0.00694366 16.6175 0.00478804C17.6163 0.002584 18.6151 0.00176316 19.6139 0.0023247C20.1732 0.00262719 20.7326 0.00241754 21.2919 0.000860869C21.8183 -0.000540155 22.3446 -0.000167845 22.871 0.00151889C23.0631 0.00184882 23.2553 0.00157704 23.4474 0.000628414C25.3149 -0.00788091 26.9039 0.218469 28.3123 1.56022C28.4109 1.65845 28.4109 1.65845 28.5114 1.75867C28.5623 1.80743 28.6131 1.8562 28.6655 1.90645C29.8095 3.10482 29.9946 4.75391 29.9876 6.33063C29.988 6.46947 29.9884 6.60831 29.989 6.74715C29.9903 7.12512 29.99 7.50308 29.9893 7.88105C29.9889 8.29005 29.99 8.69905 29.9909 9.10805C29.9925 9.90786 29.9925 10.7077 29.9921 11.5075C29.9917 12.1577 29.9918 12.808 29.9923 13.4583C29.9924 13.5511 29.9925 13.6438 29.9925 13.7393C29.9927 13.9278 29.9928 14.1162 29.9929 14.3046C29.9942 16.0692 29.9937 17.8338 29.9927 19.5983C29.9918 21.2112 29.9929 22.8241 29.9951 24.437C29.9973 26.0953 29.9981 27.7535 29.9975 29.4118C29.9972 30.342 29.9974 31.2721 29.999 32.2022C30.0003 32.9938 30.0004 33.7854 29.9988 34.577C29.9981 34.9805 29.9979 35.384 29.9992 35.7875C30.0005 36.1575 30.0001 36.5274 29.9983 36.8974C29.998 37.0306 29.9982 37.1639 29.9992 37.2971C30.0072 38.5113 29.8403 39.599 28.9618 40.4915C28.2938 41.149 27.4678 41.4801 26.5298 41.5273C25.6393 41.4838 24.8455 41.1759 24.1878 40.5815C24.1188 40.52 24.0498 40.4585 23.9788 40.3951C23.8264 40.258 23.6747 40.1203 23.5235 39.982C23.2907 39.7741 23.0519 39.5777 22.8085 39.3824C22.3748 39.0319 21.9675 38.6602 21.5608 38.2794C21.2593 37.9986 20.9513 37.7319 20.6298 37.4739C20.2009 37.1298 19.7999 36.7633 19.399 36.3877C19.0975 36.1069 18.7895 35.8403 18.4679 35.5823C18.0926 35.2812 17.7379 34.9652 17.387 34.6365C16.949 34.2265 16.4998 33.8378 16.0299 33.4641C15.8328 33.3034 15.6511 33.1343 15.4673 32.9588C15.2063 32.7205 15.2063 32.7205 14.9296 32.7428C14.5365 32.8678 14.3243 33.0874 14.0373 33.3754C13.9256 33.4835 13.8137 33.5912 13.7016 33.6988C13.6468 33.7516 13.592 33.8044 13.5355 33.8589C13.3249 34.0563 13.1033 34.2372 12.8776 34.417C12.5039 34.716 12.1513 35.0302 11.8023 35.3571C11.3754 35.7569 10.9356 36.131 10.4793 36.4972C10.1901 36.7382 9.91516 36.9914 9.64045 37.2487C9.21361 37.6485 8.77381 38.0226 8.31746 38.3888C8.02822 38.6298 7.75334 38.883 7.47862 39.1403C7.0377 39.553 6.58648 39.9429 6.11481 40.3205C5.94385 40.458 5.77922 40.5993 5.61517 40.7448C4.85755 41.3341 3.97502 41.5886 3.01985 41.4823C1.96634 41.2683 1.18077 40.8013 0.552995 39.9212C0.0274769 39.0521 -0.00482217 38.0895 0.00218135 37.1019C0.00182995 36.9632 0.00132143 36.8245 0.000670821 36.6858C-0.000649349 36.3078 0.000253394 35.9299 0.00154772 35.5518C0.0025532 35.143 0.00147115 34.7341 0.0006612 34.3252C-0.000590775 33.5254 8.4552e-05 32.7256 0.00144258 31.9258C0.00296517 30.9935 0.00267203 30.0611 0.00233529 29.1287C0.00180631 27.4644 0.00307978 25.8002 0.00530273 24.1359C0.00745695 22.5229 0.00809553 20.9099 0.00715 19.297C0.00612101 17.5385 0.00595012 15.78 0.00724896 14.0215C0.0073864 13.8337 0.00752347 13.646 0.00765992 13.4583C0.00772819 13.366 0.00779645 13.2736 0.00786678 13.1785C0.00829302 12.5294 0.00812757 11.8803 0.00774377 11.2312C0.00729881 10.4395 0.00784452 9.64782 0.00962608 8.85614C0.0105119 8.45262 0.0109792 8.04911 0.0102666 7.6456C0.00962634 7.27548 0.0102542 6.9054 0.011852 6.53529C0.0122134 6.40213 0.0121314 6.26896 0.0115352 6.1358C0.00457224 4.43371 0.340036 2.93428 1.55716 1.68442C1.62369 1.61975 1.69023 1.55507 1.75878 1.48844C1.84325 1.40118 1.84325 1.40118 1.92943 1.31215C3.25874 0.0276222 5.07302 0.0067603 6.80017 0.01082ZM3.59936 3.8364C3.17545 4.40817 3.00889 4.94377 3.00776 5.6511C3.00735 5.76674 3.00695 5.88239 3.00654 6.00155C3.00655 6.13017 3.00656 6.25878 3.00659 6.3874C3.00629 6.52381 3.00596 6.66022 3.00558 6.79664C3.00468 7.17204 3.00435 7.54744 3.00411 7.92285C3.00376 8.32749 3.00289 8.73213 3.00211 9.13677C3.00033 10.114 2.99942 11.0912 2.99862 12.0685C2.99822 12.5284 2.99774 12.9883 2.99727 13.4483C2.99574 14.9765 2.99443 16.5048 2.99378 18.0331C2.99361 18.4297 2.99343 18.8262 2.99326 19.2228C2.99321 19.3213 2.99317 19.4199 2.99313 19.5215C2.99238 21.1198 2.99009 22.7182 2.98717 24.3165C2.9842 25.9565 2.98257 27.5965 2.98228 29.2365C2.98209 30.1578 2.98129 31.079 2.979 32.0002C2.97705 32.7843 2.97631 33.5685 2.97719 34.3526C2.9776 34.7529 2.97742 35.1532 2.97568 35.5535C2.9741 35.9197 2.97418 36.2858 2.97558 36.6519C2.9758 36.7847 2.9754 36.9174 2.97434 37.0502C2.97299 37.2301 2.97406 37.41 2.97526 37.5899C2.97517 37.69 2.97508 37.7901 2.97499 37.8932C3.02968 38.2057 3.13858 38.3121 3.38015 38.5098C3.74388 38.387 3.96958 38.2269 4.24713 37.9637C4.55985 37.6736 4.87675 37.397 5.20983 37.1305C5.64347 36.78 6.05084 36.4083 6.45746 36.0275C6.83484 35.676 7.22835 35.3505 7.63063 35.0278C7.91986 34.7868 8.19475 34.5335 8.46946 34.2762C8.8963 33.8764 9.3361 33.5023 9.79246 33.1362C10.0817 32.8951 10.3566 32.6419 10.6313 32.3846C11.0659 31.9777 11.5124 31.5938 11.9779 31.2221C12.2003 31.0395 12.4089 30.8475 12.6186 30.6506C13.4937 29.8621 14.4041 29.7041 15.542 29.757C16.7231 29.8585 17.5298 30.7708 18.3529 31.5292C18.5919 31.744 18.8366 31.947 19.0872 32.1482C19.5192 32.4965 19.9245 32.8665 20.3292 33.2456C20.6307 33.5264 20.9387 33.793 21.2603 34.051C21.6892 34.3951 22.0901 34.7617 22.4911 35.1372C22.7926 35.418 23.1006 35.6846 23.4221 35.9426C23.7974 36.2437 24.1521 36.5598 24.503 36.8884C25.0103 37.3631 25.533 37.8099 26.0794 38.2396C26.1748 38.3193 26.1748 38.3193 26.2722 38.4007C26.3551 38.4547 26.3551 38.4547 26.4397 38.5098C26.6842 38.4585 26.6842 38.4585 26.8901 38.3296C27.0131 38.0835 26.9917 37.889 26.992 37.6133C26.9923 37.4983 26.9927 37.3833 26.993 37.2648C26.993 37.1359 26.9929 37.0071 26.9928 36.8783C26.993 36.7423 26.9933 36.6064 26.9936 36.4705C26.9943 36.0955 26.9945 35.7206 26.9946 35.3456C26.9947 34.9418 26.9954 34.5379 26.996 34.1341C26.9972 33.2502 26.9978 32.3664 26.9982 31.4825C26.9984 30.9308 26.9988 30.3791 26.9992 29.8273C27.0003 28.3002 27.0012 26.7731 27.0015 25.246C27.0016 25.1482 27.0016 25.0504 27.0016 24.9496C27.0016 24.8516 27.0016 24.7536 27.0017 24.6525C27.0017 24.4539 27.0017 24.2552 27.0018 24.0565C27.0018 23.958 27.0018 23.8594 27.0018 23.7579C27.0022 22.1616 27.0038 20.5653 27.0059 18.969C27.008 17.3307 27.0091 15.6924 27.0092 14.0541C27.0093 13.1341 27.0098 12.214 27.0115 11.2939C27.0128 10.5103 27.0133 9.72663 27.0126 8.94298C27.0122 8.54318 27.0123 8.14338 27.0136 7.74358C27.0147 7.37734 27.0146 7.01113 27.0135 6.64489C27.0133 6.51262 27.0136 6.38034 27.0144 6.24807C27.0196 5.32118 26.9897 4.52125 26.3496 3.80227C26.2883 3.73016 26.227 3.65806 26.1638 3.58377C25.2315 2.86596 24.108 2.96838 22.9925 2.97311C22.7987 2.97262 22.6049 2.97198 22.4112 2.9712C21.8871 2.96956 21.363 2.97019 20.839 2.97134C20.2893 2.97225 19.7397 2.9714 19.19 2.97084C18.2671 2.97018 17.3443 2.97104 16.4214 2.97276C15.356 2.97472 14.2905 2.97409 13.2251 2.9721C12.3087 2.97046 11.3923 2.97024 10.4759 2.97118C9.92928 2.97174 9.38268 2.97182 8.83606 2.97063C8.32206 2.96958 7.80808 2.97031 7.29408 2.97239C7.10596 2.97286 6.91783 2.97273 6.72971 2.97193C5.00543 2.93892 5.00543 2.93892 3.59936 3.8364Z" fill="#AFAFAF"/>
<rect x="6" y="9" width="18" height="3" rx="1.5" fill="#AFAFAF"/>
</svg>
