<svg width="39" height="39" viewBox="0 0 39 39" fill="none" xmlns="http://www.w3.org/2000/svg">
<path d="M30.4563 29.0377C30.5208 29.0369 30.5852 29.036 30.6516 29.0351C30.7216 29.0349 30.7916 29.0347 30.8638 29.0345C30.9381 29.0338 31.0124 29.033 31.0889 29.0322C31.3347 29.0299 31.5805 29.0289 31.8263 29.028C31.9974 29.0271 32.1685 29.0263 32.3396 29.0254C32.6986 29.0237 33.0575 29.0228 33.4165 29.0223C33.8755 29.0215 34.3344 29.0177 34.7933 29.0133C35.1469 29.0104 35.5005 29.0096 35.8541 29.0094C36.0233 29.0089 36.1924 29.0077 36.3615 29.0057C36.5988 29.003 36.8359 29.0033 37.0732 29.0043C37.1424 29.0029 37.2117 29.0015 37.283 29C37.8117 29.007 38.1609 29.1666 38.5517 29.5236C38.9363 29.9504 38.9946 30.3523 38.9892 30.9117C38.99 30.9861 38.9908 31.0605 38.9917 31.1372C38.9938 31.3817 38.993 31.626 38.9921 31.8705C38.9925 32.0413 38.9931 32.2122 38.9937 32.3831C38.9946 32.7406 38.9941 33.0982 38.9926 33.4557C38.9909 33.9128 38.9929 34.3698 38.9961 34.8269C38.9981 35.1796 38.9979 35.5323 38.9971 35.885C38.9969 36.0535 38.9975 36.222 38.9989 36.3905C39.0004 36.6265 38.999 36.8624 38.9968 37.0984C38.9984 37.2017 38.9984 37.2017 39 37.3071C38.9904 37.8327 38.8156 38.1764 38.4745 38.5739C38.1729 38.8371 37.8685 38.9696 37.468 38.972C37.4049 38.9726 37.3417 38.9731 37.2767 38.9737C37.2077 38.9739 37.1387 38.9741 37.0676 38.9743C36.9947 38.9748 36.9218 38.9754 36.8467 38.9759C36.6052 38.9774 36.3636 38.9783 36.122 38.9791C35.9982 38.9795 35.9982 38.9795 35.8719 38.98C35.4348 38.9816 34.9978 38.9828 34.5608 38.9835C34.1099 38.9843 33.659 38.987 33.2081 38.9901C32.861 38.9921 32.5139 38.9927 32.1668 38.993C32.0006 38.9934 31.8344 38.9943 31.6682 38.9957C31.4352 38.9976 31.2023 38.9975 30.9693 38.997C30.867 38.9985 30.867 38.9985 30.7626 39C30.237 38.9956 29.811 38.8703 29.4307 38.4938C29.378 38.4162 29.378 38.4162 29.3242 38.337C29.2693 38.2591 29.2693 38.2591 29.2134 38.1796C29.0752 37.9463 29.0391 37.7514 29.037 37.4859C29.0364 37.422 29.0357 37.3582 29.035 37.2924C29.0347 37.2226 29.0344 37.1528 29.034 37.0808C29.0334 37.0071 29.0328 36.9334 29.0321 36.8574C29.0302 36.613 29.0289 36.3687 29.0278 36.1243C29.0272 35.999 29.0272 35.999 29.0265 35.8712C29.0245 35.4292 29.023 34.9871 29.0219 34.545C29.0206 34.0889 29.0171 33.6328 29.0132 33.1766C29.0106 32.8255 29.0097 32.4744 29.0093 32.1233C29.0087 31.9552 29.0076 31.7871 29.0057 31.619C29.0033 31.3833 29.0033 31.1477 29.0038 30.912C29.0026 30.8429 29.0013 30.7739 29 30.7028C29.0048 30.2178 29.1296 29.901 29.4352 29.5236C29.7454 29.2357 30.0271 29.0413 30.4563 29.0377Z" fill="black"/>
<path d="M15.602 29.0377C15.6728 29.0369 15.7437 29.036 15.8167 29.0351C15.8938 29.0349 15.9708 29.0347 16.0502 29.0345C16.1319 29.0338 16.2136 29.033 16.2978 29.0322C16.5682 29.0299 16.8385 29.0289 17.1089 29.028C17.2972 29.0271 17.4854 29.0263 17.6736 29.0254C18.0685 29.0237 18.4633 29.0228 18.8582 29.0223C19.363 29.0215 19.8678 29.0177 20.3727 29.0133C20.7616 29.0104 21.1506 29.0096 21.5396 29.0094C21.7256 29.0089 21.9117 29.0077 22.0977 29.0057C22.3587 29.003 22.6195 29.0033 22.8805 29.0043C22.9567 29.0029 23.0329 29.0015 23.1113 29C23.6928 29.007 24.077 29.1666 24.5069 29.5236C24.9299 29.9504 24.9941 30.3523 24.9882 30.9117C24.989 30.9861 24.9899 31.0605 24.9908 31.1372C24.9931 31.3817 24.9923 31.626 24.9913 31.8705C24.9918 32.0413 24.9924 32.2122 24.9931 32.3831C24.9941 32.7406 24.9935 33.0982 24.9919 33.4557C24.99 33.9128 24.9922 34.3698 24.9957 34.8269C24.9979 35.1796 24.9977 35.5323 24.9968 35.885C24.9966 36.0535 24.9973 36.222 24.9987 36.3905C25.0004 36.6265 24.9989 36.8624 24.9965 37.0984C24.9982 37.2017 24.9982 37.2017 25 37.3071C24.9894 37.8327 24.7971 38.1764 24.4219 38.5739C24.0902 38.8371 23.7554 38.9696 23.3148 38.972C23.2454 38.9726 23.1759 38.9731 23.1044 38.9737C23.0285 38.9739 22.9526 38.9741 22.8744 38.9743C22.7942 38.9748 22.714 38.9754 22.6314 38.9759C22.3657 38.9774 22.1 38.9783 21.8342 38.9791C21.698 38.9795 21.698 38.9795 21.5591 38.98C21.0783 38.9816 20.5976 38.9828 20.1169 38.9835C19.6209 38.9843 19.1249 38.987 18.6289 38.9901C18.2471 38.9921 17.8653 38.9927 17.4835 38.993C17.3007 38.9934 17.1179 38.9943 16.9351 38.9957C16.6788 38.9976 16.4226 38.9975 16.1662 38.997C16.0537 38.9985 16.0537 38.9985 15.9389 39C15.3607 38.9956 14.8922 38.8703 14.4738 38.4938C14.4157 38.4162 14.4157 38.4162 14.3566 38.337C14.2963 38.2591 14.2963 38.2591 14.2347 38.1796C14.0827 37.9463 14.043 37.7514 14.0407 37.4859C14.04 37.422 14.0393 37.3582 14.0385 37.2924C14.0382 37.2226 14.0378 37.1528 14.0374 37.0808C14.0367 37.0071 14.036 36.9334 14.0353 36.8574C14.0332 36.613 14.0318 36.3687 14.0306 36.1243C14.0299 35.999 14.0299 35.999 14.0292 35.8712C14.0269 35.4292 14.0253 34.9871 14.0241 34.545C14.0226 34.0889 14.0188 33.6328 14.0145 33.1766C14.0116 32.8255 14.0107 32.4744 14.0102 32.1233C14.0096 31.9552 14.0083 31.7871 14.0063 31.619C14.0036 31.3833 14.0036 31.1477 14.0042 30.912C14.0028 30.8429 14.0014 30.7739 14 30.7028C14.0053 30.2178 14.1425 29.901 14.4787 29.5236C14.8199 29.2357 15.1298 29.0413 15.602 29.0377Z" fill="black"/>
<path d="M1.45633 29.0377C1.52076 29.0369 1.58518 29.036 1.65156 29.0351C1.7216 29.0349 1.79164 29.0347 1.8638 29.0345C1.93809 29.0338 2.01237 29.033 2.0889 29.0322C2.33471 29.0299 2.5805 29.0289 2.82631 29.028C2.99742 29.0271 3.16853 29.0263 3.33964 29.0254C3.69859 29.0237 4.05755 29.0228 4.41651 29.0223C4.87548 29.0215 5.33438 29.0177 5.79333 29.0133C6.14694 29.0104 6.50053 29.0096 6.85415 29.0094C7.02328 29.0089 7.19242 29.0077 7.36154 29.0057C7.5988 29.003 7.8359 29.0033 8.07317 29.0043C8.14242 29.0029 8.21168 29.0015 8.28304 29C8.81166 29.007 9.16088 29.1666 9.55174 29.5236C9.93625 29.9504 9.9946 30.3523 9.98924 30.9117C9.99004 30.9861 9.99085 31.0605 9.99167 31.1372C9.99375 31.3817 9.99302 31.626 9.99205 31.8705C9.99251 32.0413 9.99307 32.2122 9.99373 32.3831C9.99465 32.7406 9.99413 33.0982 9.99264 33.4557C9.99087 33.9128 9.99294 34.3698 9.99612 34.8269C9.9981 35.1796 9.9979 35.5323 9.99706 35.885C9.99694 36.0535 9.99753 36.222 9.99885 36.3905C10.0004 36.6265 9.99897 36.8624 9.99679 37.0984C9.99838 37.2017 9.99838 37.2017 10 37.3071C9.99036 37.8327 9.81556 38.1764 9.47448 38.5739C9.17294 38.8371 8.8685 38.9696 8.468 38.972C8.40487 38.9726 8.34174 38.9731 8.27669 38.9737C8.2077 38.9739 8.13871 38.9741 8.06762 38.9743C7.99473 38.9748 7.92184 38.9754 7.84675 38.9759C7.60517 38.9774 7.3636 38.9783 7.12201 38.9791C6.99819 38.9795 6.99819 38.9795 6.87187 38.98C6.43484 38.9816 5.99782 38.9828 5.56079 38.9835C5.10988 38.9843 4.659 38.987 4.2081 38.9901C3.86099 38.9921 3.51389 38.9927 3.16678 38.993C3.0006 38.9934 2.83442 38.9943 2.66825 38.9957C2.43525 38.9976 2.20232 38.9975 1.96932 38.997C1.867 38.9985 1.867 38.9985 1.76261 39C1.23704 38.9956 0.811048 38.8703 0.430687 38.4938C0.377954 38.4162 0.377954 38.4162 0.324155 38.337C0.26933 38.2591 0.26933 38.2591 0.213397 38.1796C0.0751578 37.9463 0.039092 37.7514 0.0370308 37.4859C0.0363663 37.422 0.0357019 37.3582 0.0350173 37.2924C0.0346882 37.2226 0.034359 37.1528 0.0340199 37.0808C0.0333882 37.0071 0.0327564 36.9334 0.0321055 36.8574C0.0301861 36.613 0.0289094 36.3687 0.0277955 36.1243C0.0271785 35.999 0.0271785 35.999 0.0265491 35.8712C0.0244841 35.4292 0.0229873 34.9871 0.0218728 34.545C0.0205875 34.0889 0.0171286 33.6328 0.0131912 33.1766C0.0105882 32.8255 0.00969843 32.4744 0.00926212 32.1233C0.00874384 31.9552 0.00756865 31.7871 0.00571665 31.619C0.00326823 31.3833 0.00326896 31.1477 0.00384077 30.912C0.00257332 30.8429 0.00130586 30.7739 0 30.7028C0.00479892 30.2178 0.129579 29.901 0.435214 29.5236C0.7454 29.2357 1.02713 29.0413 1.45633 29.0377Z" fill="black"/>
<path d="M30.4563 14.0415C30.5208 14.0405 30.5852 14.0396 30.6516 14.0386C30.7216 14.0384 30.7916 14.0382 30.8638 14.038C30.9381 14.0371 31.0124 14.0363 31.0889 14.0354C31.3347 14.0329 31.5805 14.0318 31.8263 14.0308C31.9974 14.0299 32.1685 14.0289 32.3396 14.0279C32.6986 14.0261 33.0575 14.0251 33.4165 14.0245C33.8755 14.0236 34.3344 14.0195 34.7933 14.0147C35.1469 14.0115 35.5005 14.0106 35.8541 14.0103C36.0233 14.0098 36.1924 14.0085 36.3615 14.0062C36.5988 14.0033 36.8359 14.0037 37.0732 14.0048C37.1424 14.0032 37.2117 14.0016 37.283 14C37.8117 14.0076 38.1609 14.1833 38.5517 14.5759C38.9363 15.0455 38.9946 15.4875 38.9892 16.1029C38.99 16.1847 38.9908 16.2666 38.9917 16.3509C38.9938 16.6198 38.993 16.8886 38.9921 17.1575C38.9925 17.3455 38.9931 17.5334 38.9937 17.7214C38.9946 18.1147 38.9941 18.508 38.9926 18.9013C38.9909 19.4041 38.9929 19.9068 38.9961 20.4096C38.9981 20.7976 38.9979 21.1856 38.9971 21.5735C38.9969 21.7589 38.9975 21.9442 38.9989 22.1295C39.0004 22.3892 38.999 22.6486 38.9968 22.9083C38.9984 23.0219 38.9984 23.0219 39 23.1378C38.9904 23.7159 38.8156 24.0941 38.4745 24.5313C38.1729 24.8208 37.8685 24.9666 37.468 24.9692C37.4049 24.9698 37.3417 24.9704 37.2767 24.9711C37.2077 24.9713 37.1387 24.9715 37.0676 24.9718C36.9947 24.9723 36.9218 24.9729 36.8467 24.9735C36.6052 24.9751 36.3636 24.9761 36.122 24.977C35.9982 24.9775 35.9982 24.9775 35.8719 24.978C35.4348 24.9798 34.9978 24.981 34.5608 24.9818C34.1099 24.9828 33.659 24.9857 33.2081 24.9891C32.861 24.9913 32.5139 24.992 32.1668 24.9923C32.0006 24.9927 31.8344 24.9937 31.6682 24.9953C31.4352 24.9974 31.2023 24.9973 30.9693 24.9967C30.867 24.9983 30.867 24.9983 30.7626 25C30.237 24.9952 29.811 24.8573 29.4307 24.4432C29.378 24.3578 29.378 24.3578 29.3242 24.2707C29.2693 24.185 29.2693 24.185 29.2134 24.0975C29.0752 23.841 29.0391 23.6265 29.037 23.3345C29.0364 23.2642 29.0357 23.194 29.035 23.1216C29.0347 23.0448 29.0344 22.968 29.034 22.8889C29.0334 22.8078 29.0328 22.7267 29.0321 22.6432C29.0302 22.3743 29.0289 22.1055 29.0278 21.8367C29.0272 21.6989 29.0272 21.6989 29.0265 21.5584C29.0245 21.0721 29.023 20.5858 29.0219 20.0995C29.0206 19.5977 29.0171 19.096 29.0132 18.5943C29.0106 18.2081 29.0097 17.8218 29.0093 17.4356C29.0087 17.2507 29.0076 17.0658 29.0057 16.8809C29.0033 16.6216 29.0033 16.3624 29.0038 16.1031C29.0026 16.0272 29.0013 15.9513 29 15.8731C29.0048 15.3396 29.1296 14.9911 29.4352 14.5759C29.7454 14.2593 30.0271 14.0454 30.4563 14.0415Z" fill="black"/>
<path d="M15.602 14.0415C15.6728 14.0405 15.7437 14.0396 15.8167 14.0386C15.8938 14.0384 15.9708 14.0382 16.0502 14.038C16.1319 14.0371 16.2136 14.0363 16.2978 14.0354C16.5682 14.0329 16.8385 14.0318 17.1089 14.0308C17.2972 14.0299 17.4854 14.0289 17.6736 14.0279C18.0685 14.0261 18.4633 14.0251 18.8582 14.0245C19.363 14.0236 19.8678 14.0195 20.3727 14.0147C20.7616 14.0115 21.1506 14.0106 21.5396 14.0103C21.7256 14.0098 21.9117 14.0085 22.0977 14.0062C22.3587 14.0033 22.6195 14.0037 22.8805 14.0048C22.9567 14.0032 23.0329 14.0016 23.1113 14C23.6928 14.0076 24.077 14.1833 24.5069 14.5759C24.9299 15.0455 24.9941 15.4875 24.9882 16.1029C24.989 16.1847 24.9899 16.2666 24.9908 16.3509C24.9931 16.6198 24.9923 16.8886 24.9913 17.1575C24.9918 17.3455 24.9924 17.5334 24.9931 17.7214C24.9941 18.1147 24.9935 18.508 24.9919 18.9013C24.99 19.4041 24.9922 19.9068 24.9957 20.4096C24.9979 20.7976 24.9977 21.1856 24.9968 21.5735C24.9966 21.7589 24.9973 21.9442 24.9987 22.1295C25.0004 22.3892 24.9989 22.6486 24.9965 22.9083C24.9982 23.0219 24.9982 23.0219 25 23.1378C24.9894 23.7159 24.7971 24.0941 24.4219 24.5313C24.0902 24.8208 23.7554 24.9666 23.3148 24.9692C23.2454 24.9698 23.1759 24.9704 23.1044 24.9711C23.0285 24.9713 22.9526 24.9715 22.8744 24.9718C22.7942 24.9723 22.714 24.9729 22.6314 24.9735C22.3657 24.9751 22.1 24.9761 21.8342 24.977C21.698 24.9775 21.698 24.9775 21.5591 24.978C21.0783 24.9798 20.5976 24.981 20.1169 24.9818C19.6209 24.9828 19.1249 24.9857 18.6289 24.9891C18.2471 24.9913 17.8653 24.992 17.4835 24.9923C17.3007 24.9927 17.1179 24.9937 16.9351 24.9953C16.6788 24.9974 16.4226 24.9973 16.1662 24.9967C16.0537 24.9983 16.0537 24.9983 15.9389 25C15.3607 24.9952 14.8922 24.8573 14.4738 24.4432C14.4157 24.3578 14.4157 24.3578 14.3566 24.2707C14.2963 24.185 14.2963 24.185 14.2347 24.0975C14.0827 23.841 14.043 23.6265 14.0407 23.3345C14.04 23.2642 14.0393 23.194 14.0385 23.1216C14.0382 23.0448 14.0378 22.968 14.0374 22.8889C14.0367 22.8078 14.036 22.7267 14.0353 22.6432C14.0332 22.3743 14.0318 22.1055 14.0306 21.8367C14.0299 21.6989 14.0299 21.6989 14.0292 21.5584C14.0269 21.0721 14.0253 20.5858 14.0241 20.0995C14.0226 19.5977 14.0188 19.096 14.0145 18.5943C14.0116 18.2081 14.0107 17.8218 14.0102 17.4356C14.0096 17.2507 14.0083 17.0658 14.0063 16.8809C14.0036 16.6216 14.0036 16.3624 14.0042 16.1031C14.0028 16.0272 14.0014 15.9513 14 15.8731C14.0053 15.3396 14.1425 14.9911 14.4787 14.5759C14.8199 14.2593 15.1298 14.0454 15.602 14.0415Z" fill="black"/>
<path d="M1.45633 14.0415C1.52076 14.0405 1.58518 14.0396 1.65156 14.0386C1.7216 14.0384 1.79164 14.0382 1.8638 14.038C1.93809 14.0371 2.01237 14.0363 2.0889 14.0354C2.33471 14.0329 2.5805 14.0318 2.82631 14.0308C2.99742 14.0299 3.16853 14.0289 3.33964 14.0279C3.69859 14.0261 4.05755 14.0251 4.41651 14.0245C4.87548 14.0236 5.33438 14.0195 5.79333 14.0147C6.14694 14.0115 6.50053 14.0106 6.85415 14.0103C7.02328 14.0098 7.19242 14.0085 7.36154 14.0062C7.5988 14.0033 7.8359 14.0037 8.07317 14.0048C8.14242 14.0032 8.21168 14.0016 8.28304 14C8.81166 14.0076 9.16088 14.1833 9.55174 14.5759C9.93625 15.0455 9.9946 15.4875 9.98924 16.1029C9.99004 16.1847 9.99085 16.2666 9.99167 16.3509C9.99375 16.6198 9.99302 16.8886 9.99205 17.1575C9.99251 17.3455 9.99307 17.5334 9.99373 17.7214C9.99465 18.1147 9.99413 18.508 9.99264 18.9013C9.99087 19.4041 9.99294 19.9068 9.99612 20.4096C9.9981 20.7976 9.9979 21.1856 9.99706 21.5735C9.99694 21.7589 9.99753 21.9442 9.99885 22.1295C10.0004 22.3892 9.99897 22.6486 9.99679 22.9083C9.99838 23.0219 9.99838 23.0219 10 23.1378C9.99036 23.7159 9.81556 24.0941 9.47448 24.5313C9.17294 24.8208 8.8685 24.9666 8.468 24.9692C8.40487 24.9698 8.34174 24.9704 8.27669 24.9711C8.2077 24.9713 8.13871 24.9715 8.06762 24.9718C7.99473 24.9723 7.92184 24.9729 7.84675 24.9735C7.60517 24.9751 7.3636 24.9761 7.12201 24.977C6.99819 24.9775 6.99819 24.9775 6.87187 24.978C6.43484 24.9798 5.99782 24.981 5.56079 24.9818C5.10988 24.9828 4.659 24.9857 4.2081 24.9891C3.86099 24.9913 3.51389 24.992 3.16678 24.9923C3.0006 24.9927 2.83442 24.9937 2.66825 24.9953C2.43525 24.9974 2.20232 24.9973 1.96932 24.9967C1.867 24.9983 1.867 24.9983 1.76261 25C1.23704 24.9952 0.811048 24.8573 0.430687 24.4432C0.377954 24.3578 0.377954 24.3578 0.324155 24.2707C0.26933 24.185 0.26933 24.185 0.213397 24.0975C0.0751578 23.841 0.039092 23.6265 0.0370308 23.3345C0.0363663 23.2642 0.0357019 23.194 0.0350173 23.1216C0.0346882 23.0448 0.034359 22.968 0.0340199 22.8889C0.0333882 22.8078 0.0327564 22.7267 0.0321055 22.6432C0.0301861 22.3743 0.0289094 22.1055 0.0277955 21.8367C0.0271785 21.6989 0.0271785 21.6989 0.0265491 21.5584C0.0244841 21.0721 0.0229873 20.5858 0.0218728 20.0995C0.0205875 19.5977 0.0171286 19.096 0.0131912 18.5943C0.0105882 18.2081 0.00969843 17.8218 0.00926212 17.4356C0.00874384 17.2507 0.00756865 17.0658 0.00571665 16.8809C0.00326823 16.6216 0.00326896 16.3624 0.00384077 16.1031C0.00257332 16.0272 0.00130586 15.9513 0 15.8731C0.00479892 15.3396 0.129579 14.9911 0.435214 14.5759C0.7454 14.2593 1.02713 14.0454 1.45633 14.0415Z" fill="black"/>
<path d="M30.4563 0.037737C30.5208 0.0368536 30.5852 0.0359702 30.6516 0.03506C30.7216 0.0348871 30.7916 0.0347141 30.8638 0.0345359C30.9381 0.0337678 31.0124 0.0329997 31.0889 0.0322084C31.3347 0.0299486 31.5805 0.0288943 31.8263 0.0280395C31.9974 0.0271494 32.1685 0.0262586 32.3396 0.0253673C32.6986 0.0237419 33.0575 0.0228377 33.4165 0.0222985C33.8755 0.021451 34.3344 0.0177359 34.7933 0.0133299C35.1469 0.0104418 35.5005 0.00964257 35.8541 0.00940591C36.0233 0.00893889 36.1924 0.00770085 36.3615 0.00566432C36.5988 0.00301168 36.8359 0.00331883 37.0732 0.00431994C37.1424 0.00289436 37.2117 0.00146878 37.283 0C37.8117 0.00695182 38.1609 0.166625 38.5517 0.523582C38.9363 0.950433 38.9946 1.35228 38.9892 1.91169C38.99 1.9861 38.9908 2.06052 38.9917 2.1372C38.9938 2.38165 38.993 2.626 38.9921 2.87046C38.9925 3.04133 38.9931 3.21221 38.9937 3.38308C38.9946 3.74064 38.9941 4.09817 38.9926 4.45572C38.9909 4.91283 38.9929 5.36982 38.9961 5.82691C38.9981 6.17963 38.9979 6.53232 38.9971 6.88504C38.9969 7.05352 38.9975 7.222 38.9989 7.39046C39.0004 7.62651 38.999 7.86237 38.9968 8.09841C38.9984 8.2017 38.9984 8.2017 39 8.30707C38.9904 8.83265 38.8156 9.17643 38.4745 9.57388C38.1729 9.83708 37.8685 9.96961 37.468 9.97203C37.4049 9.97258 37.3417 9.97313 37.2767 9.9737C37.2077 9.97391 37.1387 9.97412 37.0676 9.97433C36.9947 9.97484 36.9218 9.97535 36.8467 9.97588C36.6052 9.9774 36.3636 9.9783 36.122 9.97908C35.9982 9.97955 35.9982 9.97955 35.8719 9.98003C35.4348 9.98164 34.9978 9.98275 34.5608 9.98348C34.1099 9.98433 33.659 9.98699 33.2081 9.99006C32.861 9.99209 32.5139 9.99273 32.1668 9.99301C32.0006 9.99339 31.8344 9.99429 31.6682 9.99572C31.4352 9.99761 31.2023 9.99753 30.9693 9.997C30.867 9.99848 30.867 9.99848 30.7626 10C30.237 9.9956 29.811 9.87029 29.4307 9.49381C29.378 9.41618 29.378 9.41618 29.3242 9.33699C29.2693 9.25906 29.2693 9.25906 29.2134 9.17956C29.0752 8.94633 29.0391 8.75139 29.037 8.48588C29.0364 8.42202 29.0357 8.35816 29.035 8.29237C29.0347 8.22257 29.0344 8.15277 29.034 8.08085C29.0334 8.00712 29.0328 7.93338 29.0321 7.85742C29.0302 7.61304 29.0289 7.36866 29.0278 7.12427C29.0272 6.99902 29.0272 6.99902 29.0265 6.87123C29.0245 6.42916 29.023 5.98709 29.0219 5.54501C29.0206 5.08886 29.0171 4.63275 29.0132 4.17662C29.0106 3.82551 29.0097 3.4744 29.0093 3.12328C29.0087 2.95517 29.0076 2.78706 29.0057 2.61896C29.0033 2.38326 29.0033 2.14767 29.0038 1.91195C29.0026 1.84293 29.0013 1.77391 29 1.70281C29.0048 1.21781 29.1296 0.900966 29.4352 0.523582C29.7454 0.235742 30.0271 0.0412776 30.4563 0.037737Z" fill="black"/>
<path d="M15.602 0.037737C15.6728 0.0368536 15.7437 0.0359702 15.8167 0.03506C15.8938 0.0348871 15.9708 0.0347141 16.0502 0.0345359C16.1319 0.0337678 16.2136 0.0329997 16.2978 0.0322084C16.5682 0.0299486 16.8385 0.0288943 17.1089 0.0280395C17.2972 0.0271494 17.4854 0.0262586 17.6736 0.0253673C18.0685 0.0237419 18.4633 0.0228377 18.8582 0.0222985C19.363 0.021451 19.8678 0.0177359 20.3727 0.0133299C20.7616 0.0104418 21.1506 0.00964257 21.5396 0.00940591C21.7256 0.00893889 21.9117 0.00770085 22.0977 0.00566432C22.3587 0.00301168 22.6195 0.00331883 22.8805 0.00431994C22.9567 0.00289436 23.0329 0.00146878 23.1113 0C23.6928 0.00695182 24.077 0.166625 24.5069 0.523582C24.9299 0.950433 24.9941 1.35228 24.9882 1.91169C24.989 1.9861 24.9899 2.06052 24.9908 2.1372C24.9931 2.38165 24.9923 2.626 24.9913 2.87046C24.9918 3.04133 24.9924 3.21221 24.9931 3.38308C24.9941 3.74064 24.9935 4.09817 24.9919 4.45572C24.99 4.91283 24.9922 5.36982 24.9957 5.82691C24.9979 6.17963 24.9977 6.53232 24.9968 6.88504C24.9966 7.05352 24.9973 7.222 24.9987 7.39046C25.0004 7.62651 24.9989 7.86237 24.9965 8.09841C24.9982 8.2017 24.9982 8.2017 25 8.30707C24.9894 8.83265 24.7971 9.17643 24.4219 9.57388C24.0902 9.83708 23.7554 9.96961 23.3148 9.97203C23.2454 9.97258 23.1759 9.97313 23.1044 9.9737C23.0285 9.97391 22.9526 9.97412 22.8744 9.97433C22.7942 9.97484 22.714 9.97535 22.6314 9.97588C22.3657 9.9774 22.1 9.9783 21.8342 9.97908C21.698 9.97955 21.698 9.97955 21.5591 9.98003C21.0783 9.98164 20.5976 9.98275 20.1169 9.98348C19.6209 9.98433 19.1249 9.98699 18.6289 9.99006C18.2471 9.99209 17.8653 9.99273 17.4835 9.99301C17.3007 9.99339 17.1179 9.99429 16.9351 9.99572C16.6788 9.99761 16.4226 9.99753 16.1662 9.997C16.0537 9.99848 16.0537 9.99848 15.9389 10C15.3607 9.9956 14.8922 9.87029 14.4738 9.49381C14.4157 9.41618 14.4157 9.41618 14.3566 9.33699C14.2963 9.25906 14.2963 9.25906 14.2347 9.17956C14.0827 8.94633 14.043 8.75139 14.0407 8.48588C14.04 8.42202 14.0393 8.35816 14.0385 8.29237C14.0382 8.22257 14.0378 8.15277 14.0374 8.08085C14.0367 8.00712 14.036 7.93338 14.0353 7.85742C14.0332 7.61304 14.0318 7.36866 14.0306 7.12427C14.0299 6.99902 14.0299 6.99902 14.0292 6.87123C14.0269 6.42916 14.0253 5.98709 14.0241 5.54501C14.0226 5.08886 14.0188 4.63275 14.0145 4.17662C14.0116 3.82551 14.0107 3.4744 14.0102 3.12328C14.0096 2.95517 14.0083 2.78706 14.0063 2.61896C14.0036 2.38326 14.0036 2.14767 14.0042 1.91195C14.0028 1.84293 14.0014 1.77391 14 1.70281C14.0053 1.21781 14.1425 0.900966 14.4787 0.523582C14.8199 0.235742 15.1298 0.0412776 15.602 0.037737Z" fill="black"/>
<path d="M1.45633 0.037737C1.52076 0.0368536 1.58518 0.0359702 1.65156 0.03506C1.7216 0.0348871 1.79164 0.0347141 1.8638 0.0345359C1.93809 0.0337678 2.01237 0.0329997 2.0889 0.0322084C2.33471 0.0299486 2.5805 0.0288943 2.82631 0.0280395C2.99742 0.0271494 3.16853 0.0262586 3.33964 0.0253673C3.69859 0.0237419 4.05755 0.0228377 4.41651 0.0222985C4.87548 0.021451 5.33438 0.0177359 5.79333 0.0133299C6.14694 0.0104418 6.50053 0.00964257 6.85415 0.00940591C7.02328 0.00893889 7.19242 0.00770085 7.36154 0.00566432C7.5988 0.00301168 7.8359 0.00331883 8.07317 0.00431994C8.14242 0.00289436 8.21168 0.00146878 8.28304 0C8.81166 0.00695182 9.16088 0.166625 9.55174 0.523582C9.93625 0.950433 9.9946 1.35228 9.98924 1.91169C9.99004 1.9861 9.99085 2.06052 9.99167 2.1372C9.99375 2.38165 9.99302 2.626 9.99205 2.87046C9.99251 3.04133 9.99307 3.21221 9.99373 3.38308C9.99465 3.74064 9.99413 4.09817 9.99264 4.45572C9.99087 4.91283 9.99294 5.36982 9.99612 5.82691C9.9981 6.17963 9.9979 6.53232 9.99706 6.88504C9.99694 7.05352 9.99753 7.222 9.99885 7.39046C10.0004 7.62651 9.99897 7.86237 9.99679 8.09841C9.99838 8.2017 9.99838 8.2017 10 8.30707C9.99036 8.83265 9.81556 9.17643 9.47448 9.57388C9.17294 9.83708 8.8685 9.96961 8.468 9.97203C8.40487 9.97258 8.34174 9.97313 8.27669 9.9737C8.2077 9.97391 8.13871 9.97412 8.06762 9.97433C7.99473 9.97484 7.92184 9.97535 7.84675 9.97588C7.60517 9.9774 7.3636 9.9783 7.12201 9.97908C6.99819 9.97955 6.99819 9.97955 6.87187 9.98003C6.43484 9.98164 5.99782 9.98275 5.56079 9.98348C5.10988 9.98433 4.659 9.98699 4.2081 9.99006C3.86099 9.99209 3.51389 9.99273 3.16678 9.99301C3.0006 9.99339 2.83442 9.99429 2.66825 9.99572C2.43525 9.99761 2.20232 9.99753 1.96932 9.997C1.867 9.99848 1.867 9.99848 1.76261 10C1.23704 9.9956 0.811048 9.87029 0.430687 9.49381C0.377954 9.41618 0.377954 9.41618 0.324155 9.33699C0.26933 9.25906 0.26933 9.25906 0.213397 9.17956C0.0751578 8.94633 0.039092 8.75139 0.0370308 8.48588C0.0363663 8.42202 0.0357019 8.35816 0.0350173 8.29237C0.0346882 8.22257 0.034359 8.15277 0.0340199 8.08085C0.0333882 8.00712 0.0327564 7.93338 0.0321055 7.85742C0.0301861 7.61304 0.0289094 7.36866 0.0277955 7.12427C0.0271785 6.99902 0.0271785 6.99902 0.0265491 6.87123C0.0244841 6.42916 0.0229873 5.98709 0.0218728 5.54501C0.0205875 5.08886 0.0171286 4.63275 0.0131912 4.17662C0.0105882 3.82551 0.00969843 3.4744 0.00926212 3.12328C0.00874384 2.95517 0.00756865 2.78706 0.00571665 2.61896C0.00326823 2.38326 0.00326896 2.14767 0.00384077 1.91195C0.00257332 1.84293 0.00130586 1.77391 0 1.70281C0.00479892 1.21781 0.129579 0.900966 0.435214 0.523582C0.7454 0.235742 1.02713 0.0412776 1.45633 0.037737Z" fill="black"/>
</svg>
