<svg width="123" height="101" viewBox="0 0 123 101" fill="none" xmlns="http://www.w3.org/2000/svg">
<path d="M7.47615 58.0878C7.84381 58.0852 7.84381 58.0852 8.21888 58.0826C8.4877 58.0819 8.75652 58.0813 9.03349 58.0806C9.45837 58.0782 9.45837 58.0782 9.89182 58.0758C10.8317 58.071 11.7716 58.0681 12.7115 58.0657C13.0357 58.0647 13.3599 58.0637 13.6841 58.0627C15.2084 58.0581 16.7327 58.0546 18.2569 58.0526C20.0125 58.0502 21.768 58.0438 23.5235 58.034C24.8827 58.0267 26.2418 58.0231 27.6009 58.0223C28.4116 58.0217 29.2221 58.0196 30.0327 58.0134C30.939 58.0075 31.8452 58.0077 32.7516 58.0094C33.0171 58.0063 33.2825 58.0032 33.556 58C36.1861 58.0178 38.0292 58.8194 39.933 60.6704C41.1355 62.0761 41.9055 63.78 41.9142 65.6542C41.9167 66.0306 41.9167 66.0306 41.9193 66.4146C41.92 66.6898 41.9206 66.965 41.9213 67.2486C41.9228 67.5386 41.9244 67.8286 41.926 68.1273C41.9307 69.0896 41.9335 70.0519 41.9358 71.0142C41.9368 71.3461 41.9378 71.678 41.9387 72.01C41.9433 73.5705 41.9466 75.1311 41.9486 76.6916C41.9509 78.489 41.9572 80.2863 41.9668 82.0836C41.9739 83.4751 41.9774 84.8666 41.9782 86.2581C41.9788 87.088 41.9809 87.9179 41.9869 88.7477C41.9927 89.6757 41.9924 90.6034 41.9908 91.5314C41.9953 91.9391 41.9953 91.9391 42 92.355C41.9827 95.0477 41.1997 96.9347 39.3917 98.8838C38.0187 100.115 36.3544 100.903 34.5238 100.912C34.2787 100.914 34.0336 100.916 33.7811 100.917C33.5123 100.918 33.2435 100.919 32.9665 100.919C32.6833 100.921 32.4 100.923 32.1082 100.924C31.1683 100.929 30.2284 100.932 29.2885 100.934C28.9643 100.935 28.6401 100.936 28.3159 100.937C26.7916 100.942 25.2673 100.945 23.7431 100.947C21.9875 100.95 20.232 100.956 18.4765 100.966C17.1173 100.973 15.7582 100.977 14.3991 100.978C13.5884 100.978 12.7779 100.98 11.9673 100.987C11.061 100.992 10.1548 100.992 9.24839 100.991C8.85021 100.995 8.85021 100.995 8.44398 101C5.81385 100.982 3.97075 100.181 2.06703 98.3296C0.864546 96.9239 0.0945043 95.22 0.0857992 93.3458C0.0841014 93.0949 0.0824037 92.844 0.0806546 92.5854C0.0800166 92.3102 0.0793786 92.035 0.0787213 91.7514C0.0771622 91.4614 0.0756031 91.1714 0.0739967 90.8727C0.0693102 89.9104 0.0665455 88.9481 0.0641819 87.9858C0.0632212 87.6539 0.0622444 87.322 0.0612517 86.99C0.0567312 85.4295 0.0533553 83.8689 0.0513785 82.3084C0.0490638 80.511 0.0428299 78.7137 0.0332278 76.9164C0.0260507 75.5249 0.0225563 74.1334 0.0217725 72.7419C0.0212169 71.912 0.0191188 71.0821 0.0131216 70.2523C0.00733122 69.3243 0.00756413 68.3966 0.00921022 67.4686C0.00617085 67.1968 0.00313147 66.925 0 66.645C0.0173477 63.9523 0.800349 62.0653 2.60829 60.1162C3.98134 58.8851 5.64557 58.0968 7.47615 58.0878ZM7.71318 66.6256C7.60664 67.1257 7.60664 67.1257 7.6228 67.6858C7.62079 67.9024 7.61878 68.119 7.61672 68.3422C7.61816 68.5792 7.6196 68.8162 7.62108 69.0604C7.61983 69.3105 7.61859 69.5606 7.6173 69.8182C7.61416 70.6467 7.61625 71.4752 7.61865 72.3037C7.61817 72.8782 7.61748 73.4527 7.61659 74.0272C7.61553 75.232 7.61706 76.4368 7.62039 77.6416C7.62444 79.188 7.62211 80.7343 7.61784 82.2806C7.61527 83.4672 7.61609 84.6537 7.61793 85.8403C7.61841 86.4105 7.61782 86.9808 7.61617 87.5511C7.61437 88.3473 7.61711 89.1434 7.62108 89.9396C7.61964 90.1766 7.6182 90.4136 7.61672 90.6578C7.61872 90.8744 7.62073 91.091 7.6228 91.3142C7.62307 91.5024 7.62333 91.6907 7.62361 91.8847C7.73953 92.5185 7.91516 92.7298 8.42498 93.1032C8.91352 93.2123 8.91352 93.2123 9.46058 93.1957C9.67214 93.1978 9.88371 93.1998 10.1017 93.2019C10.3332 93.2005 10.5647 93.199 10.8032 93.1975C11.1696 93.1994 11.1696 93.1994 11.5434 93.2013C12.3526 93.2045 13.1618 93.2024 13.971 93.2C14.5322 93.2004 15.0933 93.2012 15.6545 93.2021C16.8313 93.2031 18.008 93.2016 19.1848 93.1982C20.6952 93.194 22.2056 93.1964 23.716 93.2008C24.8749 93.2034 26.0339 93.2026 27.1928 93.2007C27.7498 93.2002 28.3068 93.2008 28.8638 93.2025C29.6415 93.2043 30.4191 93.2015 31.1968 93.1975C31.4283 93.1989 31.6598 93.2004 31.8983 93.2019C32.1099 93.1999 32.3214 93.1978 32.5394 93.1957C32.7233 93.1954 32.9072 93.1952 33.0966 93.1949C33.7157 93.0762 33.9222 92.8964 34.2868 92.3744C34.3934 91.8743 34.3934 91.8743 34.3772 91.3142C34.3792 91.0976 34.3812 90.881 34.3833 90.6578C34.3818 90.4208 34.3804 90.1838 34.3789 89.9396C34.3802 89.6895 34.3814 89.4394 34.3827 89.1818C34.3858 88.3533 34.3838 87.5248 34.3814 86.6963C34.3818 86.1218 34.3825 85.5473 34.3834 84.9728C34.3845 83.768 34.3829 82.5632 34.3796 81.3584C34.3756 79.812 34.3779 78.2657 34.3822 76.7194C34.3847 75.5328 34.3839 74.3463 34.3821 73.1597C34.3816 72.5895 34.3822 72.0192 34.3838 71.4489C34.3856 70.6527 34.3829 69.8566 34.3789 69.0604C34.3804 68.8234 34.3818 68.5864 34.3833 68.3422C34.3813 68.1256 34.3793 67.909 34.3772 67.6858C34.3769 67.4976 34.3767 67.3093 34.3764 67.1153C34.2605 66.4815 34.0848 66.2702 33.575 65.8968C33.0865 65.7877 33.0865 65.7877 32.5394 65.8043C32.3279 65.8022 32.1163 65.8002 31.8983 65.7981C31.6668 65.7995 31.4353 65.801 31.1968 65.8025C30.8304 65.8006 30.8304 65.8006 30.4566 65.7987C29.6474 65.7955 28.8382 65.7976 28.029 65.8C27.4678 65.7996 26.9067 65.7988 26.3455 65.7979C25.1687 65.7969 23.992 65.7984 22.8152 65.8018C21.3048 65.806 19.7944 65.8036 18.284 65.7992C17.1251 65.7966 15.9661 65.7974 14.8072 65.7993C14.2502 65.7998 13.6932 65.7992 13.1362 65.7975C12.3585 65.7957 11.5809 65.7985 10.8032 65.8025C10.4559 65.8003 10.4559 65.8003 10.1017 65.7981C9.89012 65.8001 9.67855 65.8022 9.46058 65.8043C9.18475 65.8047 9.18475 65.8047 8.90335 65.8051C8.28427 65.9238 8.07784 66.1036 7.71318 66.6256Z" fill="black"/>
<path d="M7.47615 0.087842C7.84381 0.0852348 7.84381 0.0852348 8.21888 0.0825749C8.4877 0.0819218 8.75652 0.0812686 9.03349 0.0805956C9.45837 0.0782013 9.45837 0.0782013 9.89182 0.0757586C10.8317 0.0709604 11.7716 0.0681299 12.7115 0.0657101C13.0357 0.0647265 13.3599 0.0637264 13.6841 0.0627101C15.2084 0.0580819 16.7327 0.0546258 18.2569 0.0526019C20.0125 0.0502322 21.768 0.0438496 23.5235 0.0340188C24.8827 0.0266709 26.2418 0.0230934 27.6009 0.0222909C28.4116 0.0217221 29.2221 0.0195741 30.0327 0.013434C30.939 0.00750578 31.8452 0.00774423 32.7516 0.00942951C33.0171 0.00631777 33.2825 0.00320603 33.556 0C36.1861 0.0177608 38.0292 0.819405 39.933 2.67039C41.1355 4.07613 41.9055 5.77998 41.9142 7.65416C41.9167 8.03056 41.9167 8.03056 41.9193 8.41457C41.92 8.68979 41.9206 8.96501 41.9213 9.24857C41.9228 9.53857 41.9244 9.82856 41.926 10.1273C41.9307 11.0896 41.9335 12.0519 41.9358 13.0142C41.9368 13.3461 41.9378 13.678 41.9387 14.01C41.9433 15.5705 41.9466 17.1311 41.9486 18.6916C41.9509 20.489 41.9572 22.2863 41.9668 24.0836C41.9739 25.4751 41.9774 26.8666 41.9782 28.2581C41.9788 29.088 41.9809 29.9179 41.9869 30.7477C41.9927 31.6757 41.9924 32.6034 41.9908 33.5314C41.9953 33.9391 41.9953 33.9391 42 34.355C41.9827 37.0477 41.1997 38.9347 39.3917 40.8838C38.0187 42.1149 36.3544 42.9032 34.5238 42.9122C34.2787 42.9139 34.0336 42.9156 33.7811 42.9174C33.5123 42.9181 33.2435 42.9187 32.9665 42.9194C32.6833 42.921 32.4 42.9226 32.1082 42.9242C31.1683 42.929 30.2284 42.9319 29.2885 42.9343C28.9643 42.9353 28.6401 42.9363 28.3159 42.9373C26.7916 42.9419 25.2673 42.9454 23.7431 42.9474C21.9875 42.9498 20.232 42.9561 18.4765 42.966C17.1173 42.9733 15.7582 42.9769 14.3991 42.9777C13.5884 42.9783 12.7779 42.9804 11.9673 42.9866C11.061 42.9925 10.1548 42.9923 9.24839 42.9906C8.85021 42.9952 8.85021 42.9952 8.44398 43C5.81385 42.9822 3.97075 42.1806 2.06703 40.3296C0.864546 38.9239 0.0945043 37.22 0.0857992 35.3458C0.0841014 35.0949 0.0824037 34.844 0.0806546 34.5854C0.0800166 34.3102 0.0793786 34.035 0.0787213 33.7514C0.0771622 33.4614 0.0756031 33.1714 0.0739967 32.8727C0.0693102 31.9104 0.0665455 30.9481 0.0641819 29.9858C0.0632212 29.6539 0.0622444 29.322 0.0612517 28.99C0.0567312 27.4295 0.0533553 25.8689 0.0513785 24.3084C0.0490638 22.511 0.0428299 20.7137 0.0332278 18.9164C0.0260507 17.5249 0.0225563 16.1334 0.0217725 14.7419C0.0212169 13.912 0.0191188 13.0821 0.0131216 12.2523C0.00733122 11.3243 0.00756413 10.3966 0.00921022 9.46859C0.00617085 9.19682 0.00313147 8.92504 0 8.64502C0.0173477 5.95228 0.800349 4.06529 2.60829 2.11624C3.98134 0.88513 5.64557 0.0967544 7.47615 0.087842ZM7.71318 8.62557C7.60664 9.12575 7.60664 9.12575 7.6228 9.68583C7.62079 9.90243 7.61878 10.119 7.61672 10.3422C7.61816 10.5792 7.6196 10.8162 7.62108 11.0604C7.61983 11.3105 7.61859 11.5606 7.6173 11.8182C7.61416 12.6467 7.61625 13.4752 7.61865 14.3037C7.61817 14.8782 7.61748 15.4527 7.61659 16.0272C7.61553 17.232 7.61706 18.4368 7.62039 19.6416C7.62444 21.188 7.62211 22.7343 7.61784 24.2806C7.61527 25.4672 7.61609 26.6537 7.61793 27.8403C7.61841 28.4105 7.61782 28.9808 7.61617 29.5511C7.61437 30.3473 7.61711 31.1434 7.62108 31.9396C7.61964 32.1766 7.6182 32.4136 7.61672 32.6578C7.61872 32.8744 7.62073 33.091 7.6228 33.3142C7.62307 33.5024 7.62333 33.6907 7.62361 33.8847C7.73953 34.5185 7.91516 34.7298 8.42498 35.1032C8.91352 35.2123 8.91352 35.2123 9.46058 35.1957C9.67214 35.1978 9.88371 35.1998 10.1017 35.2019C10.3332 35.2005 10.5647 35.199 10.8032 35.1975C11.1696 35.1994 11.1696 35.1994 11.5434 35.2013C12.3526 35.2045 13.1618 35.2024 13.971 35.2C14.5322 35.2004 15.0933 35.2012 15.6545 35.2021C16.8313 35.2031 18.008 35.2016 19.1848 35.1982C20.6952 35.194 22.2056 35.1964 23.716 35.2008C24.8749 35.2034 26.0339 35.2026 27.1928 35.2007C27.7498 35.2002 28.3068 35.2008 28.8638 35.2025C29.6415 35.2043 30.4191 35.2015 31.1968 35.1975C31.4283 35.1989 31.6598 35.2004 31.8983 35.2019C32.1099 35.1999 32.3214 35.1978 32.5394 35.1957C32.7233 35.1954 32.9072 35.1952 33.0966 35.1949C33.7157 35.0762 33.9222 34.8964 34.2868 34.3744C34.3934 33.8743 34.3934 33.8743 34.3772 33.3142C34.3792 33.0976 34.3812 32.881 34.3833 32.6578C34.3818 32.4208 34.3804 32.1838 34.3789 31.9396C34.3802 31.6895 34.3814 31.4394 34.3827 31.1818C34.3858 30.3533 34.3838 29.5248 34.3814 28.6963C34.3818 28.1218 34.3825 27.5473 34.3834 26.9728C34.3845 25.768 34.3829 24.5632 34.3796 23.3584C34.3756 21.812 34.3779 20.2657 34.3822 18.7194C34.3847 17.5328 34.3839 16.3463 34.3821 15.1597C34.3816 14.5895 34.3822 14.0192 34.3838 13.4489C34.3856 12.6527 34.3829 11.8566 34.3789 11.0604C34.3804 10.8234 34.3818 10.5864 34.3833 10.3422C34.3813 10.1256 34.3793 9.909 34.3772 9.68583C34.3769 9.49757 34.3767 9.3093 34.3764 9.11534C34.2605 8.48152 34.0848 8.27017 33.575 7.89683C33.0865 7.78775 33.0865 7.78775 32.5394 7.80429C32.3279 7.80224 32.1163 7.80018 31.8983 7.79807C31.6668 7.79954 31.4353 7.80102 31.1968 7.80254C30.8304 7.80062 30.8304 7.80062 30.4566 7.79867C29.6474 7.79545 28.8382 7.79758 28.029 7.80005C27.4678 7.79955 26.9067 7.79885 26.3455 7.79793C25.1687 7.79686 23.992 7.79842 22.8152 7.80182C21.3048 7.80598 19.7944 7.80359 18.284 7.79922C17.1251 7.79659 15.9661 7.79742 14.8072 7.79931C14.2502 7.7998 13.6932 7.7992 13.1362 7.79751C12.3585 7.79566 11.5809 7.79847 10.8032 7.80254C10.4559 7.80032 10.4559 7.80032 10.1017 7.79807C9.89012 7.80012 9.67855 7.80218 9.46058 7.80429C9.18475 7.8047 9.18475 7.8047 8.90335 7.80512C8.28427 7.9238 8.07784 8.10362 7.71318 8.62557Z" fill="black"/>
<path d="M59.0987 68.0104C59.491 68.0081 59.491 68.0081 59.8911 68.0058C60.7677 68.002 61.644 68.005 62.5205 68.0081C63.1488 68.0068 63.7771 68.0051 64.4054 68.0029C65.9349 67.9987 67.4643 67.9996 68.9938 68.0024C70.237 68.0046 71.4801 68.0049 72.7232 68.0038C72.9002 68.0037 73.0772 68.0035 73.2595 68.0034C73.619 68.003 73.9786 68.0027 74.3381 68.0024C77.7089 67.9997 81.0796 68.0028 84.4504 68.008C87.3422 68.0123 90.234 68.0116 93.1259 68.0071C96.4846 68.002 99.8434 67.9999 103.202 68.0029C103.56 68.0032 103.919 68.0035 104.277 68.0038C104.541 68.004 104.541 68.004 104.811 68.0043C106.052 68.0051 107.294 68.0037 108.535 68.0014C110.207 67.9984 111.878 68.0005 113.549 68.0061C114.163 68.0074 114.777 68.0071 115.391 68.0049C116.228 68.0023 117.064 68.0056 117.901 68.0104C118.145 68.0083 118.389 68.0061 118.64 68.0039C120.019 68.0193 120.839 68.1534 121.926 69.0999C122.792 70.0229 122.955 70.7633 123 72C122.955 73.2367 122.792 73.9771 121.926 74.9001C120.629 76.0293 119.532 76.004 117.901 75.9896C117.64 75.9911 117.378 75.9926 117.109 75.9942C116.232 75.998 115.356 75.995 114.479 75.9919C113.851 75.9932 113.223 75.9949 112.595 75.9971C111.065 76.0013 109.536 76.0004 108.006 75.9976C106.763 75.9954 105.52 75.9951 104.277 75.9962C104.1 75.9963 103.923 75.9965 103.74 75.9966C103.381 75.997 103.021 75.9973 102.662 75.9976C99.2911 76.0003 95.9204 75.9972 92.5496 75.992C89.6578 75.9877 86.766 75.9884 83.8741 75.9929C80.5154 75.998 77.1566 76.0001 73.7978 75.9971C73.4396 75.9968 73.0814 75.9965 72.7232 75.9962C72.4589 75.996 72.4589 75.996 72.1892 75.9957C70.9476 75.9949 69.7061 75.9963 68.4646 75.9986C66.7933 76.0016 65.1222 75.9995 63.451 75.9939C62.8371 75.9926 62.2232 75.9929 61.6094 75.9951C60.7724 75.9977 59.9357 75.9944 59.0987 75.9896C58.8549 75.9917 58.6111 75.9939 58.3599 75.9961C56.981 75.9807 56.1614 75.8466 55.0744 74.9001C54.2081 73.9771 54.0454 73.2367 54 72C54.0454 70.7633 54.2081 70.0229 55.0744 69.0999C56.3713 67.9707 57.4684 67.996 59.0987 68.0104Z" fill="black"/>
<path d="M59.0987 13.0104C59.491 13.0081 59.491 13.0081 59.8911 13.0058C60.7677 13.002 61.644 13.005 62.5205 13.0081C63.1488 13.0068 63.7771 13.0051 64.4054 13.0029C65.9349 12.9987 67.4643 12.9996 68.9938 13.0024C70.237 13.0046 71.4801 13.0049 72.7232 13.0038C72.9002 13.0037 73.0772 13.0035 73.2595 13.0034C73.619 13.003 73.9786 13.0027 74.3381 13.0024C77.7089 12.9997 81.0796 13.0028 84.4504 13.008C87.3422 13.0123 90.234 13.0116 93.1259 13.0071C96.4846 13.002 99.8434 12.9999 103.202 13.0029C103.56 13.0032 103.919 13.0035 104.277 13.0038C104.541 13.004 104.541 13.004 104.811 13.0043C106.052 13.0051 107.294 13.0037 108.535 13.0014C110.207 12.9984 111.878 13.0005 113.549 13.0061C114.163 13.0074 114.777 13.0071 115.391 13.0049C116.228 13.0023 117.064 13.0056 117.901 13.0104C118.145 13.0083 118.389 13.0061 118.64 13.0039C120.019 13.0193 120.839 13.1534 121.926 14.0999C122.792 15.0229 122.955 15.7633 123 17C122.955 18.2367 122.792 18.9771 121.926 19.9001C120.629 21.0293 119.532 21.004 117.901 20.9896C117.64 20.9911 117.378 20.9926 117.109 20.9942C116.232 20.998 115.356 20.995 114.479 20.9919C113.851 20.9932 113.223 20.9949 112.595 20.9971C111.065 21.0013 109.536 21.0004 108.006 20.9976C106.763 20.9954 105.52 20.9951 104.277 20.9962C104.1 20.9963 103.923 20.9965 103.74 20.9966C103.381 20.997 103.021 20.9973 102.662 20.9976C99.2911 21.0003 95.9204 20.9972 92.5496 20.992C89.6578 20.9877 86.766 20.9884 83.8741 20.9929C80.5154 20.998 77.1566 21.0001 73.7978 20.9971C73.4396 20.9968 73.0814 20.9965 72.7232 20.9962C72.4589 20.996 72.4589 20.996 72.1892 20.9957C70.9476 20.9949 69.7061 20.9963 68.4646 20.9986C66.7933 21.0016 65.1222 20.9995 63.451 20.9939C62.8371 20.9926 62.2232 20.9929 61.6094 20.9951C60.7724 20.9977 59.9357 20.9944 59.0987 20.9896C58.8549 20.9917 58.6111 20.9939 58.3599 20.9961C56.981 20.9807 56.1614 20.8466 55.0744 19.9001C54.2081 18.9771 54.0454 18.2367 54 17C54.0454 15.7633 54.2081 15.0229 55.0744 14.0999C56.3713 12.9707 57.4684 12.996 59.0987 13.0104Z" fill="black"/>
<path d="M58.2922 84.0103C58.468 84.0088 58.6439 84.0073 58.825 84.0057C59.4116 84.0019 59.998 84.0049 60.5846 84.0079C61.0062 84.0066 61.4278 84.0049 61.8494 84.0028C62.9927 83.9984 64.1359 84.0001 65.2792 84.0032C66.4762 84.0056 67.6732 84.0033 68.8702 84.0018C70.8803 84.0001 72.8904 84.0024 74.9005 84.007C77.2238 84.0123 79.5469 84.0106 81.8702 84.0052C83.8656 84.0008 85.8611 84.0002 87.8565 84.0028C89.048 84.0043 90.2394 84.0045 91.4309 84.0013C92.5511 83.9985 93.6712 84.0004 94.7914 84.006C95.2022 84.0073 95.6131 84.0069 96.024 84.0048C96.5854 84.0021 97.1464 84.0055 97.7078 84.0103C98.1787 84.0108 98.1787 84.0108 98.6592 84.0114C99.9192 84.193 100.643 84.7874 101.504 85.704C102.077 86.9523 102.073 88.0967 101.892 89.4501C101.341 90.6521 100.633 91.2218 99.5032 91.867C98.6592 91.9886 98.6592 91.9886 97.7078 91.9897C97.532 91.9912 97.3561 91.9927 97.175 91.9943C96.5884 91.9981 96.002 91.9951 95.4154 91.9921C94.9938 91.9934 94.5722 91.9951 94.1506 91.9972C93.0073 92.0016 91.8641 91.9999 90.7208 91.9968C89.5238 91.9944 88.3268 91.9967 87.1298 91.9982C85.1197 91.9999 83.1096 91.9976 81.0995 91.993C78.7762 91.9877 76.4531 91.9894 74.1298 91.9948C72.1344 91.9992 70.139 91.9998 68.1435 91.9972C66.952 91.9957 65.7606 91.9955 64.5691 91.9987C63.4489 92.0015 62.3288 91.9996 61.2086 91.994C60.7978 91.9927 60.3869 91.9931 59.976 91.9952C59.4146 91.9979 58.8536 91.9945 58.2922 91.9897C57.8213 91.9892 57.8213 91.9892 57.3408 91.9886C56.0808 91.807 55.3566 91.2126 54.4958 90.296C53.9228 89.0477 53.9274 87.9033 54.1075 86.5499C54.9612 84.6899 56.3196 84.0126 58.2922 84.0103Z" fill="black"/>
<path d="M58.2922 28.0103C58.468 28.0088 58.6439 28.0073 58.825 28.0057C59.4116 28.0019 59.998 28.0049 60.5846 28.0079C61.0062 28.0066 61.4278 28.0049 61.8494 28.0028C62.9927 27.9984 64.1359 28.0001 65.2792 28.0032C66.4762 28.0056 67.6732 28.0033 68.8702 28.0018C70.8803 28.0001 72.8904 28.0024 74.9005 28.007C77.2238 28.0123 79.5469 28.0106 81.8702 28.0052C83.8656 28.0008 85.8611 28.0002 87.8565 28.0028C89.048 28.0043 90.2394 28.0045 91.4309 28.0013C92.5511 27.9985 93.6712 28.0004 94.7914 28.006C95.2022 28.0073 95.6131 28.0069 96.024 28.0048C96.5854 28.0021 97.1464 28.0055 97.7078 28.0103C98.1787 28.0108 98.1787 28.0108 98.6592 28.0114C99.9192 28.193 100.643 28.7874 101.504 29.704C102.077 30.9523 102.073 32.0967 101.892 33.4501C101.341 34.6521 100.633 35.2218 99.5032 35.867C98.6592 35.9886 98.6592 35.9886 97.7078 35.9897C97.532 35.9912 97.3561 35.9927 97.175 35.9943C96.5884 35.9981 96.002 35.9951 95.4154 35.9921C94.9938 35.9934 94.5722 35.9951 94.1506 35.9972C93.0073 36.0016 91.8641 35.9999 90.7208 35.9968C89.5238 35.9944 88.3268 35.9967 87.1298 35.9982C85.1197 35.9999 83.1096 35.9976 81.0995 35.993C78.7762 35.9877 76.4531 35.9894 74.1298 35.9948C72.1344 35.9992 70.139 35.9998 68.1435 35.9972C66.952 35.9957 65.7606 35.9955 64.5691 35.9987C63.4489 36.0015 62.3288 35.9996 61.2086 35.994C60.7978 35.9927 60.3869 35.9931 59.976 35.9952C59.4146 35.9979 58.8536 35.9945 58.2922 35.9897C57.8213 35.9892 57.8213 35.9892 57.3408 35.9886C56.0808 35.807 55.3566 35.2126 54.4958 34.296C53.9228 33.0477 53.9274 31.9033 54.1075 30.5499C54.9612 28.6899 56.3196 28.0126 58.2922 28.0103Z" fill="black"/>
</svg>
