<svg width="30" height="31" viewBox="0 0 30 31" fill="none" xmlns="http://www.w3.org/2000/svg">
<mask id="path-1-inside-1_1_284" fill="white">
<path fill-rule="evenodd" clip-rule="evenodd" d="M22.4852 0.305579C23.1126 0.797751 23.6817 1.37868 24.2447 1.95327L24.2447 1.95334C24.4186 2.13081 24.5919 2.30766 24.7661 2.48112L24.9701 2.68409C25.3255 3.03774 25.6807 3.39165 26.0356 3.74578C26.4011 4.11035 26.7676 4.47391 27.1343 4.83726C27.4175 5.11826 27.7 5.40001 27.9823 5.68198C28.1171 5.81637 28.2522 5.95047 28.3876 6.08428C28.5767 6.27136 28.7648 6.45949 28.9526 6.6479L29.1208 6.81285C29.6859 7.38436 29.9797 7.97488 30 8.78303C29.9858 9.95133 29.2632 10.6687 28.4946 11.4316L28.4946 11.4317C28.3975 11.5281 28.2996 11.6252 28.2024 11.7241L27.9862 11.9499C27.33 12.6152 26.689 13.0381 25.74 13.0856C25.4733 13.0831 25.2324 13.0441 24.9728 12.9835L24.7673 12.9361L24.6125 12.8994C24.0596 13.5344 23.5189 14.1749 23.0028 14.8403C22.6961 15.2341 22.3769 15.6158 22.0527 15.9954C21.7631 16.3349 21.4824 16.6805 21.2051 17.0301C21.0255 17.2556 20.8436 17.4789 20.661 17.7019L20.4695 17.9362C20.334 18.1008 20.1974 18.2645 20.06 18.4275L19.8526 18.6752L19.6641 18.8979C19.5028 19.1168 19.396 19.2709 19.3367 19.5367C19.3787 19.6624 19.4006 19.7275 19.4288 19.7898C19.4593 19.8568 19.4972 19.9204 19.576 20.0526L19.576 20.0526C20.031 20.8782 20.0478 21.8067 19.8772 22.7277C19.5483 23.8072 18.7008 24.8823 17.7252 25.4614C17.1266 25.7301 16.433 25.7858 15.8106 25.5518C15.2174 25.2453 14.7384 24.7454 14.2751 24.2618L14.2751 24.2618C14.1975 24.1808 14.1204 24.1003 14.0432 24.0212C13.8867 23.8609 13.7297 23.7012 13.5727 23.5414L13.5138 23.4815C13.381 23.3455 13.2496 23.2083 13.1182 23.071L12.8696 22.8168L12.6462 22.5851L12.6462 22.585C12.5452 22.4888 12.4999 22.4457 12.4467 22.4305C12.4034 22.4181 12.3549 22.4241 12.267 22.4351C12.0936 22.52 11.9448 22.6117 11.7893 22.7264L11.6071 22.8596L11.4124 23.0043L10.9982 23.3078L10.7842 23.4654C10.4562 23.7063 10.1261 23.9443 9.79596 24.1824L9.78495 24.1903L9.59112 24.3303C9.16234 24.64 8.73232 24.9479 8.30163 25.2549C7.75788 25.6428 7.21666 26.0343 6.67543 26.4257L6.51433 26.5422C6.1298 26.8202 5.74508 27.098 5.36035 27.3757C5.03999 27.607 4.71976 27.8385 4.39979 28.0704C4.01836 28.3466 3.63645 28.6222 3.25401 28.897L3.05034 29.0434C2.85082 29.1865 2.65095 29.329 2.45094 29.4714L2.26628 29.6039L2.09495 29.7254L1.94489 29.8323C1.61265 30.0398 1.25054 30.0543 0.871393 30.0032C0.463248 29.7992 0.224529 29.5605 0.020457 29.1523C-0.086883 28.4248 0.243089 27.9777 0.662223 27.4099L0.665639 27.4052C0.839466 27.1726 1.01519 26.9415 1.19116 26.7105C1.45978 26.3565 1.7174 25.9956 1.97229 25.6316C2.46 24.9359 2.95627 24.2468 3.45474 23.5588C3.66583 23.2673 3.87649 22.9755 4.08715 22.6837L4.0876 22.6831L4.1475 22.6001L4.42405 22.2172L4.56233 22.0257L4.97716 21.4513L5.11554 21.2597L5.39106 20.8783L6.09834 19.8987L6.24355 19.6977C6.33767 19.5672 6.43166 19.4367 6.52551 19.306C6.72586 19.0275 6.92716 18.7504 7.13674 18.4787L7.32787 18.2284L7.49208 18.019C7.61174 17.8453 7.61174 17.8453 7.57234 17.6694C7.50053 17.472 7.42332 17.38 7.2728 17.235L7.12293 17.0885L6.95991 16.9327L6.6187 16.5987C6.43955 16.4248 6.26011 16.2512 6.08041 16.0779C4.90869 14.9446 4.53322 14.5815 4.4075 14.1462C4.34822 13.941 4.34447 13.7197 4.33896 13.394C4.3547 12.471 4.74017 12.0109 5.38135 11.3677L5.58478 11.1583C6.49933 10.2703 7.50212 10.0492 8.7359 10.0667C9.30606 10.0899 9.80657 10.2507 10.2726 10.5816C10.4797 10.7106 10.4797 10.7106 10.6947 10.6441C10.9614 10.4882 11.1877 10.3009 11.4177 10.0967C11.8067 9.75897 12.2015 9.43312 12.609 9.11809C13.0775 8.7546 13.5296 8.37557 13.9779 7.98752C14.3275 7.68528 14.6836 7.39313 15.0461 7.10642C15.365 6.85342 15.6794 6.59504 15.9939 6.33666L16.1882 6.17704L16.7148 5.74625L16.9524 5.5518L17.1243 5.4112L17.087 5.2676C16.903 4.51096 16.8767 3.83332 17.2094 3.11367C17.558 2.56264 18.0186 2.10238 18.4777 1.64363L18.5162 1.60511C18.6398 1.48113 18.762 1.35586 18.8841 1.23047C19.8634 0.239223 21.1169 -0.415338 22.4852 0.305579ZM19.225 2.43292L19.0228 2.63435C18.4649 3.19741 18.0725 3.62578 18.0241 4.44724C18.0952 4.836 18.3143 5.15224 18.573 5.43867L17.4229 6.57294L17.4316 6.5817C17.3584 6.6412 17.279 6.71268 17.1893 6.79344L17.1828 6.79929C16.7752 7.15796 16.3628 7.50475 15.933 7.83636C15.4661 8.1979 15.0158 8.57516 14.5694 8.96163C14.2198 9.26386 13.8637 9.55601 13.5011 9.84271C13.1823 10.0957 12.8679 10.3541 12.5534 10.6124L12.5534 10.6125L12.359 10.7721L11.8325 11.2029L11.6458 11.3556L11.6449 11.3546L11.6314 11.3675L11.5949 11.3973L11.423 11.5379L11.4362 11.5537L10.6875 12.2679C10.0255 11.6184 9.27393 11.1393 8.32506 11.1038C7.19507 11.1481 6.42586 11.8105 5.67719 12.6129C5.4633 12.8905 5.42687 13.1466 5.42124 13.4845C5.53085 13.9229 5.8701 14.2614 6.18399 14.5747L6.184 14.5747L6.23312 14.6237L6.35963 14.7511C6.4985 14.8906 6.63795 15.0295 6.77742 15.1685L7.07772 15.4697C7.34877 15.7415 7.62036 16.0128 7.89207 16.2839C8.13704 16.5285 8.3817 16.7735 8.62637 17.0184L8.74471 17.1368C9.22167 17.6141 9.69899 18.091 10.1765 18.5677C10.7286 19.1189 11.2802 19.6707 11.8314 20.2229C12.3048 20.6971 12.7786 21.171 13.2527 21.6447C13.5358 21.9275 13.8187 22.2104 14.1014 22.4936C14.367 22.7597 14.633 23.0253 14.8993 23.2907C14.997 23.3882 15.0946 23.4858 15.192 23.5836C15.3248 23.7169 15.4582 23.8497 15.5918 23.9824L15.8177 24.2081C16.1459 24.5013 16.4075 24.6088 16.8574 24.5938C17.5184 24.4609 18.0703 23.7391 18.4633 23.2251L18.4858 23.1958C18.8901 22.4937 19.0245 21.7869 18.8155 20.994C18.6301 20.3187 18.1611 19.7801 17.6752 19.2855L18.397 18.597L18.4007 18.6007C19.0057 17.9975 19.5492 17.3617 20.0723 16.6874C20.4025 16.2639 20.7486 15.8562 21.1001 15.4502C21.4023 15.1006 21.6945 14.7445 21.9813 14.3819C22.1596 14.1572 22.3406 13.935 22.5224 13.7131L22.7129 13.4791C22.8506 13.3125 22.9906 13.1477 23.1323 12.9845L23.3467 12.7346L23.5442 12.5089C23.5969 12.4437 23.6314 12.4011 23.6523 12.3657L24.5793 11.4515C24.9222 11.7774 25.1895 11.9448 25.7028 11.9953C26.4771 11.9667 26.9936 11.4306 27.4996 10.9055L27.4997 10.9055C27.5513 10.8518 27.6029 10.7983 27.6546 10.7455L27.8949 10.507C28.2305 10.1788 28.3967 10.0163 28.5244 9.82773C28.6496 9.64283 28.7377 9.43287 28.9124 9.01704L28.9097 8.81494L28.9124 8.61284C28.7917 8.01641 28.3732 7.60233 27.9565 7.18996L27.9104 7.1444L27.7241 6.95675C27.5219 6.75337 27.3187 6.55094 27.1155 6.34856L26.6913 5.92368C26.3955 5.62744 26.0991 5.33167 25.8025 5.03621C25.4226 4.65776 25.0438 4.27818 24.6654 3.89824C24.3739 3.60577 24.0817 3.31392 23.7894 3.02225C23.6495 2.88253 23.5098 2.74261 23.3703 2.6025C23.1752 2.40677 22.9793 2.21187 22.7832 2.01717L22.6096 1.84195C22.2062 1.44402 21.8164 1.12337 21.2247 1.10865C20.4638 1.14647 19.905 1.72719 19.3932 2.25912L19.3932 2.25913L19.3931 2.25924C19.3366 2.318 19.2806 2.37616 19.225 2.43292ZM8.44473 18.5156L8.44471 18.5156C8.32982 18.6415 8.32982 18.6415 8.21604 18.8088L8.07975 18.9996L7.93416 19.207L7.78326 19.4191C7.68186 19.5616 7.5807 19.7044 7.47978 19.8473C7.32496 20.0665 7.16912 20.2849 7.01299 20.5032L6.81126 20.7857C6.42798 21.3231 6.04113 21.858 5.65428 22.3929L5.52375 22.5733C5.30527 22.8755 5.08698 23.1778 4.86869 23.4801L4.82825 23.5361C4.5488 23.9231 4.26931 24.3101 3.98961 24.6969C3.53917 25.3199 3.08883 25.943 2.64369 26.5698C2.43907 26.8574 2.23175 27.1429 2.02248 27.4272L1.86908 27.6366C1.76958 27.7723 1.66965 27.9077 1.56926 28.0428L1.43215 28.2302L1.30947 28.3963C1.20763 28.5634 1.16341 28.7058 1.12667 28.897C1.39221 28.8453 1.56451 28.7607 1.7815 28.6005L1.96365 28.4674L2.15843 28.3227L2.57393 28.0182L2.78808 27.8605C3.10041 27.631 3.41484 27.4045 3.72928 27.178L3.72994 27.1776L3.76458 27.1526L4.1475 26.8761L7.97671 24.1105L8.16834 23.9721L8.5496 23.6968C8.87731 23.4602 9.20491 23.2234 9.53233 22.9863C10.1875 22.5122 10.8427 22.0387 11.5081 21.579C11.3939 21.325 11.2676 21.1468 11.0713 20.95L10.9078 20.7849L10.7316 20.6097L10.5504 20.428C10.4242 20.3017 10.2977 20.1755 10.171 20.0495C9.97654 19.856 9.78298 19.6615 9.5895 19.4669L9.2212 19.0993L9.04499 18.922L8.88149 18.7602L8.73761 18.6167C8.61952 18.4976 8.61952 18.4976 8.44473 18.5156Z"/>
</mask>
<path fill-rule="evenodd" clip-rule="evenodd" d="M22.4852 0.305579C23.1126 0.797751 23.6817 1.37868 24.2447 1.95327L24.2447 1.95334C24.4186 2.13081 24.5919 2.30766 24.7661 2.48112L24.9701 2.68409C25.3255 3.03774 25.6807 3.39165 26.0356 3.74578C26.4011 4.11035 26.7676 4.47391 27.1343 4.83726C27.4175 5.11826 27.7 5.40001 27.9823 5.68198C28.1171 5.81637 28.2522 5.95047 28.3876 6.08428C28.5767 6.27136 28.7648 6.45949 28.9526 6.6479L29.1208 6.81285C29.6859 7.38436 29.9797 7.97488 30 8.78303C29.9858 9.95133 29.2632 10.6687 28.4946 11.4316L28.4946 11.4317C28.3975 11.5281 28.2996 11.6252 28.2024 11.7241L27.9862 11.9499C27.33 12.6152 26.689 13.0381 25.74 13.0856C25.4733 13.0831 25.2324 13.0441 24.9728 12.9835L24.7673 12.9361L24.6125 12.8994C24.0596 13.5344 23.5189 14.1749 23.0028 14.8403C22.6961 15.2341 22.3769 15.6158 22.0527 15.9954C21.7631 16.3349 21.4824 16.6805 21.2051 17.0301C21.0255 17.2556 20.8436 17.4789 20.661 17.7019L20.4695 17.9362C20.334 18.1008 20.1974 18.2645 20.06 18.4275L19.8526 18.6752L19.6641 18.8979C19.5028 19.1168 19.396 19.2709 19.3367 19.5367C19.3787 19.6624 19.4006 19.7275 19.4288 19.7898C19.4593 19.8568 19.4972 19.9204 19.576 20.0526L19.576 20.0526C20.031 20.8782 20.0478 21.8067 19.8772 22.7277C19.5483 23.8072 18.7008 24.8823 17.7252 25.4614C17.1266 25.7301 16.433 25.7858 15.8106 25.5518C15.2174 25.2453 14.7384 24.7454 14.2751 24.2618L14.2751 24.2618C14.1975 24.1808 14.1204 24.1003 14.0432 24.0212C13.8867 23.8609 13.7297 23.7012 13.5727 23.5414L13.5138 23.4815C13.381 23.3455 13.2496 23.2083 13.1182 23.071L12.8696 22.8168L12.6462 22.5851L12.6462 22.585C12.5452 22.4888 12.4999 22.4457 12.4467 22.4305C12.4034 22.4181 12.3549 22.4241 12.267 22.4351C12.0936 22.52 11.9448 22.6117 11.7893 22.7264L11.6071 22.8596L11.4124 23.0043L10.9982 23.3078L10.7842 23.4654C10.4562 23.7063 10.1261 23.9443 9.79596 24.1824L9.78495 24.1903L9.59112 24.3303C9.16234 24.64 8.73232 24.9479 8.30163 25.2549C7.75788 25.6428 7.21666 26.0343 6.67543 26.4257L6.51433 26.5422C6.1298 26.8202 5.74508 27.098 5.36035 27.3757C5.03999 27.607 4.71976 27.8385 4.39979 28.0704C4.01836 28.3466 3.63645 28.6222 3.25401 28.897L3.05034 29.0434C2.85082 29.1865 2.65095 29.329 2.45094 29.4714L2.26628 29.6039L2.09495 29.7254L1.94489 29.8323C1.61265 30.0398 1.25054 30.0543 0.871393 30.0032C0.463248 29.7992 0.224529 29.5605 0.020457 29.1523C-0.086883 28.4248 0.243089 27.9777 0.662223 27.4099L0.665639 27.4052C0.839466 27.1726 1.01519 26.9415 1.19116 26.7105C1.45978 26.3565 1.7174 25.9956 1.97229 25.6316C2.46 24.9359 2.95627 24.2468 3.45474 23.5588C3.66583 23.2673 3.87649 22.9755 4.08715 22.6837L4.0876 22.6831L4.1475 22.6001L4.42405 22.2172L4.56233 22.0257L4.97716 21.4513L5.11554 21.2597L5.39106 20.8783L6.09834 19.8987L6.24355 19.6977C6.33767 19.5672 6.43166 19.4367 6.52551 19.306C6.72586 19.0275 6.92716 18.7504 7.13674 18.4787L7.32787 18.2284L7.49208 18.019C7.61174 17.8453 7.61174 17.8453 7.57234 17.6694C7.50053 17.472 7.42332 17.38 7.2728 17.235L7.12293 17.0885L6.95991 16.9327L6.6187 16.5987C6.43955 16.4248 6.26011 16.2512 6.08041 16.0779C4.90869 14.9446 4.53322 14.5815 4.4075 14.1462C4.34822 13.941 4.34447 13.7197 4.33896 13.394C4.3547 12.471 4.74017 12.0109 5.38135 11.3677L5.58478 11.1583C6.49933 10.2703 7.50212 10.0492 8.7359 10.0667C9.30606 10.0899 9.80657 10.2507 10.2726 10.5816C10.4797 10.7106 10.4797 10.7106 10.6947 10.6441C10.9614 10.4882 11.1877 10.3009 11.4177 10.0967C11.8067 9.75897 12.2015 9.43312 12.609 9.11809C13.0775 8.7546 13.5296 8.37557 13.9779 7.98752C14.3275 7.68528 14.6836 7.39313 15.0461 7.10642C15.365 6.85342 15.6794 6.59504 15.9939 6.33666L16.1882 6.17704L16.7148 5.74625L16.9524 5.5518L17.1243 5.4112L17.087 5.2676C16.903 4.51096 16.8767 3.83332 17.2094 3.11367C17.558 2.56264 18.0186 2.10238 18.4777 1.64363L18.5162 1.60511C18.6398 1.48113 18.762 1.35586 18.8841 1.23047C19.8634 0.239223 21.1169 -0.415338 22.4852 0.305579ZM19.225 2.43292L19.0228 2.63435C18.4649 3.19741 18.0725 3.62578 18.0241 4.44724C18.0952 4.836 18.3143 5.15224 18.573 5.43867L17.4229 6.57294L17.4316 6.5817C17.3584 6.6412 17.279 6.71268 17.1893 6.79344L17.1828 6.79929C16.7752 7.15796 16.3628 7.50475 15.933 7.83636C15.4661 8.1979 15.0158 8.57516 14.5694 8.96163C14.2198 9.26386 13.8637 9.55601 13.5011 9.84271C13.1823 10.0957 12.8679 10.3541 12.5534 10.6124L12.5534 10.6125L12.359 10.7721L11.8325 11.2029L11.6458 11.3556L11.6449 11.3546L11.6314 11.3675L11.5949 11.3973L11.423 11.5379L11.4362 11.5537L10.6875 12.2679C10.0255 11.6184 9.27393 11.1393 8.32506 11.1038C7.19507 11.1481 6.42586 11.8105 5.67719 12.6129C5.4633 12.8905 5.42687 13.1466 5.42124 13.4845C5.53085 13.9229 5.8701 14.2614 6.18399 14.5747L6.184 14.5747L6.23312 14.6237L6.35963 14.7511C6.4985 14.8906 6.63795 15.0295 6.77742 15.1685L7.07772 15.4697C7.34877 15.7415 7.62036 16.0128 7.89207 16.2839C8.13704 16.5285 8.3817 16.7735 8.62637 17.0184L8.74471 17.1368C9.22167 17.6141 9.69899 18.091 10.1765 18.5677C10.7286 19.1189 11.2802 19.6707 11.8314 20.2229C12.3048 20.6971 12.7786 21.171 13.2527 21.6447C13.5358 21.9275 13.8187 22.2104 14.1014 22.4936C14.367 22.7597 14.633 23.0253 14.8993 23.2907C14.997 23.3882 15.0946 23.4858 15.192 23.5836C15.3248 23.7169 15.4582 23.8497 15.5918 23.9824L15.8177 24.2081C16.1459 24.5013 16.4075 24.6088 16.8574 24.5938C17.5184 24.4609 18.0703 23.7391 18.4633 23.2251L18.4858 23.1958C18.8901 22.4937 19.0245 21.7869 18.8155 20.994C18.6301 20.3187 18.1611 19.7801 17.6752 19.2855L18.397 18.597L18.4007 18.6007C19.0057 17.9975 19.5492 17.3617 20.0723 16.6874C20.4025 16.2639 20.7486 15.8562 21.1001 15.4502C21.4023 15.1006 21.6945 14.7445 21.9813 14.3819C22.1596 14.1572 22.3406 13.935 22.5224 13.7131L22.7129 13.4791C22.8506 13.3125 22.9906 13.1477 23.1323 12.9845L23.3467 12.7346L23.5442 12.5089C23.5969 12.4437 23.6314 12.4011 23.6523 12.3657L24.5793 11.4515C24.9222 11.7774 25.1895 11.9448 25.7028 11.9953C26.4771 11.9667 26.9936 11.4306 27.4996 10.9055L27.4997 10.9055C27.5513 10.8518 27.6029 10.7983 27.6546 10.7455L27.8949 10.507C28.2305 10.1788 28.3967 10.0163 28.5244 9.82773C28.6496 9.64283 28.7377 9.43287 28.9124 9.01704L28.9097 8.81494L28.9124 8.61284C28.7917 8.01641 28.3732 7.60233 27.9565 7.18996L27.9104 7.1444L27.7241 6.95675C27.5219 6.75337 27.3187 6.55094 27.1155 6.34856L26.6913 5.92368C26.3955 5.62744 26.0991 5.33167 25.8025 5.03621C25.4226 4.65776 25.0438 4.27818 24.6654 3.89824C24.3739 3.60577 24.0817 3.31392 23.7894 3.02225C23.6495 2.88253 23.5098 2.74261 23.3703 2.6025C23.1752 2.40677 22.9793 2.21187 22.7832 2.01717L22.6096 1.84195C22.2062 1.44402 21.8164 1.12337 21.2247 1.10865C20.4638 1.14647 19.905 1.72719 19.3932 2.25912L19.3932 2.25913L19.3931 2.25924C19.3366 2.318 19.2806 2.37616 19.225 2.43292ZM8.44473 18.5156L8.44471 18.5156C8.32982 18.6415 8.32982 18.6415 8.21604 18.8088L8.07975 18.9996L7.93416 19.207L7.78326 19.4191C7.68186 19.5616 7.5807 19.7044 7.47978 19.8473C7.32496 20.0665 7.16912 20.2849 7.01299 20.5032L6.81126 20.7857C6.42798 21.3231 6.04113 21.858 5.65428 22.3929L5.52375 22.5733C5.30527 22.8755 5.08698 23.1778 4.86869 23.4801L4.82825 23.5361C4.5488 23.9231 4.26931 24.3101 3.98961 24.6969C3.53917 25.3199 3.08883 25.943 2.64369 26.5698C2.43907 26.8574 2.23175 27.1429 2.02248 27.4272L1.86908 27.6366C1.76958 27.7723 1.66965 27.9077 1.56926 28.0428L1.43215 28.2302L1.30947 28.3963C1.20763 28.5634 1.16341 28.7058 1.12667 28.897C1.39221 28.8453 1.56451 28.7607 1.7815 28.6005L1.96365 28.4674L2.15843 28.3227L2.57393 28.0182L2.78808 27.8605C3.10041 27.631 3.41484 27.4045 3.72928 27.178L3.72994 27.1776L3.76458 27.1526L4.1475 26.8761L7.97671 24.1105L8.16834 23.9721L8.5496 23.6968C8.87731 23.4602 9.20491 23.2234 9.53233 22.9863C10.1875 22.5122 10.8427 22.0387 11.5081 21.579C11.3939 21.325 11.2676 21.1468 11.0713 20.95L10.9078 20.7849L10.7316 20.6097L10.5504 20.428C10.4242 20.3017 10.2977 20.1755 10.171 20.0495C9.97654 19.856 9.78298 19.6615 9.5895 19.4669L9.2212 19.0993L9.04499 18.922L8.88149 18.7602L8.73761 18.6167C8.61952 18.4976 8.61952 18.4976 8.44473 18.5156Z" fill="#AFAFAF"/>
<path d="M24.2447 1.95327L38.7069 -11.8614L38.6194 -11.9529L38.5308 -12.0433L24.2447 1.95327ZM22.4852 0.305579L34.8296 -15.4302L33.4073 -16.546L31.808 -17.3886L22.4852 0.305579ZM24.2447 1.95334L9.78251 15.768L9.86997 15.8596L9.95859 15.95L24.2447 1.95334ZM24.7661 2.48112L10.655 16.6543L10.6605 16.6597L24.7661 2.48112ZM24.9701 2.68409L39.077 -11.4932L39.0757 -11.4945L24.9701 2.68409ZM26.0356 3.74578L11.9095 17.9039L11.9118 17.9062L26.0356 3.74578ZM27.1343 4.83726L41.2205 -9.36059L41.2111 -9.36988L27.1343 4.83726ZM27.9823 5.68198L13.8478 19.8318L13.8549 19.8388L13.8619 19.8459L27.9823 5.68198ZM28.3876 6.08428L42.4514 -8.1357L42.4464 -8.14065L28.3876 6.08428ZM28.9526 6.6479L14.7882 20.7678L14.8693 20.8492L14.9514 20.9296L28.9526 6.6479ZM29.1208 6.81285L43.3434 -7.24841L43.2335 -7.35951L43.122 -7.46887L29.1208 6.81285ZM30 8.78303L49.9985 9.0263L50.003 8.65405L49.9937 8.2819L30 8.78303ZM28.4946 11.4316L14.4042 -2.76205L14.1633 -2.52288L13.9306 -2.27567L28.4946 11.4316ZM28.4946 11.4317L42.5847 25.6256L42.8258 25.3863L43.0586 25.139L28.4946 11.4317ZM28.2024 11.7241L13.9438 -2.30066L13.8489 -2.20419L13.7554 -2.10643L28.2024 11.7241ZM27.9862 11.9499L42.2251 25.9946L42.33 25.8883L42.4332 25.7805L27.9862 11.9499ZM25.74 13.0856L25.5577 33.0847L26.1486 33.0901L26.7387 33.0606L25.74 13.0856ZM24.9728 12.9835L29.5186 -6.49303L29.4945 -6.49865L29.4704 -6.50422L24.9728 12.9835ZM24.7673 12.9361L20.1578 32.3977L20.2138 32.4109L20.2698 32.4238L24.7673 12.9361ZM24.6125 12.8994L29.222 -6.56213L17.4646 -9.34688L9.52976 -0.234896L24.6125 12.8994ZM23.0028 14.8403L38.7832 27.1276L38.7946 27.113L38.806 27.0983L23.0028 14.8403ZM22.0527 15.9954L6.84438 3.00668L6.83623 3.01623L22.0527 15.9954ZM21.2051 17.0301L36.8491 29.4906L36.8617 29.4749L36.8742 29.4591L21.2051 17.0301ZM20.661 17.7019L5.18768 5.03L5.18032 5.03899L5.17297 5.04798L20.661 17.7019ZM20.4695 17.9362L35.9093 30.6489L35.9335 30.6196L35.9575 30.5902L20.4695 17.9362ZM20.06 18.4275L4.77018 5.53484L4.74888 5.5601L4.72767 5.58543L20.06 18.4275ZM19.8526 18.6752L35.1194 31.595L35.1523 31.5562L35.1849 31.5173L19.8526 18.6752ZM19.6641 18.8979L4.39726 5.978L3.96202 6.4923L3.56239 7.03473L19.6641 18.8979ZM19.3367 19.5367L-0.184198 15.1854L-1.39366 20.6112L0.370281 25.883L19.3367 19.5367ZM19.4288 19.7898L37.6387 11.5193L37.6386 11.5191L19.4288 19.7898ZM19.576 20.0526L2.39858 30.2964L2.65611 30.7282L2.93502 31.1466L19.576 20.0526ZM19.576 20.0526L37.0924 10.3998L36.6851 9.66074L36.217 8.95861L19.576 20.0526ZM19.8772 22.7277L39.0089 28.5569L39.3373 27.479L39.5425 26.3711L19.8772 22.7277ZM17.7252 25.4614L25.9171 43.7067L26.9551 43.2407L27.9334 42.66L17.7252 25.4614ZM15.8106 25.5518L6.63149 43.321L7.67441 43.8597L8.77319 44.2728L15.8106 25.5518ZM14.2751 24.2618L28.7171 10.426L28.5688 10.2712L28.4173 10.1196L14.2751 24.2618ZM14.2751 24.2618L-0.166967 38.0975L-0.018638 38.2523L0.132977 38.4039L14.2751 24.2618ZM14.0432 24.0212L28.3574 10.0532L28.3524 10.0481L14.0432 24.0212ZM13.5727 23.5414L-0.69088 37.5611L-0.690615 37.5614L13.5727 23.5414ZM13.5138 23.4815L-0.794955 37.4551L-0.772395 37.4782L-0.749761 37.5012L13.5138 23.4815ZM13.1182 23.071L27.5686 9.24402L27.493 9.16504L27.4166 9.0869L13.1182 23.071ZM12.8696 22.8168L-1.53089 36.6958L-1.48005 36.7486L-1.42883 36.8009L12.8696 22.8168ZM12.6462 22.5851L27.0467 8.70609L26.9187 8.57332L26.7884 8.44293L12.6462 22.5851ZM12.6462 22.585L26.7883 8.44291L26.6159 8.27044L26.4392 8.10223L12.6462 22.585ZM12.4467 22.4305L17.9463 3.20149L17.9455 3.20126L12.4467 22.4305ZM12.267 22.4351L9.80109 2.58767L6.47823 3.00051L3.47103 4.47314L12.267 22.4351ZM11.7893 22.7264L23.5904 38.8737L23.629 38.8454L23.6675 38.817L11.7893 22.7264ZM11.6071 22.8596L-0.194038 6.71234L-0.258562 6.7595L-0.322707 6.80717L11.6071 22.8596ZM11.4124 23.0043L23.2335 39.1369L23.2879 39.097L23.3421 39.0567L11.4124 23.0043ZM10.9982 23.3078L-0.822897 7.17515L-0.842596 7.18958L-0.862261 7.20407L10.9982 23.3078ZM10.7842 23.4654L22.625 39.5835L22.6349 39.5763L22.6447 39.5691L10.7842 23.4654ZM9.79596 24.1824L-1.90032 7.959L-1.90138 7.95977L9.79596 24.1824ZM9.78495 24.1903L-1.91239 7.96771L-1.91954 7.97286L-1.92668 7.97802L9.78495 24.1903ZM9.59112 24.3303L21.3011 40.5438L21.3027 40.5426L9.59112 24.3303ZM8.30163 25.2549L-3.30748 8.96907L-3.31391 8.97366L8.30163 25.2549ZM6.67543 26.4257L18.3956 42.6318L18.396 42.6315L6.67543 26.4257ZM6.51433 26.5422L18.2324 42.7498L18.2345 42.7483L6.51433 26.5422ZM5.36035 27.3757L-6.34641 11.16L-6.34737 11.1606L5.36035 27.3757ZM4.39979 28.0704L16.1313 44.2682L16.1344 44.266L4.39979 28.0704ZM3.25401 28.897L-8.41799 12.6562L-8.41803 12.6562L3.25401 28.897ZM3.05034 29.0434L14.7053 45.2965L14.7138 45.2903L14.7224 45.2842L3.05034 29.0434ZM2.45094 29.4714L-9.14764 13.1781L-9.17752 13.1993L-9.20732 13.2207L2.45094 29.4714ZM2.26628 29.6039L13.8336 45.9194L13.8792 45.8871L13.9245 45.8546L2.26628 29.6039ZM2.09495 29.7254L-9.47242 13.4099L-9.49272 13.4242L-9.51298 13.4387L2.09495 29.7254ZM1.94489 29.8323L12.5382 46.7964L13.0559 46.4732L13.5528 46.119L1.94489 29.8323ZM0.871393 30.0032L-8.07283 47.8918L-5.09666 49.3799L-1.799 49.8242L0.871393 30.0032ZM0.020457 29.1523L-19.7654 32.0715L-19.2985 35.2358L-17.8681 38.0966L0.020457 29.1523ZM0.662223 27.4099L16.7537 39.2869L16.7538 39.2867L0.662223 27.4099ZM0.665639 27.4052L-15.3551 15.433L-15.3907 15.4806L-15.426 15.5284L0.665639 27.4052ZM1.19116 26.7105L17.1005 38.8305L17.1123 38.8149L17.1241 38.7994L1.19116 26.7105ZM1.97229 25.6316L-14.4041 14.1506L-14.4105 14.1596L1.97229 25.6316ZM3.45474 23.5588L19.6504 35.2934L19.6531 35.2896L3.45474 23.5588ZM4.08715 22.6837L-12.1051 10.9443L-12.1169 10.9607L-12.1287 10.977L4.08715 22.6837ZM4.0876 22.6831L20.2798 34.4224L20.2917 34.406L20.3035 34.3896L4.0876 22.6831ZM4.1475 22.6001L-12.0661 10.8903L-12.0684 10.8935L4.1475 22.6001ZM4.42405 22.2172L20.6376 33.927L20.6377 33.927L4.42405 22.2172ZM4.56233 22.0257L-11.6513 10.3159L-11.6513 10.316L4.56233 22.0257ZM4.97716 21.4513L21.1908 33.1611L21.1908 33.1611L4.97716 21.4513ZM5.11554 21.2597L-11.0978 9.54962L-11.0981 9.54996L5.11554 21.2597ZM5.39106 20.8783L21.6044 32.5884L21.606 32.5862L5.39106 20.8783ZM6.09834 19.8987L-10.1149 8.18849L-10.1166 8.19081L6.09834 19.8987ZM6.24355 19.6977L22.4568 31.4079L22.4624 31.4001L6.24355 19.6977ZM6.52551 19.306L-9.7106 7.62744L-9.71839 7.63828L6.52551 19.306ZM7.13674 18.4787L22.9722 30.695L23.0023 30.656L23.0323 30.6168L7.13674 18.4787ZM7.32787 18.2284L-8.41061 5.88743L-8.48978 5.98839L-8.56764 6.09036L7.32787 18.2284ZM7.49208 18.019L23.2306 30.36L23.612 29.8736L23.9626 29.3646L7.49208 18.019ZM7.57234 17.6694L27.0888 13.2982L26.8072 12.0407L26.3665 10.8299L7.57234 17.6694ZM7.2728 17.235L-6.70672 31.5379L-6.65542 31.5881L-6.60375 31.6378L7.2728 17.235ZM7.12293 17.0885L21.1025 2.78563L21.0221 2.70711L20.9409 2.62949L7.12293 17.0885ZM6.95991 16.9327L-7.03181 31.2237L-6.94544 31.3083L-6.85805 31.3918L6.95991 16.9327ZM6.6187 16.5987L20.6104 2.30771L20.5796 2.27752L20.5486 2.24748L6.6187 16.5987ZM6.08041 16.0779L-7.82351 30.4543L-7.81369 30.4638L-7.80386 30.4732L6.08041 16.0779ZM4.4075 14.1462L-14.8071 19.6959L-14.8071 19.696L4.4075 14.1462ZM4.33896 13.394L-15.6581 13.0529L-15.6639 13.3927L-15.6582 13.7325L4.33896 13.394ZM5.38135 11.3677L19.5454 25.488L19.6368 25.3963L19.727 25.3034L5.38135 11.3677ZM5.58478 11.1583L-8.34753 -3.19055L-8.5572 -2.98697L-8.76083 -2.77735L5.58478 11.1583ZM8.7359 10.0667L9.54869 -9.91673L9.28422 -9.92749L9.01956 -9.93124L8.7359 10.0667ZM10.2726 10.5816L-1.30843 26.8875L-0.814927 27.238L-0.301127 27.558L10.2726 10.5816ZM10.6947 10.6441L16.606 29.7506L18.804 29.0705L20.7902 27.9092L10.6947 10.6441ZM11.4177 10.0967L-1.69363 -5.0061L-1.77867 -4.93227L-1.86288 -4.85749L11.4177 10.0967ZM12.609 9.11809L24.8408 24.9416L24.8551 24.9305L24.8694 24.9195L12.609 9.11809ZM13.9779 7.98752L0.898142 -7.1426L0.887537 -7.13341L13.9779 7.98752ZM15.0461 7.10642L27.4523 22.7936L27.4653 22.7833L27.4783 22.773L15.0461 7.10642ZM15.9939 6.33666L3.30077 -9.11924L3.29702 -9.11616L15.9939 6.33666ZM16.1882 6.17704L3.52347 -9.3021L3.50929 -9.29049L3.49513 -9.27887L16.1882 6.17704ZM16.7148 5.74625L4.05004 -9.73293L4.04999 -9.73288L16.7148 5.74625ZM16.9524 5.5518L29.6171 21.031L29.6172 21.0309L16.9524 5.5518ZM17.1243 5.4112L29.7891 20.8903L39.6969 12.7839L36.4842 0.392049L17.1243 5.4112ZM17.087 5.2676L-2.34631 9.99461L-2.31071 10.141L-2.27292 10.2867L17.087 5.2676ZM17.2094 3.11367L0.308446 -7.5802L-0.394005 -6.47003L-0.945198 -5.2775L17.2094 3.11367ZM18.4777 1.64363L32.615 15.7906L32.6158 15.7898L18.4777 1.64363ZM18.5162 1.60511L32.6543 15.7513L32.667 15.7386L32.6796 15.726L18.5162 1.60511ZM18.8841 1.23047L4.65644 -12.8256L4.6079 -12.7764L4.55971 -12.727L18.8841 1.23047ZM19.0228 2.63435L4.90982 -11.5369L4.86224 -11.4895L4.81499 -11.4418L19.0228 2.63435ZM19.225 2.43292L33.338 16.6042L33.4265 16.516L33.514 16.4267L19.225 2.43292ZM18.0241 4.44724L-1.94127 3.27042L-2.08304 5.67546L-1.6496 8.04537L18.0241 4.44724ZM18.573 5.43867L32.6168 19.6785L46.2455 6.23733L33.4147 -7.96745L18.573 5.43867ZM17.4229 6.57294L3.37912 -7.66686L-10.8607 6.37692L3.1831 20.6167L17.4229 6.57294ZM17.4316 6.5817L30.0459 22.1019L47.1323 8.21464L31.6714 -7.46207L17.4316 6.5817ZM17.1893 6.79344L3.80697 -8.06974L3.80526 -8.0682L17.1893 6.79344ZM17.1828 6.79929L30.396 21.8129L30.4818 21.7374L30.5668 21.6609L17.1828 6.79929ZM15.933 7.83636L3.71711 -7.99944L3.70263 -7.98827L3.68817 -7.97708L15.933 7.83636ZM14.5694 8.96163L27.6489 24.0919L27.6544 24.0872L27.6599 24.0824L14.5694 8.96163ZM13.5011 9.84271L1.09495 -5.84442L1.08196 -5.83415L1.06899 -5.82386L13.5011 9.84271ZM12.5534 10.6124L-0.143406 -4.8404L-0.163824 -4.82362L-0.184198 -4.80679L12.5534 10.6124ZM12.5534 10.6125L25.2465 26.0684L25.2688 26.0501L25.291 26.0317L12.5534 10.6125ZM12.359 10.7721L25.0238 26.2512L25.038 26.2396L25.0522 26.228L12.359 10.7721ZM11.8325 11.2029L-0.832232 -4.27627L-0.832236 -4.27627L11.8325 11.2029ZM11.6458 11.3556L-2.82767 25.1584L9.96465 38.5723L24.3106 26.8348L11.6458 11.3556ZM11.6449 11.3546L26.1184 -2.44822L12.3134 -16.924L-2.16026 -3.11672L11.6449 11.3546ZM11.6314 11.3675L24.2963 26.8465L24.8856 26.3643L25.4365 25.8388L11.6314 11.3675ZM11.5949 11.3973L24.2596 26.8765L24.2598 26.8764L11.5949 11.3973ZM11.423 11.5379L-1.24176 -3.94121L-16.9002 8.87029L-3.90922 24.3802L11.423 11.5379ZM11.4362 11.5537L25.2417 26.0246L38.8065 13.0836L26.7684 -1.28856L11.4362 11.5537ZM10.6875 12.2679L-3.31921 26.5442L10.4927 40.0953L24.493 26.7389L10.6875 12.2679ZM8.32506 11.1038L9.07166 -8.88223L8.30707 -8.9108L7.54253 -8.88086L8.32506 11.1038ZM5.67719 12.6129L-8.94624 -1.03097L-9.58983 -0.341168L-10.1656 0.40615L5.67719 12.6129ZM5.42124 13.4845L-14.576 13.1512L-14.6198 15.7823L-13.9816 18.3352L5.42124 13.4845ZM6.18399 14.5747L20.3261 0.432536L20.3189 0.425278L20.3116 0.418027L6.18399 14.5747ZM6.184 14.5747L-7.95814 28.7168L-7.95031 28.7246L6.184 14.5747ZM6.23312 14.6237L20.42 0.526501L20.3938 0.500094L20.3674 0.473784L6.23312 14.6237ZM6.35963 14.7511L-7.82725 28.8483L-7.82201 28.8536L-7.81676 28.8589L6.35963 14.7511ZM6.77742 15.1685L20.9408 1.04756L20.9165 1.02326L20.8922 0.99905L6.77742 15.1685ZM7.07772 15.4697L-7.08562 29.5906L-7.08456 29.5916L7.07772 15.4697ZM7.89207 16.2839L22.0234 2.13106L22.0201 2.12773L7.89207 16.2839ZM8.62637 17.0184L-5.5229 31.1534L-5.5226 31.1537L8.62637 17.0184ZM8.74471 17.1368L-5.40425 31.2721L-5.402 31.2744L8.74471 17.1368ZM10.1765 18.5677L24.3068 4.41369L24.3066 4.41359L10.1765 18.5677ZM11.8314 20.2229L-2.32278 34.353L-2.32229 34.3535L11.8314 20.2229ZM13.2527 21.6447L27.3882 7.49593L27.3882 7.49588L13.2527 21.6447ZM14.1014 22.4936L-0.0547484 36.6217L-0.0537993 36.6227L14.1014 22.4936ZM14.8993 23.2907L29.0252 9.1323L29.0152 9.12238L14.8993 23.2907ZM15.192 23.5836L1.02284 37.6986L1.02508 37.7009L15.192 23.5836ZM15.5918 23.9824L29.7278 9.83416L29.7082 9.81461L29.6886 9.79513L15.5918 23.9824ZM15.8177 24.2081L1.68161 38.3563L2.07757 38.7519L2.49503 39.1248L15.8177 24.2081ZM16.8574 24.5938L17.5225 44.5828L19.1772 44.5277L20.8004 44.2013L16.8574 24.5938ZM18.4633 23.2251L2.57702 11.075L2.5757 11.0767L18.4633 23.2251ZM18.4858 23.1958L34.3721 35.3459L35.1652 34.3089L35.8168 33.1776L18.4858 23.1958ZM18.8155 20.994L38.1551 15.8967L38.1289 15.7974L38.1017 15.6984L18.8155 20.994ZM17.6752 19.2855L3.86974 4.81459L-10.8143 18.8234L3.40762 33.3011L17.6752 19.2855ZM18.397 18.597L32.5209 4.4367L18.7077 -9.34104L4.59147 4.12605L18.397 18.597ZM18.4007 18.6007L4.27673 32.761L18.3978 46.8459L32.5218 32.7638L18.4007 18.6007ZM20.0723 16.6874L4.3014 4.3878L4.28509 4.40872L4.26883 4.42968L20.0723 16.6874ZM21.1001 15.4502L36.2206 28.5412L36.2256 28.5353L36.2307 28.5295L21.1001 15.4502ZM21.9813 14.3819L6.31471 1.94974L6.30438 1.96276L6.29406 1.9758L21.9813 14.3819ZM22.5224 13.7131L37.9938 26.3874L38.0139 26.3629L38.0339 26.3383L22.5224 13.7131ZM22.7129 13.4791L7.296 0.738627L7.24849 0.796124L7.2014 0.853973L22.7129 13.4791ZM23.1323 12.9845L38.2325 26.0988L38.273 26.0522L38.3132 26.0053L23.1323 12.9845ZM23.3467 12.7346L8.2939 -0.434033L8.22952 -0.360441L8.16586 -0.286224L23.3467 12.7346ZM23.5442 12.5089L38.597 25.6775L38.8485 25.3901L39.0887 25.0933L23.5442 12.5089ZM23.6523 12.3657L9.60848 -1.87413L7.74441 -0.0357184L6.41636 2.22056L23.6523 12.3657ZM24.5793 11.4515L38.358 -3.04494L24.3225 -16.3857L10.5354 -2.78834L24.5793 11.4515ZM25.7028 11.9953L23.745 31.8993L25.0904 32.0316L26.4413 31.9817L25.7028 11.9953ZM27.4996 10.9055L41.9014 24.7832L41.9144 24.7697L41.9274 24.7562L27.4996 10.9055ZM27.4997 10.9055L13.0979 -2.97219L13.0849 -2.9587L13.0719 -2.94518L27.4997 10.9055ZM27.6546 10.7455L13.5665 -3.4505L13.4629 -3.34767L13.3608 -3.24333L27.6546 10.7455ZM27.8949 10.507L13.9111 -3.79166L13.8588 -3.74052L13.8069 -3.68899L27.8949 10.507ZM28.5244 9.82773L11.9635 -1.38548L11.9634 -1.38537L28.5244 9.82773ZM28.9124 9.01704L47.352 16.7618L48.9655 12.9202L48.9107 8.75393L28.9124 9.01704ZM28.9097 8.81494L8.91147 8.55184L8.90801 8.81494L8.91147 9.07804L28.9097 8.81494ZM28.9124 8.61284L48.9107 8.87594L48.9388 6.73969L48.515 4.6457L28.9124 8.61284ZM27.9565 7.18996L13.8855 21.403L13.8893 21.4067L27.9565 7.18996ZM27.9104 7.1444L13.7171 21.2351L13.778 21.2965L13.8395 21.3574L27.9104 7.1444ZM27.7241 6.95675L41.9175 -7.13397L41.9114 -7.14013L41.9053 -7.14628L27.7241 6.95675ZM27.1155 6.34856L12.961 20.4783L12.9822 20.4996L13.0035 20.5208L27.1155 6.34856ZM26.6913 5.92368L40.8458 -8.2061L40.8425 -8.20943L26.6913 5.92368ZM25.8025 5.03621L11.6875 19.2055L11.6889 19.2069L25.8025 5.03621ZM24.6654 3.89824L38.836 -10.2154L38.8299 -10.2215L24.6654 3.89824ZM23.7894 3.02225L9.65583 17.1729L9.6633 17.1804L23.7894 3.02225ZM23.3703 2.6025L37.5425 -11.5095L37.5359 -11.5161L23.3703 2.6025ZM22.7832 2.01717L8.57762 16.0956L8.63485 16.1533L8.69256 16.2106L22.7832 2.01717ZM22.6096 1.84195L36.8151 -12.2364L36.7362 -12.3161L36.6563 -12.3949L22.6096 1.84195ZM21.2247 1.10865L21.7221 -18.8852L20.9767 -18.9037L20.232 -18.8667L21.2247 1.10865ZM19.3932 2.25912L33.5354 16.4013L33.6717 16.2649L33.8054 16.1259L19.3932 2.25912ZM19.3932 2.25913L5.25107 -11.883L5.13666 -11.7686L5.02412 -11.6523L19.3932 2.25913ZM19.3931 2.25924L5.02401 -11.6522L5.00241 -11.6299L4.98088 -11.6076L19.3931 2.25924ZM8.44471 18.5156L23.2157 31.9996L23.5201 31.6661L23.8091 31.3193L8.44471 18.5156ZM8.44473 18.5156L6.39191 -1.37876L-1.70723 -0.54304L-6.9197 5.71193L8.44473 18.5156ZM8.21604 18.8088L24.4907 30.4336L24.6243 30.2465L24.7536 30.0564L8.21604 18.8088ZM8.07975 18.9996L-8.19491 7.37481L-8.24279 7.44185L-8.29012 7.50928L8.07975 18.9996ZM7.93416 19.207L24.2295 30.8028L24.2669 30.7502L24.304 30.6973L7.93416 19.207ZM7.78326 19.4191L-8.51207 7.82328L-8.5153 7.82781L7.78326 19.4191ZM7.47978 19.8473L23.8161 31.3852L23.8164 31.3848L7.47978 19.8473ZM7.01299 20.5032L-9.25386 8.86751L-9.25817 8.87353L-9.26247 8.87956L7.01299 20.5032ZM6.81126 20.7857L-9.4642 9.16201L-9.47202 9.17298L6.81126 20.7857ZM5.65428 22.3929L-10.5513 10.672L-10.5516 10.6724L5.65428 22.3929ZM5.52375 22.5733L-10.6821 10.8529L-10.6839 10.8553L5.52375 22.5733ZM4.86869 23.4801L-11.3458 11.7716L-11.3461 11.772L4.86869 23.4801ZM4.82825 23.5361L21.0428 35.2446L21.0431 35.2442L4.82825 23.5361ZM3.98961 24.6969L-12.217 12.9773L-12.2182 12.9791L3.98961 24.6969ZM2.64369 26.5698L18.9407 38.1632L18.9455 38.1565L18.9502 38.1498L2.64369 26.5698ZM2.02248 27.4272L-14.0844 15.571L-14.0981 15.5896L-14.1117 15.6082L2.02248 27.4272ZM1.86908 27.6366L17.9984 39.4622L18.0033 39.4555L1.86908 27.6366ZM1.56926 28.0428L-14.4821 16.1116L-14.5282 16.1736L-14.5738 16.236L1.56926 28.0428ZM1.43215 28.2302L17.5192 40.1133L17.5473 40.0753L17.5752 40.0371L1.43215 28.2302ZM1.30947 28.3963L-14.7776 16.5132L-15.3064 17.2291L-15.7695 17.9892L1.30947 28.3963ZM1.12667 28.897L-18.5142 25.1241L-24.0973 54.1884L4.95198 48.5278L1.12667 28.897ZM1.7815 28.6005L-10.0196 12.4533L-10.0583 12.4815L-10.0968 12.51L1.7815 28.6005ZM1.96365 28.4674L13.7647 44.6147L13.8292 44.5675L13.8934 44.5199L1.96365 28.4674ZM2.15843 28.3227L-9.66325 12.1905L-9.71741 12.2301L-9.77129 12.2702L2.15843 28.3227ZM2.57393 28.0182L14.3956 44.1504L14.4151 44.1361L14.4345 44.1218L2.57393 28.0182ZM2.78808 27.8605L-9.05159 11.7414L-9.06205 11.7491L-9.0725 11.7568L2.78808 27.8605ZM3.72928 27.178L-7.95033 10.9427L-7.96047 10.95L3.72928 27.178ZM3.72994 27.1776L15.4096 43.4129L15.4198 43.4056L3.72994 27.1776ZM3.76458 27.1526L15.4544 43.3806L15.4644 43.3734L15.4744 43.3662L3.76458 27.1526ZM4.1475 26.8761L15.8573 43.0897L15.8573 43.0896L4.1475 26.8761ZM7.97671 24.1105L19.6865 40.3241L19.6867 40.3239L7.97671 24.1105ZM8.16834 23.9721L-3.54019 7.75761L-3.5417 7.75869L8.16834 23.9721ZM8.5496 23.6968L-3.15839 7.4819L-3.15893 7.4823L8.5496 23.6968ZM9.53233 22.9863L-2.19302 6.78399L-2.19623 6.78632L9.53233 22.9863ZM11.5081 21.579L22.8773 38.0332L36.5801 28.5651L29.7481 13.3752L11.5081 21.579ZM11.0713 20.95L-3.14057 35.022L-3.11581 35.047L-3.09097 35.0719L11.0713 20.95ZM10.9078 20.7849L25.1197 6.71285L25.064 6.65661L25.0079 6.60082L10.9078 20.7849ZM10.7316 20.6097L-3.42961 34.7327L-3.3991 34.7633L-3.36847 34.7938L10.7316 20.6097ZM10.5504 20.428L24.7116 6.305L24.7054 6.29873L24.6991 6.29245L10.5504 20.428ZM10.171 20.0495L-3.93781 34.2249L-3.93112 34.2316L10.171 20.0495ZM9.5895 19.4669L23.7712 5.36444L23.7451 5.33818L23.7188 5.31201L9.5895 19.4669ZM9.2212 19.0993L-4.96261 33.1996L-4.93543 33.227L-4.90813 33.2542L9.2212 19.0993ZM9.04499 18.922L23.2288 4.82172L23.1728 4.76536L23.1163 4.70946L9.04499 18.922ZM8.88149 18.7602L-5.24045 32.9225L-5.21518 32.9477L-5.18983 32.9728L8.88149 18.7602ZM8.73761 18.6167L-5.46574 32.6974L-5.42515 32.7383L-5.38433 32.779L8.73761 18.6167ZM38.5308 -12.0433C38.1331 -12.4493 36.6602 -13.9942 34.8296 -15.4302L10.1407 16.0414C9.95156 15.893 9.80812 15.7704 9.71523 15.6884C9.62288 15.607 9.56835 15.5549 9.56064 15.5475C9.55407 15.5413 9.57706 15.5631 9.64718 15.6335C9.68136 15.6679 9.72247 15.7094 9.77513 15.763C9.82935 15.8181 9.88576 15.8757 9.95846 15.9499L38.5308 -12.0433ZM38.7069 -11.8613L38.7069 -11.8614L9.78244 15.7679L9.78251 15.768L38.7069 -11.8613ZM38.8771 -11.692C38.8059 -11.763 38.7198 -11.8505 38.5309 -12.0433L9.95859 15.95C10.1174 16.1121 10.3778 16.3783 10.655 16.6543L38.8771 -11.692ZM39.0757 -11.4945L38.8717 -11.6975L10.6605 16.6597L10.8645 16.8627L39.0757 -11.4945ZM40.1617 -10.4124C39.8012 -10.772 39.4396 -11.1324 39.077 -11.4932L10.8632 16.8614C11.2114 17.2078 11.5601 17.5553 11.9095 17.9039L40.1617 -10.4124ZM41.2111 -9.36988C40.8483 -9.72941 40.5008 -10.0742 40.1594 -10.4147L11.9118 17.9062C12.3014 18.2949 12.6869 18.6772 13.0575 19.0444L41.2111 -9.36988ZM42.1167 -8.46782C41.8291 -8.75515 41.5279 -9.05565 41.2205 -9.36058L13.0481 19.0351C13.3072 19.2922 13.5709 19.5552 13.8478 19.8318L42.1167 -8.46782ZM42.4464 -8.14065C42.3319 -8.25381 42.2173 -8.36757 42.1026 -8.48194L13.8619 19.8459C14.0168 20.0003 14.1724 20.1548 14.3287 20.3092L42.4464 -8.14065ZM43.117 -7.47196C42.9196 -7.66997 42.6918 -7.89799 42.4514 -8.1357L14.3237 20.3043C14.4617 20.4407 14.6099 20.5889 14.7882 20.7678L43.117 -7.47196ZM43.122 -7.46887L42.9537 -7.63382L14.9514 20.9296L15.1197 21.0946L43.122 -7.46887ZM49.9937 8.2819C49.827 1.63106 46.921 -3.62979 43.3434 -7.24841L14.8983 20.8741C13.9728 19.938 12.6389 18.3465 11.5818 16.0387C10.4874 13.6497 10.0567 11.2972 10.0063 9.28416L49.9937 8.2819ZM42.5851 25.6253C42.6649 25.5461 44.5945 23.7355 46.2077 21.2984C48.199 18.29 49.9364 14.1319 49.9985 9.0263L10.0015 8.53976C10.0494 4.60251 11.4184 1.38723 12.8527 -0.779708C13.9089 -2.37539 15.093 -3.44578 14.4042 -2.76205L42.5851 25.6253ZM43.0586 25.139L43.0586 25.1389L13.9306 -2.27567L13.9306 -2.27562L43.0586 25.139ZM42.461 25.7488C42.4554 25.7545 42.4599 25.7499 42.4815 25.7283C42.5054 25.7044 42.5329 25.677 42.5847 25.6256L14.4045 -2.76229C14.3204 -2.67885 14.1384 -2.49847 13.9438 -2.30066L42.461 25.7488ZM42.4332 25.7805L42.6494 25.5546L13.7554 -2.10643L13.5391 -1.88057L42.4332 25.7805ZM26.7387 33.0606C34.5971 32.6677 39.6776 28.5774 42.2251 25.9946L13.7472 -2.0947C14.148 -2.50099 15.4122 -3.73787 17.4723 -4.84997C19.758 -6.08383 22.2687 -6.76584 24.7413 -6.88947L26.7387 33.0606ZM20.4271 32.4601C21.5526 32.7228 23.3372 33.0645 25.5577 33.0847L25.9223 -6.91359C27.6094 -6.89821 28.9122 -6.63454 29.5186 -6.49303L20.4271 32.4601ZM20.2698 32.4238L20.4753 32.4713L29.4704 -6.50422L29.2649 -6.55164L20.2698 32.4238ZM20.003 32.361L20.1578 32.3977L29.3768 -6.52547L29.222 -6.56213L20.003 32.361ZM38.806 27.0983C38.9966 26.8526 39.2645 26.5284 39.6953 26.0338L9.52976 -0.234896C8.85465 0.540365 8.04119 1.4973 7.19963 2.58226L38.806 27.0983ZM37.2611 28.984C37.6598 28.5172 38.2038 27.8717 38.7832 27.1276L7.22245 2.55289C7.18844 2.59657 7.09407 2.71433 6.84438 3.00668L37.2611 28.984ZM36.8742 29.4591C37.0606 29.2241 37.1833 29.0752 37.2693 28.9745L6.83623 3.01623C6.3429 3.5946 5.90427 4.13689 5.53599 4.60119L36.8742 29.4591ZM36.1343 30.3738C36.333 30.1311 36.5835 29.8242 36.8491 29.4906L5.56108 4.56962C5.46759 4.687 5.35415 4.82673 5.18768 5.03L36.1343 30.3738ZM35.9575 30.5902L36.149 30.3558L5.17297 5.04798L4.98151 5.28232L35.9575 30.5902ZM35.3498 31.3202C35.5327 31.1033 35.7196 30.8793 35.9093 30.6489L5.02971 5.22356C4.94841 5.32231 4.86212 5.42581 4.77018 5.53484L35.3498 31.3202ZM35.1849 31.5173L35.3923 31.2696L4.72767 5.58543L4.52025 5.83307L35.1849 31.5173ZM34.931 31.8177L35.1194 31.595L4.58573 5.7553L4.39726 5.978L34.931 31.8177ZM38.8576 23.8881C38.472 25.6178 37.84 27.2796 37.0038 28.8066C36.3318 30.0336 35.6386 30.9338 35.7659 30.761L3.56239 7.03473C3.15426 7.58867 0.841157 10.5855 -0.184198 15.1854L38.8576 23.8881ZM37.6386 11.5191C37.9255 12.1509 38.1179 12.6674 38.2177 12.9462C38.2634 13.0739 38.2956 13.1686 38.3043 13.1943C38.3122 13.2176 38.3174 13.2331 38.3031 13.1905L0.370281 25.883C0.377053 25.9032 0.400692 25.974 0.425376 26.0467C0.450911 26.122 0.498181 26.2604 0.558147 26.4279C0.68643 26.7862 0.90382 27.3664 1.21906 28.0605L37.6386 11.5191ZM36.7535 9.8088C36.7274 9.76508 36.7342 9.7764 36.7454 9.79542C36.7576 9.81612 36.8107 9.90594 36.8811 10.0301C37.0369 10.3048 37.3258 10.8305 37.6387 11.5193L1.21895 28.0602C1.56223 28.8161 1.88537 29.4071 2.08748 29.7634C2.18103 29.9284 2.26023 30.0631 2.30268 30.135C2.34415 30.2052 2.38524 30.274 2.39858 30.2964L36.7535 9.8088ZM36.217 8.95861L36.217 8.9586L2.93502 31.1466L2.93503 31.1466L36.217 8.95861ZM39.5425 26.3711C40.1457 23.1153 40.6661 16.8848 37.0924 10.3998L2.05966 29.7054C-0.6041 24.8717 -0.0500711 20.4981 0.211841 19.0844L39.5425 26.3711ZM27.9334 42.66C33.1566 39.5598 37.2132 34.4505 39.0089 28.5569L0.745514 16.8986C1.40176 14.7447 2.39055 13.1027 3.33099 11.9085C4.27338 10.7118 5.62133 9.38796 7.51705 8.26275L27.9334 42.66ZM8.77319 44.2728C14.983 46.6071 21.1733 45.8366 25.9171 43.7067L9.53339 7.21601C13.08 5.62364 17.8831 4.96443 22.8481 6.83083L8.77319 44.2728ZM-0.16682 38.0976C-0.160735 38.104 2.56518 41.2204 6.63149 43.321L24.9898 7.78263C26.6523 8.64141 27.7647 9.56585 28.2786 10.0225C28.729 10.4227 29.0441 10.7673 28.7171 10.426L-0.16682 38.0976ZM0.132977 38.4039L0.132994 38.4039L28.4173 10.1196L28.4172 10.1196L0.132977 38.4039ZM-0.270907 37.9892C-0.274528 37.9855 -0.269808 37.9903 -0.251378 38.0095C-0.231247 38.0304 -0.20837 38.0542 -0.166967 38.0975L28.7172 10.4261C28.6506 10.3566 28.5097 10.2093 28.3574 10.0532L-0.270907 37.9892ZM-0.690615 37.5614C-0.529795 37.725 -0.395705 37.8614 -0.265877 37.9944L28.3524 10.0481C28.1692 9.86046 27.9892 9.67738 27.8359 9.52147L-0.690615 37.5614ZM-0.749761 37.5012L-0.69088 37.5611L27.8362 9.52174L27.7773 9.46184L-0.749761 37.5012ZM-1.33222 36.898C-1.20609 37.0298 -1.0085 37.2364 -0.794955 37.4551L27.8225 9.50796C27.7705 9.45468 27.7053 9.38684 27.5686 9.24402L-1.33222 36.898ZM-1.42883 36.8009L-1.18024 37.0551L27.4166 9.0869L27.168 8.83273L-1.42883 36.8009ZM-1.75426 36.464L-1.53089 36.6958L27.2701 8.93785L27.0467 8.70609L-1.75426 36.464ZM-1.49593 36.7272L-1.49591 36.7272L26.7884 8.44293L26.7883 8.44291L-1.49593 36.7272ZM6.94705 41.6595C3.35426 40.6319 0.966001 38.8471 -0.0358923 38.0381C-0.522367 37.6453 -0.876873 37.319 -0.990074 37.2145C-1.10655 37.1069 -1.20577 37.0117 -1.14684 37.0679L26.4392 8.10223C26.4323 8.0956 26.3954 8.06048 26.3559 8.02303C26.3147 7.98413 26.2409 7.9145 26.1499 7.83042C25.9981 7.69024 25.61 7.33421 25.0929 6.9167C24.0298 6.0583 21.5923 4.24428 17.9463 3.20149L6.94705 41.6595ZM14.7329 42.2825C15.0579 42.2421 14.2184 42.3599 13.3025 42.4025C12.1302 42.457 9.77713 42.4688 6.94787 41.6597L17.9455 3.20126C15.0729 2.37984 12.674 2.38847 11.4447 2.44563C10.849 2.47332 10.379 2.52189 10.1691 2.54466C10.0507 2.5575 9.95473 2.56893 9.90124 2.57538C9.85057 2.5815 9.80442 2.58726 9.80109 2.58767L14.7329 42.2825ZM23.6675 38.817C23.3312 39.0653 22.9248 39.3452 22.4531 39.6335C21.9787 39.9236 21.5118 40.1772 21.063 40.397L3.47103 4.47314C2.14344 5.12326 0.968344 5.85532 -0.0889349 6.63581L23.6675 38.817ZM23.4082 39.0069L23.5904 38.8737L-0.0118013 6.57916L-0.194038 6.71234L23.4082 39.0069ZM23.3421 39.0567L23.5368 38.912L-0.322707 6.80717L-0.517409 6.95187L23.3421 39.0567ZM22.8193 39.4404L23.2335 39.1369L-0.40873 6.87167L-0.822897 7.17515L22.8193 39.4404ZM22.6447 39.5691L22.8587 39.4115L-0.862261 7.20407L-1.07624 7.36167L22.6447 39.5691ZM21.4922 40.4057C21.8104 40.1763 22.213 39.8862 22.625 39.5835L-1.05661 7.34723C-1.30061 7.52648 -1.55824 7.71238 -1.90032 7.959L21.4922 40.4057ZM21.4823 40.4129L21.4933 40.4049L-1.90138 7.95977L-1.91239 7.96771L21.4823 40.4129ZM21.3027 40.5426L21.4966 40.4026L-1.92668 7.97802L-2.12051 8.11804L21.3027 40.5426ZM19.9107 41.5408C20.3636 41.2179 20.829 40.8848 21.3011 40.5438L-2.11884 8.11683C-2.50432 8.39524 -2.89899 8.67789 -3.30748 8.96907L19.9107 41.5408ZM18.396 42.6315C18.9459 42.2338 19.4348 41.8803 19.9172 41.5362L-3.31391 8.97366C-3.91904 9.40538 -4.51259 9.83473 -5.04509 10.2199L18.396 42.6315ZM18.2345 42.7483L18.3956 42.6318L-5.0447 10.2196L-5.2058 10.3361L18.2345 42.7483ZM17.0671 43.5915C17.4514 43.3141 17.8415 43.0325 18.2324 42.7498L-5.20374 10.3346C-5.58187 10.608 -5.96128 10.8819 -6.34641 11.16L17.0671 43.5915ZM16.1344 44.266C16.4426 44.0427 16.7533 43.8181 17.0681 43.5908L-6.34737 11.1606C-6.67334 11.396 -7.00306 11.6343 -7.33481 11.8747L16.1344 44.266ZM14.926 45.1379C15.3289 44.8483 15.7307 44.5584 16.1313 44.2682L-7.33174 11.8725C-7.69394 12.1348 -8.056 12.3961 -8.41799 12.6562L14.926 45.1379ZM14.7224 45.2842L14.9261 45.1378L-8.41803 12.6562L-8.62171 12.8026L14.7224 45.2842ZM14.0495 45.7648C14.2584 45.6161 14.4792 45.4586 14.7053 45.2965L-8.60461 12.7903C-8.77751 12.9143 -8.95646 13.042 -9.14764 13.1781L14.0495 45.7648ZM13.9245 45.8546L14.1092 45.7221L-9.20732 13.2207L-9.39199 13.3532L13.9245 45.8546ZM13.6623 46.0409L13.8336 45.9194L-9.30109 13.2884L-9.47242 13.4099L13.6623 46.0409ZM13.5528 46.119L13.7029 46.012L-9.51298 13.4387L-9.66304 13.5456L13.5528 46.119ZM-1.799 49.8242C0.579299 50.1446 6.47677 50.5815 12.5382 46.7964L-8.64843 12.8682C-3.25147 9.49803 1.92178 9.96407 3.54178 10.1823L-1.799 49.8242ZM-17.8681 38.0966C-15.7287 42.3753 -12.3515 45.7525 -8.07283 47.8918L9.81562 12.1147C11.0529 12.7333 12.7889 13.7895 14.5115 15.5122C16.2342 17.2348 17.2904 18.9708 17.909 20.2081L-17.8681 38.0966ZM-15.4293 15.5329C-15.4695 15.5873 -15.8837 16.1406 -16.3032 16.7738C-16.7596 17.4628 -17.4711 18.6085 -18.1366 20.1081C-19.684 23.5947 -20.41 27.7024 -19.7654 32.0715L19.8063 26.2331C20.3435 29.8747 19.7289 33.3951 18.4244 36.3344C17.49 38.4398 16.2326 39.9929 16.7537 39.2869L-15.4293 15.5329ZM-15.426 15.5284L-15.4294 15.533L16.7538 39.2867L16.7573 39.2821L-15.426 15.5284ZM-14.7182 14.5906C-14.8958 14.8237 -15.1208 15.1194 -15.3551 15.433L16.6864 39.3775C16.7998 39.2258 16.9262 39.0593 17.1005 38.8305L-14.7182 14.5906ZM-14.4105 14.1596C-14.6063 14.4393 -14.6973 14.5631 -14.7418 14.6217L17.1241 38.7994C17.6169 38.1499 18.0411 37.5518 18.3551 37.1035L-14.4105 14.1596ZM-12.7409 11.8242C-13.2562 12.5354 -13.8254 13.3251 -14.4041 14.1506L18.3487 37.1125C18.7454 36.5468 19.1688 35.9581 19.6504 35.2934L-12.7409 11.8242ZM-12.1287 10.977C-12.3408 11.2708 -12.5427 11.5505 -12.7437 11.828L19.6531 35.2896C19.8744 34.9841 20.0938 34.6802 20.303 34.3904L-12.1287 10.977ZM-12.1046 10.9437L-12.1051 10.9443L20.2794 34.423L20.2798 34.4224L-12.1046 10.9437ZM-12.0684 10.8935L-12.1283 10.9765L20.3035 34.3896L20.3634 34.3067L-12.0684 10.8935ZM-11.7895 10.5074L-12.0661 10.8903L20.3611 34.3099L20.6376 33.927L-11.7895 10.5074ZM-11.6513 10.316L-11.7896 10.5074L20.6377 33.927L20.7759 33.7355L-11.6513 10.316ZM-11.2364 9.74154L-11.6513 10.3159L20.7759 33.7355L21.1908 33.1611L-11.2364 9.74154ZM-11.0981 9.54996L-11.2364 9.74156L21.1908 33.1611L21.3291 32.9695L-11.0981 9.54996ZM-10.8223 9.16815L-11.0978 9.54962L21.3289 32.9699L21.6044 32.5884L-10.8223 9.16815ZM-10.1166 8.19081L-10.8239 9.17036L21.606 32.5862L22.3133 31.6066L-10.1166 8.19081ZM-9.96973 7.98743L-10.1149 8.18849L22.3116 31.6089L22.4568 31.4079L-9.96973 7.98743ZM-9.71839 7.63828C-9.80369 7.75704 -9.88934 7.87601 -9.97534 7.9952L22.4624 31.4001C22.5647 31.2584 22.667 31.1163 22.7694 30.9737L-9.71839 7.63828ZM-8.69875 6.26245C-9.12522 6.81526 -9.49008 7.32087 -9.7106 7.62744L22.7616 30.9846C22.8467 30.8663 22.8986 30.7948 22.9372 30.7423C22.974 30.6923 22.9829 30.6811 22.9722 30.695L-8.69875 6.26245ZM-8.56764 6.09036L-8.75877 6.34065L23.0323 30.6168L23.2234 30.3665L-8.56764 6.09036ZM-8.24641 5.67802L-8.41061 5.88743L23.0664 30.5694L23.2306 30.36L-8.24641 5.67802ZM-11.9441 22.0406C-11.8605 22.4138 -12.0914 21.4631 -12.2303 20.4245C-12.4238 18.9778 -12.6039 16.4315 -11.901 13.3699C-11.2427 10.5021 -10.0975 8.47792 -9.61551 7.66987C-9.21872 7.00469 -8.79973 6.414 -8.97846 6.67346L23.9626 29.3646C23.9665 29.3589 23.9899 29.3249 24.0151 29.2881C24.0415 29.2497 24.088 29.1815 24.1442 29.0977C24.2405 28.954 24.4696 28.6097 24.7368 28.1618C25.2512 27.2994 26.4163 25.2317 27.0848 22.3202C27.7977 19.2148 27.6176 16.6247 27.4168 15.1231C27.3266 14.4481 27.2207 13.9202 27.174 13.6936C27.1474 13.5643 27.1246 13.46 27.1122 13.4034C27.1004 13.3496 27.0894 13.3007 27.0888 13.2982L-11.9441 22.0406ZM-6.60375 31.6378C-6.70732 31.5381 -7.74711 30.56 -8.81136 29.073C-10.0285 27.3725 -10.7705 25.7492 -11.2218 24.5089L26.3665 10.8299C24.875 6.73137 22.5278 4.16026 21.1493 2.83219L-6.60375 31.6378ZM-6.85658 31.3914L-6.70672 31.5379L21.2523 2.93211L21.1025 2.78563L-6.85658 31.3914ZM-6.85805 31.3918L-6.69502 31.5476L20.9409 2.62949L20.7779 2.47369L-6.85805 31.3918ZM-7.37301 30.8897L-7.03181 31.2237L20.9516 2.64177L20.6104 2.30771L-7.37301 30.8897ZM-7.80386 30.4732C-7.63907 30.6322 -7.47486 30.7911 -7.31123 30.9499L20.5486 2.24748C20.354 2.05851 20.1593 1.87018 19.9647 1.68247L-7.80386 30.4732ZM-14.8071 19.696C-13.5325 24.1089 -11.1439 26.9643 -10.0687 28.1688C-9.19805 29.1442 -8.14081 30.1474 -7.82351 30.4543L19.9843 1.70144C19.6611 1.38883 19.5181 1.25007 19.4233 1.15614C19.3133 1.04704 19.4925 1.21857 19.7721 1.53181C20.3352 2.16267 22.4732 4.61883 23.6221 8.59654L-14.8071 19.696ZM-15.6582 13.7325C-15.6573 13.7839 -15.6541 13.99 -15.6477 14.2084C-15.6409 14.4385 -15.6269 14.827 -15.592 15.2963C-15.5209 16.2541 -15.3461 17.8298 -14.8071 19.6959L23.6221 8.59655C24.1018 10.2574 24.2451 11.6198 24.2982 12.3343C24.3402 12.9007 24.3417 13.3875 24.3361 13.0556L-15.6582 13.7325ZM-8.78268 -2.75245C-9.08348 -2.45072 -11.0848 -0.527942 -12.718 2.31608C-14.7236 5.80858 -15.5978 9.51433 -15.6581 13.0529L24.336 13.7352C24.2914 16.3507 23.6179 19.3649 21.9692 22.2358C20.693 24.4583 19.205 25.8294 19.5454 25.488L-8.78268 -2.75245ZM-8.76083 -2.77735L-8.96426 -2.56794L19.727 25.3034L19.9304 25.094L-8.76083 -2.77735ZM9.01956 -9.93124C4.74784 -9.99183 -2.26745 -9.09412 -8.34753 -3.19055L19.5171 25.5072C17.794 27.1803 15.5826 28.5485 13.0671 29.3434C10.7958 30.0612 9.01266 30.0727 8.45225 30.0647L9.01956 -9.93124ZM21.8536 -5.7242C18.0314 -8.43884 13.7379 -9.74634 9.54869 -9.91673L7.92312 30.0502C6.54482 29.9942 4.94717 29.7557 3.2478 29.1921C1.53567 28.6243 0.00591845 27.821 -1.30843 26.8875L21.8536 -5.7242ZM4.78344 -8.46234C4.41434 -8.34814 5.30419 -8.64059 6.28399 -8.85541C7.61117 -9.14639 10.1924 -9.57443 13.4095 -9.09819C16.517 -8.63816 18.7578 -7.54482 19.7125 -7.04222C20.471 -6.64289 21.144 -6.20931 20.8463 -6.39473L-0.301127 27.558C-0.294188 27.5623 -0.25472 27.5869 -0.212107 27.6133C-0.167588 27.6408 -0.089089 27.6892 0.00728247 27.7474C0.173254 27.8475 0.567161 28.0832 1.07892 28.3526C2.09858 28.8894 4.39157 30.0028 7.5519 30.4706C10.8217 30.9546 13.4562 30.5222 14.8504 30.2165C15.4983 30.0745 16.0035 29.9299 16.2188 29.8671C16.3426 29.8311 16.443 29.8006 16.4987 29.7836C16.5517 29.7674 16.6005 29.7523 16.606 29.7506L4.78344 -8.46234ZM-1.86288 -4.85749C-1.829 -4.88758 -0.874236 -5.75932 0.599259 -6.62092L20.7902 27.9092C22.7971 26.7357 24.2044 25.4894 24.6982 25.0508L-1.86288 -4.85749ZM0.377217 -6.70543C-0.366265 -6.13071 -1.0549 -5.56061 -1.69363 -5.0061L24.529 25.1994C24.6682 25.0786 24.7692 24.997 24.8408 24.9416L0.377217 -6.70543ZM0.887537 -7.13341C0.588975 -6.87495 0.431353 -6.74747 0.348639 -6.6833L24.8694 24.9195C25.7236 24.2567 26.4703 23.6261 27.0682 23.1085L0.887537 -7.13341ZM2.63995 -8.58074C2.09149 -8.14698 1.5058 -7.6679 0.898145 -7.14259L27.0576 23.1176C27.1492 23.0385 27.2757 22.9332 27.4523 22.7936L2.63995 -8.58074ZM3.29702 -9.11616C2.96069 -8.83982 2.77732 -8.68978 2.61394 -8.56012L27.4783 22.773C27.9526 22.3966 28.3981 22.0299 28.6907 21.7895L3.29702 -9.11616ZM3.49513 -9.27887L3.30077 -9.11924L28.687 21.7926L28.8814 21.6329L3.49513 -9.27887ZM4.04999 -9.73288L3.52347 -9.3021L28.853 21.6562L29.3795 21.2254L4.04999 -9.73288ZM4.28771 -9.92738L4.05004 -9.73293L29.3795 21.2254L29.6171 21.031L4.28771 -9.92738ZM4.4595 -10.0679L4.28765 -9.92733L29.6172 21.0309L29.7891 20.8903L4.4595 -10.0679ZM-2.27292 10.2867L-2.23569 10.4303L36.4842 0.392049L36.447 0.248453L-2.27292 10.2867ZM-0.945198 -5.2775C-3.85534 1.01867 -3.13829 6.73868 -2.34631 9.99461L36.5204 0.540591C36.687 1.22562 37.0132 2.78529 36.943 4.85488C36.8672 7.08918 36.3503 9.3707 35.3639 11.5048L-0.945198 -5.2775ZM4.34035 -12.5033C4.14965 -12.3128 2.04481 -10.3244 0.308446 -7.5802L34.1103 13.8075C33.5123 14.7527 32.9602 15.3971 32.7002 15.6875C32.4852 15.9275 32.3192 16.0861 32.615 15.7906L4.34035 -12.5033ZM4.3781 -12.5411L4.33955 -12.5025L32.6158 15.7898L32.6543 15.7513L4.3781 -12.5411ZM4.55971 -12.727C4.43013 -12.594 4.38403 -12.5471 4.35282 -12.5157L32.6796 15.726C32.8956 15.5093 33.0938 15.3057 33.2086 15.1879L4.55971 -12.727ZM31.808 -17.3886C26.0937 -20.3994 19.8185 -20.6716 14.3509 -18.8927C9.58556 -17.3423 6.38299 -14.5732 4.65644 -12.8256L33.1119 15.2865C32.3646 16.0429 30.2784 17.989 26.7267 19.1446C22.4727 20.5287 17.5084 20.2896 13.1623 17.9998L31.808 -17.3886ZM33.1357 16.8056L33.338 16.6042L5.11208 -11.7384L4.90982 -11.5369L33.1357 16.8056ZM37.9894 5.62407C37.8166 8.55654 36.8952 11.4617 35.3253 13.991C34.1386 15.9029 32.7976 17.1475 33.2305 16.7105L4.81499 -11.4418C4.03464 -10.6542 -1.42055 -5.56395 -1.94127 3.27042L37.9894 5.62407ZM33.4147 -7.96745C34.1099 -7.19781 36.7823 -4.1562 37.6977 0.849118L-1.6496 8.04537C-0.591976 13.8282 2.51866 17.5023 3.73132 18.8448L33.4147 -7.96745ZM4.52921 -8.80112L3.37912 -7.66686L31.4667 20.8127L32.6168 19.6785L4.52921 -8.80112ZM3.1831 20.6167L3.19174 20.6255L31.6714 -7.46207L31.6627 -7.47084L3.1831 20.6167ZM30.5716 21.6566C30.6351 21.5994 30.5916 21.6389 30.5329 21.6906C30.4687 21.7471 30.2908 21.9029 30.0459 22.1019L4.81716 -8.93851C4.49907 -8.67998 4.24496 -8.45875 4.1003 -8.33139C3.96117 -8.20889 3.83309 -8.09325 3.80697 -8.06974L30.5716 21.6566ZM30.5668 21.6609L30.5733 21.6551L3.80526 -8.0682L3.79878 -8.06236L30.5668 21.6609ZM28.1488 23.6722C29.0155 23.0036 29.7705 22.3635 30.396 21.8129L3.9695 -8.21436C3.77999 -8.04757 3.71013 -7.99407 3.71711 -7.99944L28.1488 23.6722ZM27.6599 24.0824C27.9545 23.8274 28.1045 23.7065 28.1778 23.6498L3.68817 -7.97708C2.82763 -7.31074 2.07708 -6.67707 1.47884 -6.15915L27.6599 24.0824ZM25.9074 25.5298C26.4559 25.0961 27.0414 24.6171 27.6489 24.0919L1.48981 -6.16865C1.39806 -6.08933 1.27149 -5.98404 1.09495 -5.84442L25.9074 25.5298ZM25.2503 26.0653C25.5866 25.7889 25.7699 25.6389 25.9333 25.5093L1.06899 -5.82386C0.594728 -5.44751 0.149152 -5.08078 -0.143406 -4.8404L25.2503 26.0653ZM25.291 26.0317L25.2911 26.0317L-0.184198 -4.80679L-0.184264 -4.80674L25.291 26.0317ZM25.0522 26.228L25.2465 26.0684L-0.139787 -4.84337L-0.334119 -4.68378L25.0522 26.228ZM24.4973 26.682L25.0238 26.2512L-0.305716 -4.70706L-0.832232 -4.27627L24.4973 26.682ZM24.3106 26.8348L24.4973 26.682L-0.832236 -4.27627L-1.01892 -4.12353L24.3106 26.8348ZM-2.82865 25.1574L-2.82767 25.1584L26.1193 -2.44719L26.1184 -2.44822L-2.82865 25.1574ZM25.4365 25.8388L25.45 25.8259L-2.16026 -3.11672L-2.17374 -3.10386L25.4365 25.8388ZM24.2598 26.8764L24.2963 26.8465L-1.03354 -4.11156L-1.07006 -4.08169L24.2598 26.8764ZM24.0878 27.0171L24.2596 26.8765L-1.06991 -4.08181L-1.24176 -3.94121L24.0878 27.0171ZM26.7684 -1.28856L26.7552 -1.30429L-3.90922 24.3802L-3.89605 24.3959L26.7684 -1.28856ZM24.493 26.7389L25.2417 26.0246L-2.36932 -2.91728L-3.11799 -2.20303L24.493 26.7389ZM7.57846 31.0899C1.52714 30.8638 -2.20013 27.6421 -3.31921 26.5442L24.6942 -2.00835C22.251 -4.40541 17.0207 -8.58529 9.07166 -8.88223L7.57846 31.0899ZM20.3006 26.2568C20.2817 26.2771 20.0329 26.5453 19.6308 26.9074C19.219 27.2782 18.5327 27.8518 17.585 28.454C15.4875 29.787 12.5785 30.9526 9.10759 31.0885L7.54253 -8.88086C-2.1267 -8.50225 -7.72218 -2.34291 -8.94624 -1.03097L20.3006 26.2568ZM25.4185 13.8177C25.4135 14.1183 25.3974 15.8612 24.831 18.0456C24.1795 20.5582 23.0288 22.8615 21.52 24.8197L-10.1656 0.40615C-14.2472 5.70346 -14.5423 11.1282 -14.576 13.1512L25.4185 13.8177ZM20.3116 0.418027C19.9934 0.100496 20.7749 0.840428 21.5627 1.8618C22.4459 3.00689 23.9896 5.29593 24.8241 8.63375L-13.9816 18.3352C-13.0376 22.1114 -11.2694 24.7889 -10.1107 26.2912C-9.51907 27.0583 -8.98025 27.6537 -8.62682 28.0298C-8.29323 28.3848 -7.98578 28.6892 -7.94362 28.7313L20.3116 0.418027ZM20.3261 0.432542L20.3261 0.432536L-7.95814 28.7168L-7.95814 28.7168L20.3261 0.432542ZM20.3674 0.473784L20.3183 0.424715L-7.95031 28.7246L-7.90118 28.7737L20.3674 0.473784ZM20.5465 0.653817L20.42 0.526501L-7.95376 28.721L-7.82725 28.8483L20.5465 0.653817ZM20.8922 0.99905C20.7479 0.855309 20.6392 0.746893 20.536 0.643268L-7.81676 28.8589C-7.64216 29.0343 -7.47203 29.2037 -7.33739 29.3379L20.8922 0.99905ZM21.2411 1.34876L20.9408 1.04756L-7.38592 29.2894L-7.08562 29.5906L21.2411 1.34876ZM22.0201 2.12773C21.7515 1.85968 21.4936 1.60204 21.24 1.3477L-7.08456 29.5916C-6.79607 29.8809 -6.51081 30.1659 -6.23597 30.4402L22.0201 2.12773ZM22.7756 2.88337C22.5325 2.63995 22.2789 2.38609 22.0234 2.13106L-6.2393 30.4368C-6.00478 30.671 -5.76905 30.907 -5.5229 31.1534L22.7756 2.88337ZM22.8937 3.00153L22.7753 2.88306L-5.5226 31.1537L-5.40425 31.2721L22.8937 3.00153ZM24.3066 4.41359C23.833 3.94073 23.3614 3.46956 22.8914 2.99927L-5.402 31.2744C-4.91807 31.7586 -4.435 32.2413 -3.95362 32.7218L24.3066 4.41359ZM25.9855 6.09274C25.4291 5.5354 24.8692 4.9752 24.3068 4.41369L-3.95372 32.7217C-3.41192 33.2626 -2.86877 33.8061 -2.32278 34.353L25.9855 6.09274ZM27.3882 7.49588C26.9196 7.02774 26.4519 6.5599 25.985 6.09225L-2.32229 34.3535C-1.84223 34.8343 -1.36235 35.3143 -0.882772 35.7934L27.3882 7.49588ZM28.2575 8.36549C27.9653 8.07265 27.6748 7.78217 27.3882 7.49593L-0.882816 35.7934C-0.603183 36.0728 -0.327799 36.3481 -0.0547484 36.6217L28.2575 8.36549ZM29.0152 9.12238C28.7603 8.8684 28.5075 8.61592 28.2566 8.36454L-0.0537993 36.6227C0.226449 36.9034 0.50564 37.1823 0.783363 37.459L29.0152 9.12238ZM29.3611 9.46846C29.2488 9.35578 29.1369 9.24372 29.0252 9.13231L0.773407 37.449C0.857141 37.5326 0.94028 37.6158 1.02284 37.6986L29.3611 9.46846ZM29.6886 9.79513C29.5626 9.66991 29.4567 9.56442 29.3589 9.46622L1.02508 37.7009C1.19297 37.8694 1.35385 38.0295 1.49489 38.1696L29.6886 9.79513ZM29.9537 10.0599L29.7278 9.83416L1.45572 38.1306L1.68161 38.3563L29.9537 10.0599ZM16.1923 4.60488C17.7289 4.55375 20.3592 4.66962 23.3809 5.81501C26.33 6.93291 28.2693 8.51348 29.1403 9.29139L2.49503 39.1248C3.69428 40.1959 5.92846 41.9768 9.20289 43.218C12.5499 44.4867 15.536 44.6489 17.5225 44.5828L16.1923 4.60488ZM2.5757 11.0767C2.24179 11.5134 2.87428 10.6279 3.84474 9.68775C4.63726 8.91998 7.70273 6.0344 12.9144 4.98635L20.8004 44.2013C26.673 43.0203 30.345 39.7074 31.677 38.417C33.1869 36.9542 34.2919 35.4508 34.351 35.3735L2.5757 11.0767ZM2.59946 11.0456L2.57702 11.075L34.3496 35.3752L34.3721 35.3459L2.59946 11.0456ZM-0.524031 26.0912C-1.08872 23.9488 -1.27414 21.5133 -0.869496 18.9774C-0.475302 16.5071 0.378859 14.5611 1.15478 13.2139L35.8168 33.1776C38.4676 28.5751 39.8906 22.4814 38.1551 15.8967L-0.524031 26.0912ZM3.40762 33.3011C3.397 33.2903 3.24526 33.1364 3.03334 32.8961C2.81795 32.6519 2.48136 32.2525 2.09815 31.7174C1.3336 30.6499 0.225071 28.8234 -0.470679 26.2895L38.1017 15.6984C36.4289 9.60611 32.5373 5.8752 31.9428 5.27L3.40762 33.3011ZM4.59147 4.12605L3.86974 4.81459L31.4807 33.7565L32.2025 33.068L4.59147 4.12605ZM32.5246 4.44041L32.5209 4.4367L4.27301 32.7573L4.27673 32.761L32.5246 4.44041ZM4.26883 4.42968C4.19745 4.5217 4.16699 4.55647 4.17078 4.55211C4.17296 4.54961 4.18362 4.53742 4.20232 4.51732C4.22111 4.49713 4.24697 4.47008 4.27957 4.43758L32.5218 32.7638C33.8673 31.4223 34.9699 30.1129 35.8757 28.9451L4.26883 4.42968ZM5.97964 2.35934C5.56441 2.83895 4.95155 3.55416 4.3014 4.3878L35.8432 28.9869C35.8406 28.9902 35.864 28.9601 35.9279 28.8837C35.9937 28.8048 36.0832 28.6998 36.2206 28.5412L5.97964 2.35934ZM6.29406 1.9758C6.15467 2.15206 6.04923 2.27882 5.96953 2.37103L36.2307 28.5295C36.7555 27.9224 37.2344 27.3369 37.6684 26.788L6.29406 1.9758ZM7.05102 1.0389C6.85449 1.2788 6.59315 1.59886 6.31471 1.94974L37.6478 26.8141C37.726 26.7156 37.8268 26.5912 37.9938 26.3874L7.05102 1.0389ZM7.2014 0.853973L7.01094 1.08798L38.0339 26.3383L38.2243 26.1043L7.2014 0.853973ZM8.03217 -0.12977C7.7974 0.14056 7.55056 0.430594 7.296 0.738627L38.1297 26.2196C38.1506 26.1944 38.1838 26.1549 38.2325 26.0988L8.03217 -0.12977ZM8.16586 -0.286224L7.95147 -0.0362607L38.3132 26.0053L38.5276 25.7554L8.16586 -0.286224ZM8.49135 -0.65973L8.2939 -0.434033L38.3996 25.9032L38.597 25.6775L8.49135 -0.65973ZM6.41636 2.22056C7.01903 1.19667 7.57897 0.464817 7.7435 0.25041C7.91854 0.0223111 8.08128 -0.176377 7.99965 -0.075536L39.0887 25.0933C39.0933 25.0876 39.1415 25.0282 39.1929 24.9639C39.2458 24.8979 39.3504 24.7667 39.4769 24.6019C39.677 24.341 40.2647 23.5701 40.8882 22.5108L6.41636 2.22056ZM37.6961 26.6054L38.6231 25.6912L10.5354 -2.78834L9.60848 -1.87413L37.6961 26.6054ZM27.6605 -7.90863C29.3293 -7.7445 31.6697 -7.26545 34.1836 -5.97986C36.5025 -4.79393 37.9686 -3.41511 38.358 -3.04494L10.8005 25.9478C11.5328 26.644 13.304 28.2695 15.9707 29.6332C18.8322 31.0966 21.563 31.6846 23.745 31.8993L27.6605 -7.90863ZM13.0978 -2.97211C12.5793 -2.43403 13.6441 -3.63172 15.2018 -4.72649C17.1852 -6.12042 20.5306 -7.82721 24.9642 -7.99104L26.4413 31.9817C31.6493 31.7892 35.64 29.8001 38.2017 27.9997C39.3978 27.1592 40.3003 26.3505 40.8573 25.8236C41.3829 25.3265 41.8308 24.8564 41.9014 24.7832L13.0978 -2.97211ZM13.0719 -2.94518L13.0719 -2.94511L41.9274 24.7562L41.9274 24.7561L13.0719 -2.94518ZM13.3608 -3.24333C13.2458 -3.12583 13.1405 -3.01635 13.0979 -2.97219L41.9014 24.7831C41.9149 24.7691 41.9245 24.7592 41.9335 24.7499C41.9421 24.7409 41.9479 24.7349 41.9521 24.7306C41.9607 24.7216 41.958 24.7245 41.9484 24.7343L13.3608 -3.24333ZM13.8069 -3.68899L13.5665 -3.4505L41.7427 24.9415L41.983 24.703L13.8069 -3.68899ZM11.9634 -1.38537C12.7081 -2.48534 13.4079 -3.25827 13.7524 -3.62278C13.908 -3.78743 14.0177 -3.89603 14.022 -3.90031C14.0238 -3.90209 14.0109 -3.88932 13.9111 -3.79166L41.8788 24.8057C41.9394 24.7464 42.3915 24.3092 42.8229 23.8528C43.3663 23.2778 44.2129 22.3294 45.0854 21.0408L11.9634 -1.38537ZM10.4728 1.27227C10.4206 1.39653 10.4147 1.41019 10.4168 1.40542C10.4204 1.39703 10.4807 1.2558 10.5756 1.05253C10.7847 0.604299 11.2354 -0.31028 11.9635 -1.38548L45.0853 21.0409C45.9385 19.7808 46.4959 18.6688 46.8241 17.9654C47.0856 17.4049 47.3213 16.8349 47.352 16.7618L10.4728 1.27227ZM8.91147 9.07804L8.91413 9.28014L48.9107 8.75393L48.908 8.55184L8.91147 9.07804ZM8.91413 8.34974L8.91147 8.55184L48.908 9.07804L48.9107 8.87594L8.91413 8.34974ZM13.8893 21.4067C14.2949 21.808 13.4038 20.9796 12.5317 19.814C11.4728 18.3987 9.99421 15.9618 9.3098 12.58L48.515 4.6457C47.7099 0.66746 45.9617 -2.27474 44.5592 -4.14923C43.3435 -5.77409 42.0348 -7.01573 42.0236 -7.02676L13.8893 21.4067ZM13.8395 21.3574L13.8855 21.403L42.0274 -7.02305L41.9813 -7.06861L13.8395 21.3574ZM13.5308 21.0475L13.7171 21.2351L42.1038 -6.94632L41.9175 -7.13397L13.5308 21.0475ZM13.0035 20.5208C13.2083 20.7247 13.3795 20.8953 13.543 21.0598L41.9053 -7.14628C41.6643 -7.3886 41.4291 -7.62282 41.2274 -7.82372L13.0035 20.5208ZM12.5368 20.0535L12.961 20.4783L41.2699 -7.78122L40.8458 -8.20609L12.5368 20.0535ZM11.6889 19.2069C11.9753 19.4921 12.2589 19.7752 12.5402 20.0568L40.8425 -8.20943C40.532 -8.52029 40.223 -8.82877 39.916 -9.13446L11.6889 19.2069ZM10.4948 18.0119C10.8804 18.399 11.2804 18.7999 11.6875 19.2055L39.9175 -9.13303C39.5648 -9.48434 39.2073 -9.84265 38.836 -10.2154L10.4948 18.0119ZM9.6633 17.1804C9.95065 17.4671 10.2281 17.7443 10.5009 18.018L38.8299 -10.2215C38.5197 -10.5328 38.2128 -10.8392 37.9155 -11.1359L9.6633 17.1804ZM9.1981 16.7145C9.35071 16.8678 9.50329 17.0206 9.65583 17.1729L37.923 -11.1284C37.7957 -11.2555 37.6689 -11.3825 37.5425 -11.5095L9.1981 16.7145ZM8.69256 16.2106C8.88046 16.3972 9.04699 16.5629 9.20468 16.7211L37.5359 -11.5161C37.3034 -11.7494 37.0782 -11.9734 36.8739 -12.1763L8.69256 16.2106ZM8.40397 15.9204L8.57762 16.0956L36.9888 -12.0612L36.8151 -12.2364L8.40397 15.9204ZM20.7274 21.1025C17.199 21.0147 14.1348 19.929 11.7751 18.5276C9.79808 17.3534 8.56853 16.0845 8.56276 16.0788L36.6563 -12.3949C35.8266 -13.2136 30.5817 -18.6648 21.7221 -18.8852L20.7274 21.1025ZM33.8054 16.1259C34.3002 15.6116 33.3445 16.6843 31.9472 17.6964C30.2762 18.9066 26.9323 20.8497 22.2175 21.084L20.232 -18.8667C14.7562 -18.5946 10.7524 -16.3422 8.4839 -14.6992C6.48902 -13.2544 4.998 -11.6253 4.981 -11.6077L33.8054 16.1259ZM33.5353 16.4013L33.5354 16.4013L5.25109 -11.883L5.25107 -11.883L33.5353 16.4013ZM33.7622 16.1707L33.7623 16.1706L5.02412 -11.6523L5.02401 -11.6522L33.7622 16.1707ZM33.514 16.4267C33.6421 16.2959 33.7599 16.1732 33.8053 16.126L4.98088 -11.6076C4.9661 -11.5922 4.95577 -11.5814 4.94609 -11.5714C4.93682 -11.5618 4.9308 -11.5555 4.92674 -11.5513C4.91806 -11.5424 4.92296 -11.5475 4.93608 -11.5609L33.514 16.4267ZM23.8091 31.3193L23.8092 31.3193L-6.9197 5.71193L-6.91971 5.71194L23.8091 31.3193ZM24.7536 30.0564C24.8084 29.9759 24.7509 30.061 24.683 30.1582C24.592 30.2886 24.3842 30.5829 24.0996 30.9478C23.7983 31.334 23.5375 31.6374 23.3691 31.8282C23.2527 31.96 23.1466 32.0753 23.2157 31.9996L-6.32631 5.03168C-7.18797 5.97559 -7.76869 6.74832 -8.32153 7.56117L24.7536 30.0564ZM24.3544 30.6244L24.4907 30.4336L-8.05863 7.18401L-8.19491 7.37481L24.3544 30.6244ZM24.304 30.6973L24.4496 30.4899L-8.29012 7.50928L-8.43571 7.71669L24.304 30.6973ZM24.0786 31.0149L24.2295 30.8028L-8.36116 7.61121L-8.51207 7.82328L24.0786 31.0149ZM23.8164 31.3848C23.9046 31.2599 23.9931 31.1351 24.0818 31.0103L-8.5153 7.82781C-8.62935 7.98818 -8.7432 8.14882 -8.85684 8.30973L23.8164 31.3848ZM23.2798 32.1389C23.4442 31.9091 23.627 31.653 23.8161 31.3852L-8.85654 8.30931C-8.97711 8.48002 -9.10597 8.66077 -9.25386 8.86751L23.2798 32.1389ZM23.0867 32.4093L23.2884 32.1269L-9.26247 8.87956L-9.46419 9.16202L23.0867 32.4093ZM21.8599 34.1137C22.2402 33.5878 22.6662 32.999 23.0946 32.3984L-9.47202 9.17298C-9.8102 9.64718 -10.158 10.1282 -10.5513 10.672L21.8599 34.1137ZM21.7296 34.2938L21.8602 34.1133L-10.5516 10.6724L-10.6821 10.8529L21.7296 34.2938ZM21.0832 35.1887C21.302 34.8856 21.5169 34.588 21.7314 34.2914L-10.6839 10.8553C-10.9064 11.163 -11.1281 11.4701 -11.3458 11.7716L21.0832 35.1887ZM21.0431 35.2442L21.0835 35.1882L-11.3461 11.772L-11.3866 11.828L21.0431 35.2442ZM20.1962 36.4164C20.4799 36.024 20.7626 35.6326 21.0428 35.2446L-11.3863 11.8276C-11.665 12.2136 -11.9413 12.5962 -12.217 12.9773L20.1962 36.4164ZM18.9502 38.1498C19.3386 37.6029 19.7402 37.0471 20.1974 36.4147L-12.2182 12.9791C-12.6618 13.5927 -13.1609 14.283 -13.6628 14.9898L18.9502 38.1498ZM18.1293 39.2834C18.3883 38.9315 18.6608 38.5567 18.9407 38.1632L-13.6533 14.9764C-13.7826 15.1582 -13.9248 15.3543 -14.0844 15.571L18.1293 39.2834ZM18.0033 39.4555L18.1567 39.2461L-14.1117 15.6082L-14.2651 15.8176L18.0033 39.4555ZM17.6206 39.974C17.7486 39.8018 17.8745 39.6311 17.9984 39.4622L-14.2602 15.811C-14.3354 15.9135 -14.4093 16.0136 -14.4821 16.1116L17.6206 39.974ZM17.5752 40.0371L17.7123 39.8496L-14.5738 16.236L-14.7109 16.4234L17.5752 40.0371ZM17.3965 40.2794L17.5192 40.1133L-14.6549 16.3472L-14.7776 16.5132L17.3965 40.2794ZM20.7676 32.6699C20.6835 33.1077 20.4798 34.0864 20.0529 35.2955C19.5969 36.5874 19.0231 37.7619 18.3885 38.8034L-15.7695 17.9892C-17.4927 20.817 -18.1877 23.4245 -18.5142 25.1241L20.7676 32.6699ZM-10.0968 12.51C-9.5241 12.0872 -8.42446 11.3285 -6.89656 10.6246C-5.30881 9.89308 -3.85019 9.49066 -2.69863 9.26626L4.95198 48.5278C8.58376 47.8201 11.4554 46.3184 13.6598 44.6911L-10.0968 12.51ZM-9.83744 12.3201L-10.0196 12.4533L13.5826 44.7478L13.7647 44.6147L-9.83744 12.3201ZM-9.77129 12.2702L-9.96608 12.4149L13.8934 44.5199L14.0882 44.3751L-9.77129 12.2702ZM-9.24775 11.886L-9.66325 12.1905L13.9801 44.4548L14.3956 44.1504L-9.24775 11.886ZM-9.0725 11.7568L-9.28665 11.9146L14.4345 44.1218L14.6487 43.9641L-9.0725 11.7568ZM-7.96047 10.95C-8.26238 11.1675 -8.6521 11.448 -9.05159 11.7414L14.6277 43.9795C14.8529 43.8141 15.0921 43.6416 15.419 43.4061L-7.96047 10.95ZM-7.94966 10.9422L-7.95032 10.9427L15.4089 43.4134L15.4095 43.4129L-7.94966 10.9422ZM-7.92524 10.9246L-7.95988 10.9496L15.4198 43.4056L15.4544 43.3806L-7.92524 10.9246ZM-7.5623 10.6625L-7.94522 10.939L15.4744 43.3662L15.8573 43.0897L-7.5623 10.6625ZM-3.7331 7.89693L-7.56231 10.6625L15.8573 43.0896L19.6865 40.3241L-3.7331 7.89693ZM-3.5417 7.75869L-3.73333 7.89709L19.6867 40.3239L19.8784 40.1855L-3.5417 7.75869ZM-3.15893 7.4823L-3.54019 7.75761L19.8769 40.1866L20.2581 39.9113L-3.15893 7.4823ZM-2.19623 6.78632C-2.51528 7.01731 -2.83583 7.249 -3.15839 7.4819L20.2576 39.9117C20.5905 39.6714 20.9251 39.4295 21.2609 39.1864L-2.19623 6.78632ZM0.138927 5.12474C-0.731932 5.72647 -1.55627 6.32319 -2.19302 6.78399L21.2577 39.1887C21.9313 38.7012 22.4174 38.351 22.8773 38.0332L0.138927 5.12474ZM-3.09097 35.0719C-3.62851 34.5329 -4.34903 33.7375 -5.08293 32.6855C-5.82547 31.621 -6.35705 30.6162 -6.73189 29.7828L29.7481 13.3752C28.58 10.7781 27.0231 8.62265 25.2336 6.82806L-3.09097 35.0719ZM-3.30407 34.8569L-3.14057 35.022L25.2832 6.87797L25.1197 6.71285L-3.30407 34.8569ZM-3.36847 34.7938L-3.19225 34.9689L25.0079 6.60082L24.8317 6.42565L-3.36847 34.7938ZM-3.61081 34.551L-3.42961 34.7327L24.8928 6.48669L24.7116 6.305L-3.61081 34.551ZM-3.93112 34.2316C-3.81947 34.3426 -3.70853 34.4532 -3.59828 34.5636L24.6991 6.29245C24.5569 6.15006 24.4149 6.00842 24.2732 5.86753L-3.93112 34.2316ZM-4.59217 33.5694C-4.39842 33.7643 -4.17251 33.9913 -3.93781 34.2249L24.2799 5.87418C24.1256 5.72064 23.9644 5.55874 23.7712 5.36444L-4.59217 33.5694ZM-4.90813 33.2542L-4.53984 33.6219L23.7188 5.31201L23.3505 4.94438L-4.90813 33.2542ZM-5.13882 33.0224L-4.96261 33.1996L23.405 4.99897L23.2288 4.82172L-5.13882 33.0224ZM-5.18983 32.9728L-5.02633 33.1346L23.1163 4.70946L22.9528 4.54758L-5.18983 32.9728ZM-5.38433 32.779L-5.24045 32.9225L23.0034 4.59787L22.8595 4.45439L-5.38433 32.779ZM10.4975 38.41C10.8487 38.3737 9.98507 38.4768 9.05849 38.5005C7.88173 38.5306 5.23267 38.5059 2.08755 37.4204C-1.12232 36.3126 -3.27707 34.6465 -4.30112 33.7743C-5.07264 33.1173 -5.72998 32.4308 -5.46574 32.6974L22.941 4.53604C22.9394 4.53446 22.906 4.50071 22.8691 4.46381C22.8304 4.42503 22.7584 4.35321 22.6684 4.26534C22.5133 4.11392 22.1379 3.75074 21.6343 3.32188C20.5716 2.41679 18.3838 0.729459 15.1373 -0.390992C11.9556 -1.48909 9.26636 -1.51785 8.03676 -1.48643C7.42653 -1.47083 6.94583 -1.43041 6.74812 -1.413C6.63264 -1.40283 6.53913 -1.39364 6.48824 -1.38855C6.43972 -1.38371 6.39532 -1.37911 6.39191 -1.37876L10.4975 38.41Z" fill="#AFAFAF" mask="url(#path-1-inside-1_1_284)"/>
</svg>
