<svg width="430" height="430" viewBox="0 0 430 430" fill="none" xmlns="http://www.w3.org/2000/svg">
<path d="M199.393 0.0364185C251.745 -0.937303 302.294 17.6368 340.788 53.1067C342.889 55.032 345.039 56.8783 347.214 58.72C351.223 62.2351 354.636 66.0489 358.026 70.1575C358.449 70.6572 358.872 71.1569 359.307 71.6717C387.411 104.96 406.819 148.862 407.265 192.908C407.274 193.715 407.284 194.523 407.294 195.355C407.787 246.598 393.85 289.562 364.026 331.158C369.109 337.388 374.777 342.97 380.508 348.593C382.895 350.937 385.272 353.29 387.65 355.644C392.061 360.009 396.476 364.371 400.907 368.716C404.005 371.754 407.09 374.805 410.168 377.863C411.334 379.018 412.505 380.168 413.68 381.314C428.751 396.005 428.751 396.005 429.651 407.158C429.302 412.855 427.443 417.594 424.026 422.158C418.161 427.222 412.639 429.685 404.872 429.456C393.366 428.249 385.527 418.306 377.925 410.544C376.595 409.205 375.264 407.867 373.932 406.53C370.452 403.031 366.987 399.518 363.526 396C359.982 392.405 356.423 388.824 352.866 385.241C345.905 378.227 338.961 371.198 332.026 364.158C330.37 365.092 330.37 365.092 328.68 366.046C328.059 366.396 327.437 366.747 326.797 367.108C324.459 368.494 322.357 370.112 320.214 371.783C312.615 377.38 304.375 381.786 296.026 386.158C295.403 386.486 294.779 386.815 294.137 387.154C277.126 395.99 257.915 402.016 239.026 405.158C237.976 405.333 236.926 405.508 235.845 405.688C225.426 407.257 215.171 407.557 204.651 407.533C203.775 407.532 202.899 407.531 201.996 407.531C179.785 407.468 159.14 404.092 138.026 397.158C136.971 396.814 136.971 396.814 135.893 396.463C110.256 387.938 87.1013 373.507 67.2997 355.243C65.1874 353.305 63.0263 351.447 60.8388 349.595C56.83 346.08 53.4137 342.268 50.0263 338.158C49.3843 337.392 49.3843 337.392 48.7294 336.611C40.6614 326.967 33.5113 316.931 27.0263 306.158C26.6605 305.55 26.2948 304.943 25.9179 304.317C-0.609125 259.408 -6.00681 203.321 6.22845 153.212C13.6257 124.895 26.329 98.7313 45.0263 76.1575C45.5074 75.5749 45.9886 74.9922 46.4843 74.3919C55.7861 63.1938 65.5058 53.1228 77.0263 44.1575C77.5593 43.7374 78.0924 43.3174 78.6415 42.8846C113.311 15.7349 155.591 1.61169 199.393 0.0364185ZM93.0263 90.1575C91.8352 91.2539 91.8352 91.2539 90.62 92.3724C78.5969 103.806 69.5642 117.466 62.0263 132.158C61.5492 133.075 61.5492 133.075 61.0624 134.011C42.0172 171.067 40.0704 214.551 52.2958 254.044C64.9395 292.646 92.9094 326.573 129.011 345.392C146.341 354.126 164.694 360.748 184.026 363.158C184.854 363.268 185.681 363.379 186.534 363.493C226.902 368.061 269.32 356.475 301.411 331.462C305.65 328.038 309.641 324.368 313.554 320.578C315.04 319.144 316.546 317.733 318.054 316.322C344.944 290.757 362.89 251.343 364.026 214.158C364.047 213.49 364.067 212.822 364.088 212.134C365.282 166.456 349.035 125.247 317.792 92.0286C290.786 63.9924 251.786 46.0866 212.745 44.9192C167.109 44.2088 126.258 58.3484 93.0263 90.1575Z" fill="black"/>
</svg>
